<svg xmlns="http://www.w3.org/2000/svg" width="166" height="166" viewBox="0 0 166 166">
  <g id="Grupo_1028245" data-name="Grupo 1028245" transform="translate(-975 -5361)">
    <circle id="Elipse_8445" data-name="Elipse 8445" cx="83" cy="83" r="83" transform="translate(975 5361)" fill="#fff" opacity="0.45"/>
    <circle id="Elipse_8446" data-name="Elipse 8446" cx="67" cy="67" r="67" transform="translate(991 5377)" fill="#fff"/>
    <g id="organizacion_1_" data-name="organizacion (1)" transform="translate(1020 5406)">
      <g id="Grupo_1028242" data-name="Grupo 1028242" transform="translate(2.187 2.187)">
        <g id="Grupo_1028217" data-name="Grupo 1028217" transform="translate(62.909 60.502)">
          <path id="Trazado_774649" data-name="Trazado 774649" d="M55,57.753a4.188,4.188,0,0,0,1.187-4.748s7.122-1.187,7.122,10.683H57.374Z" transform="translate(-55 -52.972)" fill="#fcd770"/>
        </g>
        <g id="Grupo_1028218" data-name="Grupo 1028218" transform="translate(51.063 60.461)">
          <path id="Trazado_774650" data-name="Trazado 774650" d="M54.492,57.76l-2.374,5.935H46.183A9.979,9.979,0,0,0,45.02,58.84c1.234-7,8.285-5.828,8.285-5.828A4.188,4.188,0,0,0,54.492,57.76Z" transform="translate(-45.02 -52.937)" fill="#fcd770"/>
        </g>
        <g id="Grupo_1028219" data-name="Grupo 1028219" transform="translate(58.161 65.283)">
          <path id="Trazado_774651" data-name="Trazado 774651" d="M55.748,57l2.374,5.935H51L53.374,57Z" transform="translate(-51 -57)" fill="#ff826e"/>
        </g>
        <g id="Grupo_1028220" data-name="Grupo 1028220" transform="translate(59.051 60.535)">
          <path id="Trazado_774652" data-name="Trazado 774652" d="M56.795,53a4.188,4.188,0,0,1-1.187,4.748H53.234A4.188,4.188,0,0,1,52.047,53,3.288,3.288,0,0,0,56.795,53Z" transform="translate(-51.75 -53)" fill="#fc6e51"/>
        </g>
        <g id="Grupo_1028221" data-name="Grupo 1028221" transform="translate(9.496 64.096)">
          <path id="Trazado_774653" data-name="Trazado 774653" d="M15.935,56l1.187,7.122H10L11.187,56Z" transform="translate(-10 -56)" fill="#ffeaa7"/>
        </g>
        <g id="Grupo_1028222" data-name="Grupo 1028222" transform="translate(9.496 59.348)">
          <path id="Trazado_774654" data-name="Trazado 774654" d="M17.122,52l-1.187,4.748H11.187L10,52A6.7,6.7,0,0,0,17.122,52Z" transform="translate(-10 -52)" fill="#fcd770"/>
        </g>
        <g id="Grupo_1028223" data-name="Grupo 1028223" transform="translate(51.847 34.422)">
          <path id="Trazado_774655" data-name="Trazado 774655" d="M55.555,38.122H51.995c-3.561,0-3.561,2.374-3.561,2.374v7.122s-1.211,1.068-2.374-4.748c-.605-3.039-.593-6.077.831-8.321,1.341-2.077,3.893-3.478,8.321-3.549h.344a15.619,15.619,0,0,1,4.143.487c5.686,1.531,6.338,6.457,5.353,11.383-1.163,5.816-2.374,4.748-2.374,4.748V40.5L60.3,38.122Z" transform="translate(-45.68 -31)" fill="#b27946"/>
        </g>
        <g id="Grupo_1028224" data-name="Grupo 1028224" transform="translate(35.609 9.496)">
          <path id="Trazado_774656" data-name="Trazado 774656" d="M67.609,25.454v4.487l-3.81,1.5a14.287,14.287,0,0,1-1.472,3.691l-.071.285a15.619,15.619,0,0,0-4.143-.487h-.344a10.686,10.686,0,1,0-13.935,1.733l-.95.154A11.541,11.541,0,0,0,37,34.986a14.308,14.308,0,0,1-1.436-3.644L32,29.941V25.454l3.644-1.282a14.485,14.485,0,0,1,1.638-3.834L35.7,16.718l.415-.4,2.754-2.766,3.608,1.733a14.282,14.282,0,0,1,3.632-1.46L47.454,10h4.487l1.519,3.87a14.189,14.189,0,0,1,3.454,1.412l3.976-1.733,3.169,3.169-1.84,3.81a14.538,14.538,0,0,1,1.507,3.561Z" transform="translate(-32 -10)" fill="#ffc729"/>
        </g>
        <g id="Grupo_1028225" data-name="Grupo 1028225" transform="translate(54.6 41.544)">
          <path id="Trazado_774657" data-name="Trazado 774657" d="M55.122,37H59.87l2.374,2.374v9.5s-.855,2.576-4.783,3.347a12.9,12.9,0,0,1-4.677,0C48.855,51.445,48,48.87,48,48.87v-9.5S48,37,51.561,37Z" transform="translate(-48 -37)" fill="#f0d0b4"/>
        </g>
        <g id="Grupo_1028226" data-name="Grupo 1028226" transform="translate(59.348 56.761)">
          <path id="Trazado_774658" data-name="Trazado 774658" d="M56.748,50.034v3.561a3.288,3.288,0,0,1-4.748,0V50.034l.036-.214a12.9,12.9,0,0,0,4.677,0Z" transform="translate(-52 -49.82)" fill="#f0d0b4"/>
        </g>
        <g id="Grupo_1028227" data-name="Grupo 1028227" transform="translate(42.731 16.618)">
          <path id="Trazado_774659" data-name="Trazado 774659" d="M59.365,26.683A10.655,10.655,0,0,1,56.647,33.8c-4.427.071-6.979,1.472-8.321,3.549a10.525,10.525,0,0,1-5.614-1.816,10.681,10.681,0,1,1,16.653-8.855Zm-3.727,0a6.956,6.956,0,1,0-6.956,6.956A6.965,6.965,0,0,0,55.638,26.683Z" transform="translate(-38 -16)" fill="#fcd770"/>
        </g>
        <g id="Grupo_1028228" data-name="Grupo 1028228" transform="translate(26.113 61.2)">
          <path id="Trazado_774660" data-name="Trazado 774660" d="M48.95,58.723a9.979,9.979,0,0,1,1.163,4.855H24a9.475,9.475,0,0,1,2.374-6.552,12.552,12.552,0,0,1,5.519-3.466l5.163,6.457L42.22,53.56a12.914,12.914,0,0,1,5.246,3.169,8.724,8.724,0,0,1,1.484,1.994Z" transform="translate(-24 -53.56)" fill="#ff826e"/>
        </g>
        <g id="Grupo_1028229" data-name="Grupo 1028229" transform="translate(28.452 34.422)">
          <path id="Trazado_774661" data-name="Trazado 774661" d="M38.124,31.059a11.541,11.541,0,0,1,5.887,1.828c3.964,2.777,3.359,7.608,3.359,7.608V60.674l-.273.273a12.914,12.914,0,0,0-5.246-3.169,14.736,14.736,0,0,0-2.789-.665V53.552l-.036-.214c3.929-.772,4.783-3.347,4.783-3.347V41.683a3.556,3.556,0,0,0-3.561-3.561H33.127c-3.561,0-3.561,2.374-3.561,2.374v9.5s.855,2.576,4.783,3.347l-.036.214v3.561a14.736,14.736,0,0,0-2.789.665,12.552,12.552,0,0,0-5.519,3.466V40.5a9.076,9.076,0,0,1,.368-3.442C27.2,34.335,29.649,31,36.688,31a13.945,13.945,0,0,1,1.436.059Z" transform="translate(-25.971 -31)" fill="#656d78"/>
        </g>
        <g id="Grupo_1028230" data-name="Grupo 1028230" transform="translate(32.048 41.544)">
          <path id="Trazado_774662" data-name="Trazado 774662" d="M43.244,40.561V48.87s-.855,2.576-4.783,3.347a12.9,12.9,0,0,1-4.677,0C29.855,51.445,29,48.87,29,48.87v-9.5S29,37,32.561,37h7.122A3.556,3.556,0,0,1,43.244,40.561Z" transform="translate(-29 -37)" fill="#f0d0b4"/>
        </g>
        <g id="Grupo_1028231" data-name="Grupo 1028231" transform="translate(34.007 56.761)">
          <path id="Trazado_774663" data-name="Trazado 774663" d="M40.977,54.259l-5.163,6.457L30.65,54.259a14.736,14.736,0,0,1,2.789-.665V50.034l.036-.214a12.9,12.9,0,0,0,4.677,0l.036.214v3.561A14.736,14.736,0,0,1,40.977,54.259Z" transform="translate(-30.65 -49.82)" fill="#f0d0b4"/>
        </g>
        <g id="Grupo_1028232" data-name="Grupo 1028232" transform="translate(9.496 9.496)">
          <circle id="Elipse_8714" data-name="Elipse 8714" cx="13.057" cy="13.057" r="13.057" fill="#69d6f4"/>
        </g>
        <g id="Grupo_1028233" data-name="Grupo 1028233" transform="translate(0 0)">
          <path id="Trazado_774664" data-name="Trazado 774664" d="M25.811,11.555c-.415-.036-.831-.059-1.258-.059s-.843.024-1.258.059A13.062,13.062,0,0,0,12.92,30.487l.024.154c-2.042.332-3.122,1.151-3.656,2.089l-.166.131a7.139,7.139,0,0,0-1.175.095l-.012-.047A18.061,18.061,0,0,1,6.51,29.027L2,27.247V21.573l4.617-1.614a18.465,18.465,0,0,1,2.077-4.867L6.7,10.511,10.712,6.5l4.558,2.2a18.346,18.346,0,0,1,4.605-1.852L21.573,2h5.674l1.935,4.9a18.374,18.374,0,0,1,4.38,1.792l5.033-2.2,4.012,4.012-2.315,4.831a19.131,19.131,0,0,1,1.056,2.089l.38.38-.415.4,1.579,3.62a14.485,14.485,0,0,0-1.638,3.834L37.609,26.95l-.214-.036A13.061,13.061,0,0,0,25.811,11.555Z" transform="translate(-2 -2)" fill="#b4dd7f"/>
        </g>
        <g id="Grupo_1028234" data-name="Grupo 1028234" transform="translate(24.819 24.914)">
          <path id="Trazado_774665" data-name="Trazado 774665" d="M38.7,32.557A13.943,13.943,0,0,0,37.26,32.5c-7.039,0-9.484,3.335-10.315,6.054l-.368-.119H25.391l-2.374,2.374V34.872a8.672,8.672,0,0,0-.107-1.389l.107-.012A13.027,13.027,0,0,0,33.486,22.99l.214.036v4.487l3.561,1.4A14.307,14.307,0,0,0,38.7,32.557Z" transform="translate(-22.91 -22.99)" fill="#5cd6b3"/>
        </g>
        <g id="Grupo_1028235" data-name="Grupo 1028235" transform="translate(15.431 59.348)">
          <path id="Trazado_774666" data-name="Trazado 774666" d="M19.748,63.87H16.187L15,56.748,16.187,52s9.5,1.187,9.5,11.87Z" transform="translate(-15 -52)" fill="#e6e9ed"/>
        </g>
        <g id="Grupo_1028236" data-name="Grupo 1028236" transform="translate(1.187 28.487)">
          <path id="Trazado_774667" data-name="Trazado 774667" d="M9.1,28.243c.534-.938,1.614-1.757,3.656-2.089A13.863,13.863,0,0,1,14.87,26a21.967,21.967,0,0,1,4.2.368c3.217.593,6.362,2.089,7.347,5.543a6.594,6.594,0,0,1,.214,1.009,8.672,8.672,0,0,1,.107,1.389v9.5c0-3.561-3.561-3.561-3.561-3.561V39.057A3.556,3.556,0,0,0,19.618,35.5h-9.5c-3.561,0-3.561,3.561-3.561,3.561v1.187S3,40.244,3,43.8v-9.5s0-5.116,4.76-5.84a7.139,7.139,0,0,1,1.175-.095Z" transform="translate(-3 -26)" fill="#b27946"/>
        </g>
        <g id="Grupo_1028237" data-name="Grupo 1028237" transform="translate(21.365 42.731)">
          <path id="Trazado_774668" data-name="Trazado 774668" d="M20,38s3.561,0,3.561,3.561S20,45.122,20,45.122Z" transform="translate(-20 -38)" fill="#f0d0b4"/>
        </g>
        <g id="Grupo_1028238" data-name="Grupo 1028238" transform="translate(4.748 37.983)">
          <path id="Trazado_774669" data-name="Trazado 774669" d="M22.618,45.87v1.187s0,3.312-4.831,4.4a15.992,15.992,0,0,1-3.478.344,15.992,15.992,0,0,1-3.478-.344C6,50.368,6,47.057,6,47.057v-9.5S6,34,9.561,34h9.5a3.556,3.556,0,0,1,3.561,3.561V45.87Z" transform="translate(-6 -34)" fill="#f0d0b4"/>
        </g>
        <g id="Grupo_1028239" data-name="Grupo 1028239" transform="translate(9.496 55.443)">
          <path id="Trazado_774670" data-name="Trazado 774670" d="M17.122,49.054v3.561a6.7,6.7,0,0,1-7.122,0V49.054l.083-.344a15.992,15.992,0,0,0,3.478.344,15.992,15.992,0,0,0,3.478-.344Z" transform="translate(-10 -48.71)" fill="#f0d0b4"/>
        </g>
        <g id="Grupo_1028240" data-name="Grupo 1028240" transform="translate(0 59.348)">
          <path id="Trazado_774671" data-name="Trazado 774671" d="M7.935,63.87H2C2,53.187,11.5,52,11.5,52l1.187,4.748L11.5,63.87Z" transform="translate(-2 -52)" fill="#e6e9ed"/>
        </g>
        <g id="Grupo_1028241" data-name="Grupo 1028241" transform="translate(1.187 42.731)">
          <path id="Trazado_774672" data-name="Trazado 774672" d="M6.561,38v7.122S3,45.122,3,41.561,6.561,38,6.561,38Z" transform="translate(-3 -38)" fill="#f0d0b4"/>
        </g>
      </g>
      <g id="Grupo_1028243" data-name="Grupo 1028243" transform="translate(1 1)">
        <path id="Trazado_774673" data-name="Trazado 774673" d="M0,0H2.374V5.935H0Z" transform="matrix(0.8, -0.6, 0.6, 0.8, 10.92, 38.695)"/>
        <path id="Trazado_774674" data-name="Trazado 774674" d="M0,0H2.374V5.935H0Z" transform="matrix(0.8, -0.6, 0.6, 0.8, 15.668, 38.695)"/>
        <circle id="Elipse_8715" data-name="Elipse 8715" cx="1.187" cy="1.187" r="1.187" transform="translate(9.496 43.918)"/>
        <circle id="Elipse_8716" data-name="Elipse 8716" cx="1.187" cy="1.187" r="1.187" transform="translate(16.618 43.918)"/>
        <path id="Trazado_774675" data-name="Trazado 774675" d="M18.093,44.972l-1.678-1.678a3.71,3.71,0,0,1-5.447,0L9.293,44.972a6.714,6.714,0,0,0,4.525,1.943,5.954,5.954,0,0,0,4.275-1.943Z" transform="translate(0.55 6.907)"/>
        <path id="Trazado_774676" data-name="Trazado 774676" d="M35.374,34.978,34.187,35H33c0,.047.082,4.748,7.122,4.748V37.378C35.62,37.378,35.386,35.224,35.374,34.978Z" transform="translate(4.983 5.353)"/>
        <circle id="Elipse_8717" data-name="Elipse 8717" cx="1.187" cy="1.187" r="1.187" transform="translate(35.609 47.479)"/>
        <circle id="Elipse_8718" data-name="Elipse 8718" cx="1.187" cy="1.187" r="1.187" transform="translate(42.731 47.479)"/>
        <path id="Trazado_774677" data-name="Trazado 774677" d="M33.964,45.287l-1.671,1.685a4.826,4.826,0,0,0,3.3,1.4,4.353,4.353,0,0,0,3.13-1.4l-1.678-1.678a2.048,2.048,0,0,1-3.077-.007Z" transform="translate(4.851 7.28)"/>
        <circle id="Elipse_8719" data-name="Elipse 8719" cx="1.187" cy="1.187" r="1.187" transform="translate(58.161 47.479)"/>
        <circle id="Elipse_8720" data-name="Elipse 8720" cx="1.187" cy="1.187" r="1.187" transform="translate(65.283 47.479)"/>
        <path id="Trazado_774678" data-name="Trazado 774678" d="M52.964,45.287l-1.671,1.685a4.826,4.826,0,0,0,3.3,1.4,4.353,4.353,0,0,0,3.13-1.4l-1.678-1.678a2.047,2.047,0,0,1-3.077-.007Z" transform="translate(8.403 7.28)"/>
        <path id="Trazado_774679" data-name="Trazado 774679" d="M0,0H2.374V6.715H0Z" transform="translate(60.872 42.386) rotate(-45)"/>
        <path id="Trazado_774680" data-name="Trazado 774680" d="M71.131,63.1A6.679,6.679,0,0,0,67.47,61.54V59.863a6.824,6.824,0,0,0,4.687-3.886l.061-.184V54.2c1-.636,1.719-2.33,2.35-5.489.859-4.294.344-7.631-1.531-9.918a8.29,8.29,0,0,0-3.386-2.4A15.637,15.637,0,0,0,70.591,34l4-1.574V26.3l-4.1-1.443a15.7,15.7,0,0,0-1.131-2.683l1.925-4.014-4.332-4.332L62.77,15.648a15.692,15.692,0,0,0-2.627-1.078l-1.6-4.075H52.412l-1.417,4.03a15.681,15.681,0,0,0-2.753,1.109L44.426,13.8l-2.31,2.309c-.1-.209-.193-.424-.306-.628l2.412-5.028L39.045,5.279,33.807,7.562A19.471,19.471,0,0,0,30.253,6.1l-2-5.1H20.926L19.151,6.045a19.432,19.432,0,0,0-3.726,1.5L10.65,5.255,5.472,10.434,7.55,15.2a19.494,19.494,0,0,0-1.721,4.024L1,20.926v7.322L5.7,30.1a19.525,19.525,0,0,0,.786,2.242c-3.331,1.246-4.3,4.658-4.3,6.645v9.5A4.474,4.474,0,0,0,5.748,53.06v.166c0,.191.087,3.778,4.748,5.277V60.58C7.837,61.286,1,64.016,1,73.4v1.187H74.592V73.4c0-4.894-1.164-8.361-3.461-10.306ZM71.2,40.3c1.4,1.71,1.752,4.385,1.04,7.948-.008.039-.015.068-.024.106V45.613L68.309,41.7l-1.678,1.678L69.844,46.6v8.761c-.281.55-1.629,2.617-5.935,2.617-4.33,0-5.656-2.057-5.935-2.615V46.138c.013-.2.19-1.22,2.374-1.22V42.544c-3.756,0-4.748,2.329-4.748,3.561v2.247c-.008-.038-.015-.066-.024-.106-.712-3.562-.363-6.236,1.04-7.948,1.361-1.661,3.815-2.5,7.293-2.5s5.931.842,7.293,2.5Zm-5.846,24.38a3.509,3.509,0,0,1-.8,1.6h-1.3a3.516,3.516,0,0,1-.788-1.561A4.194,4.194,0,0,0,65.356,64.678Zm-2.634-2.516V60.3c.376.03.772.046,1.187.046s.813-.017,1.189-.046l0,1.855A1.924,1.924,0,0,1,62.722,62.162ZM46.1,29.487a9.5,9.5,0,1,1,16.87,5.967,18.534,18.534,0,0,0-2.069.19A8.126,8.126,0,1,0,55.6,37.625c.146,0,.288-.014.432-.021a7.729,7.729,0,0,0-1.252,1.189c-.037.045-.065.1-.1.144A9.508,9.508,0,0,1,46.1,29.487Zm7.367,11.668a9.764,9.764,0,0,0-.484,1.866,9.79,9.79,0,0,0-.766-2.161A11.532,11.532,0,0,0,53.472,41.155ZM47.292,46.1v9.252c-.281.55-1.629,2.617-5.935,2.617-4.33,0-5.656-2.057-5.935-2.615V46.138c.013-.2.19-1.22,2.374-1.22V42.544c-3.756,0-4.748,2.329-4.748,3.561v9.688l.061.183A6.818,6.818,0,0,0,37.8,59.862V61.7a15.705,15.705,0,0,0-5.935,2.516V46.1l-.009-.147a7.613,7.613,0,0,1,1.7-5.454c1.587-1.8,4.211-2.707,7.8-2.707s6.195.9,7.783,2.688a7.719,7.719,0,0,1,1.722,5.473l-.008,18.265A15.714,15.714,0,0,0,44.918,61.7V59.862a6.824,6.824,0,0,0,4.687-3.886l.061-.183V46.1ZM43.6,63.9c.066.007.392.049.874.146l-3.117,3.9L38.242,64.05c.482-.1.808-.141.874-.15l1.054-.12V60.3c.376.03.772.046,1.187.046s.811-.017,1.187-.046v3.483ZM28.278,38.529A14.19,14.19,0,0,0,36.7,32.462L40.364,33.9a15.616,15.616,0,0,0,.546,1.535c-4.072.081-7.151,1.249-9.134,3.494a8.868,8.868,0,0,0-1.516,2.424H28.995l-.694.7V38.983C28.3,38.827,28.284,38.681,28.278,38.529ZM17.73,27.113H13.122a11.564,11.564,0,0,1-.013-4.748h4.62c-.065.754-.112,1.535-.112,2.374C17.618,25.55,17.663,26.338,17.73,27.113Zm-2.487,2.374h2.794c.009.049.021.1.031.145a26.891,26.891,0,0,0-2.825-.145c-.47,0-.912.024-1.339.059-.008-.02-.018-.039-.026-.059Zm2.8-9.5H13.867a11.929,11.929,0,0,1,6.488-6.273,18.576,18.576,0,0,0-2.312,6.273Zm2.068,2.374h9.258c.07.747.119,1.526.119,2.374s-.046,1.629-.118,2.374H20.113c-.075-.772-.121-1.56-.121-2.374C19.991,23.892,20.04,23.112,20.11,22.365Zm.351-2.374a13.545,13.545,0,0,1,3.494-7.083c.26-.017.519-.039.783-.039s.523.023.785.039a13.545,13.545,0,0,1,3.494,7.083Zm11.3,7.122c.065-.75.1-1.539.1-2.374s-.046-1.62-.112-2.374h4.62a11.7,11.7,0,0,1-.007,4.748Zm3.853,2.374a11.853,11.853,0,0,1-6.5,6.287,18.686,18.686,0,0,0,2.323-6.287Zm-4.175-9.5a18.551,18.551,0,0,0-2.312-6.273,11.921,11.921,0,0,1,6.488,6.273ZM29,29.487a16.341,16.341,0,0,1-1.839,4.927c-1.231-2.134-3.447-3.61-6.567-4.356-.045-.188-.087-.379-.127-.571Zm26.6,5.764a5.764,5.764,0,1,1,5.764-5.764A5.771,5.771,0,0,1,55.6,35.251ZM42.426,26.769l.16-.607a13.288,13.288,0,0,1,1.506-3.519l.322-.527-1.5-3.443,2-2,3.41,1.634L48.866,18A13.3,13.3,0,0,1,52.2,16.656l.617-.155,1.276-3.631h2.829l1.443,3.672.579.154A13.238,13.238,0,0,1,62.12,18l.518.3,3.779-1.645,2,2-1.739,3.626.322.545a13.294,13.294,0,0,1,1.378,3.265l.164.6,3.676,1.294v2.829L68.6,32.234l-.147.593a13.29,13.29,0,0,1-1.12,2.9c-.482-.09-.984-.163-1.51-.211a11.874,11.874,0,1,0-20.193.377,15.966,15.966,0,0,0-2.087-.349,13.163,13.163,0,0,1-1.024-2.807l-.145-.6-3.386-1.331V27.981Zm-39.052-.14V22.606l4.416-1.554.161-.607A17.147,17.147,0,0,1,9.894,15.9l.322-.527L8.3,10.968l2.844-2.844,4.372,2.1.541-.31a17.127,17.127,0,0,1,4.3-1.732l.617-.157,1.636-4.649H26.63l1.849,4.7.579.154a17.107,17.107,0,0,1,4.1,1.681l.518.3L38.512,8.1l2.844,2.844L39.13,15.588l.322.545a17.356,17.356,0,0,1,.895,1.751l-.253.253,1.658,3.808a15.688,15.688,0,0,0-1.283,3l-1.519.534c.013-.245.033-.488.033-.736a14.244,14.244,0,1,0-27.462,5.27,5.516,5.516,0,0,0-2.683,1.761,17.033,17.033,0,0,1-.984-2.837l-.145-.6ZM5.748,50.58a2.449,2.449,0,0,1,0-4.2Zm2.374,2.647v-9.5A2.234,2.234,0,0,1,10.5,41.357V38.983a4.614,4.614,0,0,0-4.748,4.748V43.9a5.157,5.157,0,0,0-1.187.439V38.983c0-.171.046-3.727,3.274-4.567a6.656,6.656,0,0,0,.372,2.635l2.2-.882a3.4,3.4,0,0,1,.172-2.792c.672-.992,2.284-1.516,4.661-1.516,4.874,0,10.683,1.236,10.683,7.122v5.353a5.1,5.1,0,0,0-1.187-.439V42.544H22.365V53.205c0,.146-.214,3.582-7.122,3.582S8.127,53.351,8.122,53.226Zm17.8-4.748a2.1,2.1,0,0,1-1.187,2.1v-4.2A2.107,2.107,0,0,1,25.926,48.479ZM10.677,72.218H9.309V68.657H6.935v3.561H3.419a9.854,9.854,0,0,1,7.391-9.279l.849,3.392Zm2.406,0,.792-4.748h2.737l.792,4.748Zm.319-8.7a7.888,7.888,0,0,0,1.98.264,7.237,7.237,0,0,0,1.69-.216L16.69,65.1H13.8Zm-.533-2.69V59.007a18.347,18.347,0,0,0,4.749,0v1.849A5.377,5.377,0,0,1,12.87,60.831ZM23.552,72.218V68.657H21.178v3.561H19.81l-.982-5.886.849-3.392a9.856,9.856,0,0,1,7.391,9.279Zm5.935-26.05V66.431a10.6,10.6,0,0,0-.982,1.458,12.456,12.456,0,0,0-8.514-7.308V58.5c4.661-1.5,4.748-5.086,4.748-5.277v-.166A4.475,4.475,0,0,0,28.3,48.48V45.41l1.227-1.227A9.992,9.992,0,0,0,29.487,46.168Zm20.178,26.05V69.844H47.292v2.374H35.422V69.844H33.048v2.374H29.554c.5-4.319,3.676-6.421,6.237-7.43l5.566,6.957,5.572-6.964c2.561,1,5.738,3.1,6.232,7.439H49.666Zm3.561-7.028V48.571c.009.047.013.093.024.141.631,3.16,1.351,4.852,2.35,5.489v1.593l.061.183a6.818,6.818,0,0,0,4.687,3.886v1.6a10.026,10.026,0,0,0-2.871.423,7.394,7.394,0,0,0-4.251,3.3Zm6.318,7.028H55.537a10.875,10.875,0,0,0-1.04-3.807,5.485,5.485,0,0,1,5.57-4.589,5.392,5.392,0,0,0,1.277,3.891Zm2.557,0,1.424-3.561h.767l1.424,3.561Zm6.172,0-1.8-4.5a5.416,5.416,0,0,0,1.29-3.722,4.281,4.281,0,0,1,1.869.95c1.523,1.316,2.4,3.818,2.559,7.277H68.274Z" transform="translate(-1 -1)"/>
      </g>
    </g>
  </g>
</svg>
