<svg xmlns="http://www.w3.org/2000/svg" width="89" height="89" viewBox="0 0 89 89">
  <g id="Grupo_1028861" data-name="Grupo 1028861" transform="translate(-828 -852)">
    <rect id="Rectángulo_361585" data-name="Rectángulo 361585" width="89" height="89" transform="translate(828 852)" fill="none"/>
    <g id="_024-meeting" data-name="024-meeting" transform="translate(830 863)">
      <g id="Grupo_1028858" data-name="Grupo 1028858" transform="translate(1.259 1.259)">
        <g id="Grupo_1028822" data-name="Grupo 1028822" transform="translate(57.703 11.046)">
          <g id="Grupo_1028821" data-name="Grupo 1028821">
            <circle id="Elipse_8756" data-name="Elipse 8756" cx="11.922" cy="11.922" r="11.922" transform="translate(0 0)" fill="#f8f3f1"/>
            <path id="Trazado_775681" data-name="Trazado 775681" d="M410.258,140.2A11.927,11.927,0,0,1,393.5,151.1c.18.008.359.013.54.013a10.912,10.912,0,0,0,0-21.824c-.18,0-.359.005-.537.012a11.928,11.928,0,0,1,16.759,10.9Z" transform="translate(-386.414 -128.28)" fill="#e5e1e5"/>
          </g>
        </g>
        <g id="Grupo_1028824" data-name="Grupo 1028824" transform="translate(4.216)">
          <g id="Grupo_1028823" data-name="Grupo 1028823">
            <circle id="Elipse_8757" data-name="Elipse 8757" cx="11.922" cy="11.922" r="11.922" transform="translate(0 0)" fill="#27d1b3"/>
            <path id="Trazado_775682" data-name="Trazado 775682" d="M91.578,74.387a11.927,11.927,0,0,1-16.762,10.9c.18.008.359.013.54.013a10.912,10.912,0,0,0,0-21.824c-.18,0-.359.005-.537.012a11.928,11.928,0,0,1,16.759,10.9Z" transform="translate(-67.733 -62.464)" fill="#20b69f"/>
          </g>
        </g>
        <g id="Grupo_1028856" data-name="Grupo 1028856" transform="translate(0 11.922)">
          <path id="Trazado_775683" data-name="Trazado 775683" d="M233.994,403.469h7.387V411.2h-7.387Z" transform="translate(-195.979 -358.157)" fill="#554e55"/>
          <g id="Grupo_1028855" data-name="Grupo 1028855">
            <g id="Grupo_1028839" data-name="Grupo 1028839" transform="translate(18.317)">
              <g id="Grupo_1028831" data-name="Grupo 1028831" transform="translate(23.391)">
                <g id="Grupo_1028830" data-name="Grupo 1028830">
                  <g id="Grupo_1028829" data-name="Grupo 1028829">
                    <path id="Trazado_775684" data-name="Trazado 775684" d="M279.391,240.911H256V230.5a8.122,8.122,0,0,1,8.122-8.122h7.146a8.122,8.122,0,0,1,8.122,8.122Z" transform="translate(-256 -207.46)" fill="#bcea73"/>
                    <g id="Grupo_1028826" data-name="Grupo 1028826" transform="translate(8.046 14.918)">
                      <g id="Grupo_1028825" data-name="Grupo 1028825">
                        <path id="Trazado_775685" data-name="Trazado 775685" d="M310.946,233.275l-2.793,2.455a.856.856,0,0,1-1.131,0l-2.793-2.455a.856.856,0,0,1-.264-.856l2.573-10.041h2.1l2.573,10.041A.857.857,0,0,1,310.946,233.275Z" transform="translate(-303.938 -222.378)" fill="#107295"/>
                      </g>
                    </g>
                    <path id="Trazado_775686" data-name="Trazado 775686" d="M334.134,230.5v10.412h-4.228V230.5a8.124,8.124,0,0,0-8.122-8.122h4.228A8.124,8.124,0,0,1,334.134,230.5Z" transform="translate(-310.743 -207.46)" fill="#99d53b"/>
                    <g id="Grupo_1028828" data-name="Grupo 1028828" transform="translate(5.074)">
                      <g id="Grupo_1028827" data-name="Grupo 1028827">
                        <path id="Trazado_775687" data-name="Trazado 775687" d="M292.851,149.132a6.622,6.622,0,0,1-6.622-6.622v-2.39a6.622,6.622,0,1,1,13.243,0v2.39A6.622,6.622,0,0,1,292.851,149.132Z" transform="translate(-286.229 -133.498)" fill="#ffcec0"/>
                        <path id="Trazado_775688" data-name="Trazado 775688" d="M321.914,140.126v2.39A6.626,6.626,0,0,1,313.2,148.8a6.625,6.625,0,0,0,4.524-6.283v-2.39a6.628,6.628,0,0,0-4.524-6.283,6.623,6.623,0,0,1,8.717,6.283Z" transform="translate(-308.671 -133.503)" fill="#fdb0a0"/>
                      </g>
                    </g>
                  </g>
                </g>
              </g>
              <g id="Grupo_1028838" data-name="Grupo 1028838">
                <g id="Grupo_1028837" data-name="Grupo 1028837">
                  <g id="Grupo_1028836" data-name="Grupo 1028836">
                    <path id="Trazado_775689" data-name="Trazado 775689" d="M140.026,240.911H116.635V230.5a8.122,8.122,0,0,1,8.122-8.122H131.9a8.122,8.122,0,0,1,8.122,8.122Z" transform="translate(-116.635 -207.46)" fill="#f8f3f1"/>
                    <g id="Grupo_1028833" data-name="Grupo 1028833" transform="translate(8.046 14.918)">
                      <g id="Grupo_1028832" data-name="Grupo 1028832">
                        <path id="Trazado_775690" data-name="Trazado 775690" d="M164.863,233.275l2.793,2.455a.856.856,0,0,0,1.131,0l2.793-2.455a.856.856,0,0,0,.264-.856l-2.573-10.041h-2.1L164.6,232.419A.857.857,0,0,0,164.863,233.275Z" transform="translate(-164.573 -222.378)" fill="#fb4a59"/>
                      </g>
                    </g>
                    <path id="Trazado_775691" data-name="Trazado 775691" d="M194.769,230.5v10.412h-4.228V230.5a8.124,8.124,0,0,0-8.122-8.122h4.228A8.124,8.124,0,0,1,194.769,230.5Z" transform="translate(-171.378 -207.46)" fill="#e5e1e5"/>
                    <g id="Grupo_1028835" data-name="Grupo 1028835" transform="translate(5.074)">
                      <g id="Grupo_1028834" data-name="Grupo 1028834">
                        <path id="Trazado_775692" data-name="Trazado 775692" d="M153.487,149.132a6.622,6.622,0,0,1-6.622-6.622v-2.39a6.622,6.622,0,0,1,13.243,0v2.39A6.622,6.622,0,0,1,153.487,149.132Z" transform="translate(-146.865 -133.498)" fill="#ffcec0"/>
                        <path id="Trazado_775693" data-name="Trazado 775693" d="M182.549,140.126v2.39a6.626,6.626,0,0,1-8.717,6.283,6.625,6.625,0,0,0,4.524-6.283v-2.39a6.628,6.628,0,0,0-4.524-6.283,6.623,6.623,0,0,1,8.717,6.283Z" transform="translate(-169.306 -133.503)" fill="#fdb0a0"/>
                      </g>
                    </g>
                  </g>
                </g>
              </g>
            </g>
            <ellipse id="Elipse_8758" data-name="Elipse 8758" cx="31.165" cy="12.179" rx="31.165" ry="12.179" transform="translate(10.543 24.243)" fill="#8b8088"/>
            <path id="Trazado_775694" data-name="Trazado 775694" d="M213.635,290.115c0,5.819-10.438,10.683-24.394,11.891,9.735-2.059,16.348-6.087,16.348-10.717,0-6.727-13.952-12.178-31.164-12.178-2.33,0-4.6.1-6.784.29a72.3,72.3,0,0,1,14.83-1.465C199.682,277.937,213.635,283.39,213.635,290.115Z" transform="translate(-140.762 -253.695)" fill="#7a7179"/>
            <g id="Grupo_1028854" data-name="Grupo 1028854" transform="translate(0 19.592)">
              <g id="Grupo_1028846" data-name="Grupo 1028846">
                <g id="Grupo_1028845" data-name="Grupo 1028845">
                  <g id="Grupo_1028844" data-name="Grupo 1028844">
                    <path id="Trazado_775695" data-name="Trazado 775695" d="M30.891,357.639H7.5V347.227a8.122,8.122,0,0,1,8.122-8.122h7.146a8.122,8.122,0,0,1,8.122,8.122Z" transform="translate(-7.5 -324.188)" fill="#fb4a59"/>
                    <g id="Grupo_1028841" data-name="Grupo 1028841" transform="translate(8.046 14.917)">
                      <g id="Grupo_1028840" data-name="Grupo 1028840">
                        <path id="Trazado_775696" data-name="Trazado 775696" d="M62.446,350l-2.793,2.455a.856.856,0,0,1-1.131,0L55.729,350a.856.856,0,0,1-.264-.856l2.573-10.041h2.1l2.573,10.041A.857.857,0,0,1,62.446,350Z" transform="translate(-55.438 -339.106)" fill="#f8f3f1"/>
                      </g>
                    </g>
                    <path id="Trazado_775697" data-name="Trazado 775697" d="M85.634,347.228V357.64H81.406V347.228a8.124,8.124,0,0,0-8.122-8.122h4.228A8.124,8.124,0,0,1,85.634,347.228Z" transform="translate(-62.243 -324.189)" fill="#f82f40"/>
                    <g id="Grupo_1028843" data-name="Grupo 1028843" transform="translate(5.074)">
                      <g id="Grupo_1028842" data-name="Grupo 1028842">
                        <path id="Trazado_775698" data-name="Trazado 775698" d="M44.351,265.861a6.622,6.622,0,0,1-6.622-6.622v-2.39a6.622,6.622,0,1,1,13.244,0v2.39A6.622,6.622,0,0,1,44.351,265.861Z" transform="translate(-37.729 -250.227)" fill="#ffcec0"/>
                        <path id="Trazado_775699" data-name="Trazado 775699" d="M73.414,256.854v2.39a6.626,6.626,0,0,1-8.717,6.283,6.625,6.625,0,0,0,4.524-6.283v-2.39a6.628,6.628,0,0,0-4.524-6.283,6.623,6.623,0,0,1,8.717,6.283Z" transform="translate(-60.171 -250.231)" fill="#fdb0a0"/>
                      </g>
                    </g>
                  </g>
                </g>
              </g>
              <g id="Grupo_1028853" data-name="Grupo 1028853" transform="translate(60.025)">
                <g id="Grupo_1028852" data-name="Grupo 1028852">
                  <g id="Grupo_1028851" data-name="Grupo 1028851">
                    <path id="Trazado_775700" data-name="Trazado 775700" d="M388.526,357.639H365.135V347.227a8.122,8.122,0,0,1,8.122-8.122H380.4a8.122,8.122,0,0,1,8.122,8.122Z" transform="translate(-365.135 -324.188)" fill="#fcb44d"/>
                    <g id="Grupo_1028848" data-name="Grupo 1028848" transform="translate(8.046 14.917)">
                      <g id="Grupo_1028847" data-name="Grupo 1028847">
                        <path id="Trazado_775701" data-name="Trazado 775701" d="M413.363,350l2.793,2.455a.856.856,0,0,0,1.131,0L420.081,350a.856.856,0,0,0,.264-.856l-2.573-10.041h-2.1L413.1,349.147A.857.857,0,0,0,413.363,350Z" transform="translate(-413.073 -339.106)" fill="#68dbf9"/>
                      </g>
                    </g>
                    <path id="Trazado_775702" data-name="Trazado 775702" d="M443.269,347.228V357.64h-4.228V347.228a8.124,8.124,0,0,0-8.122-8.122h4.228A8.124,8.124,0,0,1,443.269,347.228Z" transform="translate(-419.878 -324.189)" fill="#fb9927"/>
                    <g id="Grupo_1028850" data-name="Grupo 1028850" transform="translate(5.074)">
                      <g id="Grupo_1028849" data-name="Grupo 1028849">
                        <path id="Trazado_775703" data-name="Trazado 775703" d="M401.987,265.861a6.622,6.622,0,0,1-6.622-6.622v-2.39a6.622,6.622,0,1,1,13.243,0v2.39A6.622,6.622,0,0,1,401.987,265.861Z" transform="translate(-395.365 -250.227)" fill="#ffcec0"/>
                        <path id="Trazado_775704" data-name="Trazado 775704" d="M431.049,256.854v2.39a6.626,6.626,0,0,1-8.717,6.283,6.625,6.625,0,0,0,4.524-6.283v-2.39a6.628,6.628,0,0,0-4.524-6.283,6.623,6.623,0,0,1,8.717,6.283Z" transform="translate(-417.806 -250.231)" fill="#fdb0a0"/>
                      </g>
                    </g>
                  </g>
                </g>
              </g>
            </g>
          </g>
        </g>
        <g id="Grupo_1028857" data-name="Grupo 1028857" transform="translate(65.099 17.437)">
          <ellipse id="Elipse_8759" data-name="Elipse 8759" cx="4.907" cy="4.907" rx="4.907" ry="4.907" fill="#27d1b3"/>
        </g>
      </g>
      <g id="Grupo_1028859" data-name="Grupo 1028859" transform="translate(0)">
        <path id="Trazado_775705" data-name="Trazado 775705" d="M65.018,102.054h4.358a1.259,1.259,0,1,0,0-2.518H65.018a1.259,1.259,0,0,0,0,2.518Z" transform="translate(-53.058 -92.055)"/>
        <path id="Trazado_775706" data-name="Trazado 775706" d="M65.018,128.517h7.715a1.259,1.259,0,1,0,0-2.518H65.018a1.259,1.259,0,1,0,0,2.518Z" transform="translate(-53.058 -114.077)"/>
        <path id="Trazado_775707" data-name="Trazado 775707" d="M65.018,154.98h7.715a1.259,1.259,0,1,0,0-2.518H65.018a1.259,1.259,0,1,0,0,2.518Z" transform="translate(-53.058 -136.098)"/>
        <path id="Trazado_775708" data-name="Trazado 775708" d="M79.071,101.742A7.844,7.844,0,0,0,80.86,96.75v-2.39a7.84,7.84,0,0,0-1.713-4.9,13.183,13.183,0,0,0-4.912-23.02,1.259,1.259,0,0,0-.638,2.435,10.666,10.666,0,0,1,3.659,18.867,7.859,7.859,0,0,0-9.927,1.131,9.415,9.415,0,0,0-6.573-6.724,7.844,7.844,0,0,0,1.788-4.993v-2.39a7.862,7.862,0,0,0-.236-1.911,10.663,10.663,0,0,1,5.839-3.971,1.259,1.259,0,1,0-.645-2.434,13.164,13.164,0,0,0-6.349,3.854,7.877,7.877,0,0,0-14.371,4.462v2.39a7.844,7.844,0,0,0,1.788,4.993,9.419,9.419,0,0,0-5.6,4.35,9.419,9.419,0,0,0-5.6-4.35,7.844,7.844,0,0,0,1.788-4.993v-2.39a7.889,7.889,0,0,0-7.881-7.88c-.254,0-.5.013-.753.037A13.18,13.18,0,0,0,4.67,64.711a1.259,1.259,0,1,0,2.431.655,10.664,10.664,0,0,1,20.943,2.215,7.89,7.89,0,0,0-4.654,7.187v2.2A10.665,10.665,0,0,1,7.07,70.815a1.259,1.259,0,1,0-2.438.628A13.186,13.186,0,0,0,23.8,79.667a7.874,7.874,0,0,0,1.376,2.484,9.415,9.415,0,0,0-6.573,6.724A7.875,7.875,0,0,0,5.074,94.359v2.39a7.844,7.844,0,0,0,1.788,4.993A9.4,9.4,0,0,0,0,110.777v10.412a1.259,1.259,0,1,0,2.518,0V110.777a6.871,6.871,0,0,1,6.864-6.864h.3c.179.082.361.159.547.228l-2.112,8.242a2.106,2.106,0,0,0,.653,2.114l2.793,2.455a2.119,2.119,0,0,0,2.793,0l2.793-2.455a2.106,2.106,0,0,0,.652-2.114l-2.112-8.242c.186-.069.368-.146.547-.228h.3a6.871,6.871,0,0,1,6.864,6.864v10.412a1.259,1.259,0,1,0,2.518,0v-5.131a67.359,67.359,0,0,0,12.106,1.8v3.335a1.259,1.259,0,1,0,2.518,0v-3.22q1.21.036,2.435.036t2.435-.037v3.222a1.259,1.259,0,0,0,2.518,0v-3.336q1.136-.07,2.253-.17a1.259,1.259,0,1,0-.228-2.507c-2.273.207-4.621.312-6.978.312a68.136,68.136,0,0,1-17.058-2.029v-2.681a9.4,9.4,0,0,0-6.862-9.035,7.843,7.843,0,0,0,1.762-4.38C26.532,95,34.571,93.648,42.967,93.648S59.4,95,65.125,97.361a7.843,7.843,0,0,0,1.762,4.381,9.4,9.4,0,0,0-6.862,9.035v2.682c-1.322.348-2.717.656-4.159.918a1.259,1.259,0,1,0,.45,2.477c1.275-.232,2.516-.5,3.709-.8v5.131a1.259,1.259,0,1,0,2.518,0V110.778a6.871,6.871,0,0,1,6.864-6.864h.3c.179.082.361.159.547.228l-2.112,8.242a2.106,2.106,0,0,0,.653,2.114l2.793,2.455a2.12,2.12,0,0,0,2.793,0L77.17,114.5a2.105,2.105,0,0,0,.653-2.114l-2.112-8.242c.186-.069.368-.146.547-.228h.3a6.871,6.871,0,0,1,6.864,6.864v10.412a1.259,1.259,0,1,0,2.518,0V110.778a9.4,9.4,0,0,0-6.863-9.035ZM72.979,89a5.369,5.369,0,0,1,5.363,5.363v2.39a5.363,5.363,0,0,1-10.726,0v-2.39A5.369,5.369,0,0,1,72.979,89ZM65.1,91.186v3.46a46.089,46.089,0,0,0-5.56-1.684c-.01-.057-.02-.113-.034-.169L57.393,84.55c.186-.069.368-.146.547-.228h.3A6.871,6.871,0,0,1,65.1,91.186ZM54.662,85.039c.086,0,.17,0,.255-.007L56.8,92.377c-1.33-.252-2.7-.468-4.108-.646l1.716-6.7C54.492,85.035,54.577,85.039,54.662,85.039ZM49.3,74.768a5.363,5.363,0,0,1,10.726,0v2.39a5.363,5.363,0,0,1-10.726,0Zm1.79,9.554h.3c.179.082.361.159.547.228l-1.77,6.906c-1.939-.178-3.925-.284-5.936-.316A6.871,6.871,0,0,1,51.089,84.322Zm-9.382,6.819c-2.01.032-4,.138-5.936.316L34,84.55c.186-.069.368-.146.547-.228h.3A6.871,6.871,0,0,1,41.707,91.141Zm-10.436-6.1c.086,0,.17,0,.255-.007l1.716,6.7c-1.406.178-2.778.394-4.109.646l1.882-7.346c.085,0,.17.007.255.007ZM25.908,74.768a5.363,5.363,0,0,1,10.726,0v2.39a5.363,5.363,0,0,1-10.726,0ZM20.835,91.186A6.871,6.871,0,0,1,27.7,84.322h.3c.179.082.361.159.547.228l-2.112,8.242c-.014.056-.025.113-.034.17a46.072,46.072,0,0,0-5.56,1.683v-3.46ZM7.591,94.359a5.363,5.363,0,0,1,10.726,0v2.39a5.363,5.363,0,0,1-10.726,0Zm7.7,18.41-2.342,2.059-2.342-2.059,2.087-8.146c.085,0,.17.007.255.007s.17,0,.255-.007Zm60.025,0-2.342,2.059-2.342-2.059,2.087-8.146c.085,0,.17.007.255.007s.17,0,.255-.007Z" transform="translate(0 -54.965)"/>
        <path id="Trazado_775709" data-name="Trazado 775709" d="M399.829,160.539a1.259,1.259,0,0,0-1.673-.1,6.167,6.167,0,1,0,1.5,2.051l.176-.176a1.259,1.259,0,0,0,0-1.78Zm-2.149,4.484a3.653,3.653,0,1,1-1.314-2.8l-1.787,1.787-.5-.5a1.259,1.259,0,0,0-1.78,1.78l1.39,1.39a1.259,1.259,0,0,0,1.78,0l2.174-2.173A3.634,3.634,0,0,1,397.68,165.023Z" transform="translate(-322.767 -141.42)"/>
      </g>
    </g>
  </g>
</svg>
