<svg xmlns="http://www.w3.org/2000/svg" width="89" height="89" viewBox="0 0 89 89">
  <g id="Grupo_1028860" data-name="Grupo 1028860" transform="translate(-1110 -852)">
    <rect id="Rectángulo_361584" data-name="Rectángulo 361584" width="89" height="89" transform="translate(1110 852)" fill="none"/>
    <g id="_048-organization" data-name="048-organization" transform="translate(1115 854)">
      <g id="Grupo_1028820" data-name="Grupo 1028820">
        <g id="Grupo_1028816" data-name="Grupo 1028816">
          <g id="Grupo_1028795" data-name="Grupo 1028795" transform="translate(32.544 1.259)">
            <path id="Trazado_775637" data-name="Trazado 775637" d="M214.7,97.9H193.9V86.326a7.222,7.222,0,0,1,7.222-7.222h6.354a7.222,7.222,0,0,1,7.222,7.222Z" transform="translate(-193.901 -67.086)" fill="#0d5f7f"/>
            <g id="Grupo_1028793" data-name="Grupo 1028793" transform="translate(7.456 12.018)">
              <g id="Grupo_1028792" data-name="Grupo 1028792">
                <path id="Trazado_775638" data-name="Trazado 775638" d="M244.02,87.963l-2.271,2a.7.7,0,0,1-.919,0l-2.271-2a.7.7,0,0,1-.215-.7l2.091-8.163h1.707l2.091,8.163A.7.7,0,0,1,244.02,87.963Z" transform="translate(-238.323 -79.104)" fill="#f8f3f1"/>
              </g>
            </g>
            <path id="Trazado_775639" data-name="Trazado 775639" d="M263.369,86.326V97.9H259.61V86.326a7.223,7.223,0,0,0-7.221-7.221h3.759A7.223,7.223,0,0,1,263.369,86.326Z" transform="translate(-242.572 -67.087)" fill="#094c66"/>
            <g id="Grupo_1028794" data-name="Grupo 1028794" transform="translate(4.511)">
              <path id="Trazado_775640" data-name="Trazado 775640" d="M226.666,21.4a5.887,5.887,0,0,1-5.887-5.887V13.387a5.887,5.887,0,1,1,11.775,0v2.125A5.887,5.887,0,0,1,226.666,21.4Z" transform="translate(-220.779 -7.5)" fill="#ffcec0"/>
              <path id="Trazado_775641" data-name="Trazado 775641" d="M252.1,13.391v2.126a5.888,5.888,0,0,1-7.833,5.556,5.889,5.889,0,0,0,3.942-5.556V13.391a5.887,5.887,0,0,0-3.942-5.556,5.887,5.887,0,0,1,7.833,5.556Z" transform="translate(-240.321 -7.504)" fill="#fdb0a0"/>
            </g>
          </g>
          <g id="Grupo_1028797" data-name="Grupo 1028797" transform="translate(24.49 21.982)">
            <path id="Trazado_775642" data-name="Trazado 775642" d="M162.4,153.708h31.418v19.744H162.4Z" transform="translate(-159.635 -149.892)" fill="#fcc16d"/>
            <path id="Trazado_775643" data-name="Trazado 775643" d="M162.4,153.708h31.418v4.385H162.4Z" transform="translate(-159.635 -149.892)" fill="#fca62f"/>
            <path id="Trazado_775644" data-name="Trazado 775644" d="M321.811,153.708h4.664v19.744h-4.664Z" transform="translate(-292.288 -149.892)" fill="#fca62f"/>
            <path id="Trazado_775645" data-name="Trazado 775645" d="M145.911,131.793v3.138a.816.816,0,0,0,.816.816h35.323a.816.816,0,0,0,.816-.816v-3.138a.816.816,0,0,0-.816-.816H146.727a.816.816,0,0,0-.816.816Z" transform="translate(-145.911 -130.976)" fill="#fee7c9"/>
            <path id="Trazado_775646" data-name="Trazado 775646" d="M340,131.789v3.139a.816.816,0,0,1-.816.816h-4.445a.816.816,0,0,0,.816-.816v-3.139a.816.816,0,0,0-.816-.816h4.445a.816.816,0,0,1,.816.816Z" transform="translate(-303.05 -130.973)" fill="#ffd496"/>
            <g id="Grupo_1028796" data-name="Grupo 1028796" transform="translate(10.216 10.145)">
              <path id="Trazado_775647" data-name="Trazado 775647" d="M206.776,191.421H223.3v13.415H206.776Z" transform="translate(-206.776 -191.421)" fill="#fb9927"/>
              <path id="Trazado_775648" data-name="Trazado 775648" d="M274.834,191.42h5.1v13.415h-5.1Z" transform="translate(-263.411 -191.42)" fill="#f98824"/>
            </g>
          </g>
          <g id="Grupo_1028815" data-name="Grupo 1028815">
            <g id="Grupo_1028810" data-name="Grupo 1028810" transform="translate(11.319 36.9)">
              <g id="Grupo_1028799" data-name="Grupo 1028799">
                <path id="Trazado_775649" data-name="Trazado 775649" d="M77.99,264.077H67.44v-4.238a3.663,3.663,0,0,1,3.663-3.663h3.223a3.663,3.663,0,0,1,3.663,3.663Z" transform="translate(-67.44 -250.079)" fill="#fcc16d"/>
                <path id="Trazado_775650" data-name="Trazado 775650" d="M98.459,259.839v4.238H95.7v-4.238a3.664,3.664,0,0,0-3.663-3.663H94.8A3.664,3.664,0,0,1,98.459,259.839Z" transform="translate(-87.909 -250.079)" fill="#fca62f"/>
                <g id="Grupo_1028798" data-name="Grupo 1028798" transform="translate(2.288)">
                  <path id="Trazado_775651" data-name="Trazado 775651" d="M84.061,226.906a2.986,2.986,0,0,1-2.986-2.986v-1.078a2.986,2.986,0,0,1,5.973,0v1.078A2.987,2.987,0,0,1,84.061,226.906Z" transform="translate(-81.075 -219.855)" fill="#c86f5c"/>
                  <path id="Trazado_775652" data-name="Trazado 775652" d="M95.571,222.839v1.078a2.988,2.988,0,0,1-4.254,2.705,2.984,2.984,0,0,0,1.72-2.705v-1.078a2.985,2.985,0,0,0-1.72-2.7,2.988,2.988,0,0,1,4.254,2.7Z" transform="translate(-89.598 -219.852)" fill="#ba5d4f"/>
                </g>
              </g>
              <g id="Grupo_1028801" data-name="Grupo 1028801" transform="translate(10.55)">
                <path id="Trazado_775653" data-name="Trazado 775653" d="M140.844,264.077H130.295v-4.238a3.663,3.663,0,0,1,3.663-3.663h3.223a3.663,3.663,0,0,1,3.663,3.663v4.238Z" transform="translate(-130.295 -250.079)" fill="#bcea73"/>
                <path id="Trazado_775654" data-name="Trazado 775654" d="M161.313,259.839v4.238h-2.758v-4.238a3.664,3.664,0,0,0-3.663-3.663h2.758A3.664,3.664,0,0,1,161.313,259.839Z" transform="translate(-150.764 -250.079)" fill="#a3e440"/>
                <g id="Grupo_1028800" data-name="Grupo 1028800" transform="translate(2.288)">
                  <path id="Trazado_775655" data-name="Trazado 775655" d="M146.915,226.906a2.986,2.986,0,0,1-2.986-2.986v-1.078a2.986,2.986,0,0,1,5.973,0v1.078A2.986,2.986,0,0,1,146.915,226.906Z" transform="translate(-143.929 -219.855)" fill="#ffcec0"/>
                  <path id="Trazado_775656" data-name="Trazado 775656" d="M158.426,222.839v1.078a2.988,2.988,0,0,1-4.254,2.705,2.984,2.984,0,0,0,1.72-2.705v-1.078a2.985,2.985,0,0,0-1.72-2.7,2.988,2.988,0,0,1,4.254,2.7Z" transform="translate(-152.453 -219.852)" fill="#fdb0a0"/>
                </g>
              </g>
              <g id="Grupo_1028803" data-name="Grupo 1028803" transform="translate(21.099)">
                <path id="Trazado_775657" data-name="Trazado 775657" d="M203.7,264.077H193.149v-4.238a3.663,3.663,0,0,1,3.663-3.663h3.223a3.663,3.663,0,0,1,3.663,3.663v4.238Z" transform="translate(-193.149 -250.079)" fill="#27d1b3"/>
                <path id="Trazado_775658" data-name="Trazado 775658" d="M224.167,259.839v4.238h-2.758v-4.238a3.664,3.664,0,0,0-3.663-3.663H220.5A3.664,3.664,0,0,1,224.167,259.839Z" transform="translate(-213.618 -250.079)" fill="#20b69f"/>
                <g id="Grupo_1028802" data-name="Grupo 1028802" transform="translate(2.288)">
                  <path id="Trazado_775659" data-name="Trazado 775659" d="M209.769,226.906a2.986,2.986,0,0,1-2.986-2.986v-1.078a2.986,2.986,0,1,1,5.973,0v1.078A2.986,2.986,0,0,1,209.769,226.906Z" transform="translate(-206.783 -219.855)" fill="#ffcec0"/>
                  <path id="Trazado_775660" data-name="Trazado 775660" d="M221.28,222.839v1.078a2.988,2.988,0,0,1-4.254,2.705,2.984,2.984,0,0,0,1.72-2.705v-1.078a2.985,2.985,0,0,0-1.72-2.7,2.988,2.988,0,0,1,4.254,2.7Z" transform="translate(-215.307 -219.852)" fill="#fdb0a0"/>
                </g>
              </g>
              <g id="Grupo_1028805" data-name="Grupo 1028805" transform="translate(31.648)">
                <path id="Trazado_775661" data-name="Trazado 775661" d="M266.552,264.077H256v-4.238a3.663,3.663,0,0,1,3.663-3.663h3.223a3.663,3.663,0,0,1,3.663,3.663v4.238Z" transform="translate(-256.003 -250.079)" fill="#fb4a59"/>
                <path id="Trazado_775662" data-name="Trazado 775662" d="M287.021,259.839v4.238h-2.758v-4.238a3.664,3.664,0,0,0-3.663-3.663h2.758A3.664,3.664,0,0,1,287.021,259.839Z" transform="translate(-276.472 -250.079)" fill="#f82f40"/>
                <g id="Grupo_1028804" data-name="Grupo 1028804" transform="translate(2.288)">
                  <path id="Trazado_775663" data-name="Trazado 775663" d="M272.623,226.906a2.986,2.986,0,0,1-2.986-2.986v-1.078a2.986,2.986,0,1,1,5.973,0v1.078A2.986,2.986,0,0,1,272.623,226.906Z" transform="translate(-269.637 -219.855)" fill="#ffcec0"/>
                  <path id="Trazado_775664" data-name="Trazado 775664" d="M284.134,222.839v1.078a2.988,2.988,0,0,1-4.254,2.705,2.984,2.984,0,0,0,1.72-2.705v-1.078a2.985,2.985,0,0,0-1.72-2.7,2.988,2.988,0,0,1,4.254,2.7Z" transform="translate(-278.161 -219.852)" fill="#fdb0a0"/>
                </g>
              </g>
              <g id="Grupo_1028807" data-name="Grupo 1028807" transform="translate(42.198)">
                <path id="Trazado_775665" data-name="Trazado 775665" d="M329.406,264.077H318.857v-4.238a3.663,3.663,0,0,1,3.663-3.663h3.223a3.663,3.663,0,0,1,3.663,3.663v4.238Z" transform="translate(-318.857 -250.079)" fill="#8b8088"/>
                <path id="Trazado_775666" data-name="Trazado 775666" d="M349.875,259.839v4.238h-2.758v-4.238a3.664,3.664,0,0,0-3.663-3.663h2.758A3.664,3.664,0,0,1,349.875,259.839Z" transform="translate(-339.326 -250.079)" fill="#7a7179"/>
                <g id="Grupo_1028806" data-name="Grupo 1028806" transform="translate(2.288)">
                  <path id="Trazado_775667" data-name="Trazado 775667" d="M335.477,226.906a2.986,2.986,0,0,1-2.986-2.986v-1.078a2.986,2.986,0,0,1,5.973,0v1.078A2.986,2.986,0,0,1,335.477,226.906Z" transform="translate(-332.491 -219.855)" fill="#c86f5c"/>
                  <path id="Trazado_775668" data-name="Trazado 775668" d="M346.988,222.839v1.078a2.988,2.988,0,0,1-4.254,2.705,2.985,2.985,0,0,0,1.72-2.705v-1.078a2.985,2.985,0,0,0-1.72-2.7,2.988,2.988,0,0,1,4.254,2.7Z" transform="translate(-341.015 -219.852)" fill="#ba5d4f"/>
                </g>
              </g>
              <g id="Grupo_1028809" data-name="Grupo 1028809" transform="translate(52.747)">
                <path id="Trazado_775669" data-name="Trazado 775669" d="M392.261,264.077H381.712v-4.238a3.663,3.663,0,0,1,3.663-3.663H388.6a3.663,3.663,0,0,1,3.663,3.663v4.238Z" transform="translate(-381.712 -250.079)" fill="#68dbf9"/>
                <path id="Trazado_775670" data-name="Trazado 775670" d="M412.73,259.839v4.238h-2.758v-4.238a3.664,3.664,0,0,0-3.663-3.663h2.758A3.664,3.664,0,0,1,412.73,259.839Z" transform="translate(-402.181 -250.079)" fill="#24d1f8"/>
                <g id="Grupo_1028808" data-name="Grupo 1028808" transform="translate(2.288)">
                  <path id="Trazado_775671" data-name="Trazado 775671" d="M398.331,226.906a2.986,2.986,0,0,1-2.986-2.986v-1.078a2.986,2.986,0,0,1,5.973,0v1.078A2.986,2.986,0,0,1,398.331,226.906Z" transform="translate(-395.345 -219.855)" fill="#ffcec0"/>
                  <path id="Trazado_775672" data-name="Trazado 775672" d="M409.842,222.839v1.078a2.988,2.988,0,0,1-4.254,2.705,2.984,2.984,0,0,0,1.72-2.705v-1.078a2.985,2.985,0,0,0-1.72-2.7,2.988,2.988,0,0,1,4.254,2.7Z" transform="translate(-403.869 -219.852)" fill="#fdb0a0"/>
                </g>
              </g>
            </g>
            <g id="Grupo_1028814" data-name="Grupo 1028814">
              <g id="Grupo_1028813" data-name="Grupo 1028813">
                <g id="Grupo_1028812" data-name="Grupo 1028812">
                  <g id="Grupo_1028811" data-name="Grupo 1028811">
                    <path id="Trazado_775673" data-name="Trazado 775673" fill="#9ce6fb"/>
                  </g>
                </g>
              </g>
            </g>
          </g>
        </g>
        <g id="Grupo_1028819" data-name="Grupo 1028819" transform="translate(8.662 50.342)">
          <path id="Trazado_775674" data-name="Trazado 775674" d="M119.378,299.945a.84.84,0,0,1,.84.861,34.333,34.333,0,0,1-68.607.947,1.711,1.711,0,0,1,1.7-1.807Z" transform="translate(-51.608 -299.945)" fill="#68dbf9"/>
          <path id="Trazado_775675" data-name="Trazado 775675" d="M275.188,300.807a34.332,34.332,0,0,1-34.321,33.471q-1.533,0-3.032-.133a34.334,34.334,0,0,0,31.291-33.338.84.84,0,0,0-.839-.861h6.061A.84.84,0,0,1,275.188,300.807Z" transform="translate(-206.578 -299.946)" fill="#24d1f8"/>
          <g id="Grupo_1028817" data-name="Grupo 1028817" transform="translate(41.279 0)">
            <path id="Trazado_775676" data-name="Trazado 775676" d="M324.881,300.809a34.3,34.3,0,0,1-15.692,27.982h0l-8.754-5.2a1.7,1.7,0,0,1-.832-1.462v-2.1a1.694,1.694,0,0,1,.258-.9l4.494-7.19a1.7,1.7,0,0,0-.294-2.153l-.461-.423a1.7,1.7,0,0,1-.539-1.057l-.3-2.581a1.7,1.7,0,0,0-1.131-1.411l-2.213-.769a1.694,1.694,0,0,1-1.06-1.087l-.805-2.514h26.49A.84.84,0,0,1,324.881,300.809Z" transform="translate(-297.55 -299.948)" fill="#a3e440"/>
            <path id="Trazado_775677" data-name="Trazado 775677" d="M366.121,300.807a34.3,34.3,0,0,1-15.692,27.982h0l-3.319-1.97a34.271,34.271,0,0,0,12.951-26.012.84.84,0,0,0-.839-.861h6.061A.84.84,0,0,1,366.121,300.807Z" transform="translate(-338.79 -299.946)" fill="#99d53b"/>
          </g>
          <g id="Grupo_1028818" data-name="Grupo 1028818" transform="translate(9.54 5.029)">
            <path id="Trazado_775678" data-name="Trazado 775678" d="M117.579,331.371l-2.15,2.172a1.7,1.7,0,0,1-.689.423l-4.945,1.585A1.7,1.7,0,0,0,108.622,337l-.168,1.717a1.7,1.7,0,0,0,1.966,1.843l5.244-.86a1.7,1.7,0,0,1,1.387.392l3,2.6a1.7,1.7,0,0,1,.545.909l.493,2.174a1.7,1.7,0,0,0,1.074,1.22l2.657.971a1.7,1.7,0,0,0,2.251-1.267l1.636-8.277a1.7,1.7,0,0,0-.151-1.1l-1.118-2.205a1.7,1.7,0,0,1-.183-.741l-.045-2.8a1.7,1.7,0,0,0-1.939-1.655l-6.724.96A1.7,1.7,0,0,0,117.579,331.371Z" transform="translate(-108.445 -329.906)" fill="#27d1b3"/>
            <path id="Trazado_775679" data-name="Trazado 775679" d="M197.877,338.426l-1.636,8.276a1.7,1.7,0,0,1-2.25,1.266l-2.163-.79A1.639,1.639,0,0,0,192,346.7l1.635-8.276a1.7,1.7,0,0,0-.151-1.1l-1.118-2.2a1.729,1.729,0,0,1-.183-.741l-.044-2.8a1.7,1.7,0,0,0-.571-1.244l2.874-.411a1.7,1.7,0,0,1,1.939,1.655l.046,2.8a1.679,1.679,0,0,0,.184.741l1.118,2.2a1.709,1.709,0,0,1,.151,1.1Z" transform="translate(-177.615 -329.908)" fill="#20b69f"/>
          </g>
        </g>
      </g>
      <path id="Trazado_775680" data-name="Trazado 775680" d="M114.638,49.717a2.083,2.083,0,0,0-1.5-.633h-.557V46.66a4.907,4.907,0,0,0-2.525-4.3,4.224,4.224,0,0,0,.237-1.4V39.887a4.245,4.245,0,0,0-8.49,0v1.078a4.227,4.227,0,0,0,.237,1.4,4.932,4.932,0,0,0-1.188.932,5.651,5.651,0,0,0-1.337-.957,4.225,4.225,0,0,0,.229-1.372V39.887a4.252,4.252,0,0,0-3.1-4.087V28.012h.693a2.077,2.077,0,0,0,2.075-2.075V22.8a2.077,2.077,0,0,0-2.075-2.075H91.3V20.5a8.5,8.5,0,0,0-5.346-7.881,7.1,7.1,0,0,0,.835-3.346V7.146a7.146,7.146,0,1,0-14.292,0V9.271a7.1,7.1,0,0,0,.835,3.348A8.547,8.547,0,0,0,67.99,20.5v.226H62.01A2.077,2.077,0,0,0,59.936,22.8v3.138a2.077,2.077,0,0,0,2.075,2.075H62.7V35.8a4.252,4.252,0,0,0-3.1,4.087v1.078a4.227,4.227,0,0,0,.237,1.4,4.891,4.891,0,0,0-1.266,1.009,4.885,4.885,0,0,0-1.266-1.009,4.224,4.224,0,0,0,.237-1.4V39.887a4.245,4.245,0,0,0-8.491,0v1.078a4.224,4.224,0,0,0,.236,1.395,4.927,4.927,0,0,0-2.525,4.3V49.1a2.928,2.928,0,0,0-1.839.906,3,3,0,0,0-.815,2.209,35.592,35.592,0,0,0,71.123-.981,2.08,2.08,0,0,0-.6-1.517Zm-4.577-.633h-8.032V46.66a2.413,2.413,0,0,1,1.546-2.246,4.231,4.231,0,0,0,4.94,0,2.4,2.4,0,0,1,1.546,2.245Zm-5.743-9.2a1.728,1.728,0,1,1,3.455,0v1.078a1.728,1.728,0,0,1-3.455,0Zm-4.806,9.2h-.729a1.259,1.259,0,1,0,0,2.518h1.326A47.9,47.9,0,0,1,96.9,68.117a47.9,47.9,0,0,0-4.681-1.444L94.515,63A2.958,2.958,0,0,0,94,59.256l-.459-.42a.447.447,0,0,1-.141-.276l-.3-2.578a2.972,2.972,0,0,0-1.969-2.458l-2.215-.769a.438.438,0,0,1-.273-.282L88.37,51.6h4.322a1.259,1.259,0,0,0,0-2.518H91.48V46.66a2.4,2.4,0,0,1,1.546-2.245,4.231,4.231,0,0,0,4.951-.009,2.557,2.557,0,0,1,1.534,1.268v3.41Zm-6.128,25.73-3.215-1.909a.434.434,0,0,1-.214-.378v-2.1a.439.439,0,0,1,.067-.234l.8-1.273a45.538,45.538,0,0,1,5.075,1.507,33.936,33.936,0,0,1-1.936,3.517c-.188.3-.379.584-.572.868Zm-33.1-13.767,1.3-.417a2.969,2.969,0,0,0,1.2-.736l2.15-2.172a.443.443,0,0,1,.251-.126l.559-.08a1.259,1.259,0,1,0-.356-2.492l-.559.08a2.975,2.975,0,0,0-1.684.847l-2.15,2.172a.442.442,0,0,1-.179.11l-1,.319a52.164,52.164,0,0,1-.62-6.95H78.4V65.144q-1.111.026-2.212.1l.219-1.109a2.972,2.972,0,0,0-.264-1.911l-1.118-2.2a.446.446,0,0,1-.048-.192l-.045-2.8a2.958,2.958,0,0,0-3.376-2.881l-.175.025a1.259,1.259,0,1,0,.356,2.492l.175-.025a.441.441,0,0,1,.5.429l.045,2.8a2.976,2.976,0,0,0,.319,1.29l1.118,2.2a.443.443,0,0,1,.039.285l-.363,1.835A49.9,49.9,0,0,0,66.8,66.745l-2.469-2.136a2.951,2.951,0,0,0-2.415-.682l-.889.146q-.421-1.481-.75-3.025Zm-1.748,3.435-1.858.3a.44.44,0,0,1-.51-.478l.168-1.717a.44.44,0,0,1,.3-.377l1.237-.4q.295,1.352.658,2.663Zm17.59-23.517a1.728,1.728,0,1,1-3.455,0V39.886a1.728,1.728,0,1,1,3.455,0Zm-4.2,3.45a4.231,4.231,0,0,0,4.939,0,2.4,2.4,0,0,1,1.546,2.246v2.424H70.381V46.66A2.4,2.4,0,0,1,71.927,44.414Zm14.747-3.45a1.728,1.728,0,1,1-3.455,0V39.886a1.728,1.728,0,1,1,3.455,0Zm-4.2,3.45a4.231,4.231,0,0,0,4.939,0,2.4,2.4,0,0,1,1.546,2.245v2.424H80.931V46.66A2.4,2.4,0,0,1,82.477,44.414Zm3.774,8.825A2.966,2.966,0,0,0,88.1,55.133l2.213.768a.437.437,0,0,1,.294.367l.3,2.581a2.966,2.966,0,0,0,.939,1.841l.461.423a.441.441,0,0,1,.077.558l-2.761,4.418a51.382,51.382,0,0,0-8.706-.944V51.6h4.813Zm-13.2,14.843L72.3,71.921a.441.441,0,0,1-.583.328l-2.657-.971a.439.439,0,0,1-.278-.316l-.454-2a47.36,47.36,0,0,1,4.731-.879ZM62.329,66.411a.442.442,0,0,1,.36.1l1.245,1.077q-.769.252-1.527.53-.318-.8-.605-1.621Zm3.562,3.2.432,1.9a2.947,2.947,0,0,0,1.869,2.124l2.657.971a2.958,2.958,0,0,0,3.918-2.2l.911-4.607q1.35-.107,2.718-.14V83.352c-4.89-.484-9.482-3.779-13.043-9.406a33.972,33.972,0,0,1-1.936-3.518q1.221-.442,2.474-.814ZM80.913,83.351V67.662a49.045,49.045,0,0,1,7.272.719l-.3.477a2.951,2.951,0,0,0-.451,1.57v2.1a2.966,2.966,0,0,0,1.448,2.544l2.979,1.769C88.675,80.7,84.893,82.957,80.913,83.351Zm16.31-43.465v1.078a1.728,1.728,0,1,1-3.455,0V39.886a1.728,1.728,0,0,1,3.455,0ZM88.787,20.5v.226H83.733l-1.254-4.893a7.159,7.159,0,0,0,1.793-1.118A5.972,5.972,0,0,1,88.787,20.5Zm-9.14-4.081c.128,0,.254,0,.38-.01l1.106,4.317H78.209l1.106-4.315c.11.005.221.009.332.009ZM75.019,7.146a4.628,4.628,0,0,1,9.257,0V9.271a4.628,4.628,0,1,1-9.257,0ZM70.508,20.5a6,6,0,0,1,4.516-5.785,7.158,7.158,0,0,0,1.836,1.137L75.61,20.724h-5.1Zm-3.931,7.514a1.259,1.259,0,1,0,0-2.518H62.453V23.242H96.89v2.253H72.667a1.259,1.259,0,0,0,0,2.518H94.122v7.859a4.252,4.252,0,0,0-2.871,4.016v1.078a4.229,4.229,0,0,0,.237,1.4,4.895,4.895,0,0,0-1.266,1.009,4.893,4.893,0,0,0-1.03-.87V32.128a1.259,1.259,0,1,0-2.518,0V36.01A4.242,4.242,0,0,0,80.7,39.886v1.078a4.224,4.224,0,0,0,.237,1.4,4.889,4.889,0,0,0-1.268,1.011,4.917,4.917,0,0,0-1.264-1.012,4.224,4.224,0,0,0,.236-1.395V39.886a4.242,4.242,0,0,0-5.974-3.876V32.128a1.259,1.259,0,1,0-2.518,0V42.5a4.917,4.917,0,0,0-1.027.867,4.889,4.889,0,0,0-1.268-1.011,4.224,4.224,0,0,0,.237-1.4V39.886a4.252,4.252,0,0,0-2.872-4.016V28.012h1.356ZM62.12,39.886a1.728,1.728,0,1,1,3.455,0v1.078a1.728,1.728,0,1,1-3.455,0Zm-.742,4.528a4.231,4.231,0,0,0,4.939,0,2.4,2.4,0,0,1,1.546,2.245v2.424H59.832V46.66A2.394,2.394,0,0,1,61.378,44.414Zm-9.808-4.528a1.728,1.728,0,0,1,3.455,0v1.078a1.728,1.728,0,0,1-3.455,0Zm-.742,4.528a4.231,4.231,0,0,0,4.939,0,2.4,2.4,0,0,1,1.546,2.245v2.424H49.282V46.66A2.4,2.4,0,0,1,50.829,44.414Zm-4.077,7.325a.433.433,0,0,1,.32-.138h9.609a54.537,54.537,0,0,0,.717,7.726l-1.528.49a2.957,2.957,0,0,0-2.041,2.528l-.168,1.717a2.958,2.958,0,0,0,3.423,3.208l2.2-.36q.368,1.088.786,2.136a45.356,45.356,0,0,0-5.531,2.828,32.907,32.907,0,0,1-7.911-19.79.461.461,0,0,1,.126-.345Zm9.536,22.025a42.906,42.906,0,0,1,4.782-2.408,36.492,36.492,0,0,0,2.156,3.937,27.582,27.582,0,0,0,5.22,6.176A33.089,33.089,0,0,1,56.288,73.764Zm37.766,4.376L95.837,79.2a32.746,32.746,0,0,1-4.98,2.276A25.294,25.294,0,0,0,94.054,78.139Zm4.194-.438-2.7-1.6c.179-.265.356-.534.531-.809a36.456,36.456,0,0,0,2.156-3.937,42.863,42.863,0,0,1,4.771,2.4c-.081.081-.161.163-.244.244A33.372,33.372,0,0,1,98.248,77.7Zm6.516-5.832a45.3,45.3,0,0,0-5.522-2.824A50.479,50.479,0,0,0,102.627,51.6H112.7A32.839,32.839,0,0,1,104.764,71.869Z" transform="translate(-36.705 0)"/>
    </g>
  </g>
</svg>
