<svg id="Layer_1" data-name="Layer 1" xmlns="http://www.w3.org/2000/svg" width="525" height="380" viewBox="0 0 525 380">
  <g id="Grupo_1028791" data-name="Grupo 1028791">
    <rect id="Rectángulo_361439" data-name="Rectángulo 361439" width="525" height="380" fill="none"/>
    <g id="Grupo_1028790" data-name="Grupo 1028790">
      <path id="Trazado_775404" data-name="Trazado 775404" d="M457.22,329.16c6.98,0,12.7-3.9,12.7-8.66v-2.24c0-4.76-5.71-8.66-12.7-8.66H92.39c-6.98,0-12.7,3.9-12.7,8.66v2.24c0,4.76,5.71,8.66,12.7,8.66h44.66c6.98,0,12.7,3.14,12.7,6.97s-5.71,6.97-12.7,6.97H107.76c-6.98,0-12.7,2.53-12.7,5.63s5.71,5.63,12.7,5.63H450.43c6.98,0,12.7-2.53,12.7-5.63s-5.71-5.63-12.7-5.63H437.59c-6.98,0-12.7-3.14-12.7-6.97s5.71-6.97,12.7-6.97h19.62Z" fill="#eee4bb" fill-rule="evenodd" opacity="0.7"/>
      <rect id="Rectángulo_361440" data-name="Rectángulo 361440" width="525" height="2.54" transform="translate(0 308.15)" fill="#42566b"/>
      <g id="Grupo_1028789" data-name="Grupo 1028789">
        <g id="Grupo_1028651" data-name="Grupo 1028651">
          <g id="Grupo_1028646" data-name="Grupo 1028646">
            <rect id="Rectángulo_361441" data-name="Rectángulo 361441" width="2.54" height="1.27" transform="translate(430.99 173.16)" fill="#bfdeff"/>
            <path id="Trazado_775405" data-name="Trazado 775405" d="M433.53,170.6h-2.54v-2.56h2.54Zm0-5.13h-2.54v-2.56h2.54Zm0-5.12h-2.54v-2.56h2.54Zm0-5.13h-2.54v-2.56h2.54Zm0-5.12h-2.54v-2.56h2.54Zm0-5.13h-2.54v-2.56h2.54Zm0-5.12h-2.54v-2.56h2.54Zm0-5.13h-2.54v-2.56h2.54Zm0-5.12h-2.54v-2.56h2.54Zm0-5.12h-2.54v-2.56h2.54Z" fill="#bfdeff"/>
            <rect id="Rectángulo_361442" data-name="Rectángulo 361442" width="2.54" height="1.27" transform="translate(430.99 118.08)" fill="#bfdeff"/>
          </g>
          <g id="Grupo_1028650" data-name="Grupo 1028650">
            <g id="Grupo_1028647" data-name="Grupo 1028647">
              <rect id="Rectángulo_361443" data-name="Rectángulo 361443" width="22.23" height="5.14" transform="translate(421.15 96.87)" fill="#fff"/>
              <path id="Trazado_775406" data-name="Trazado 775406" d="M444.65,103.27H419.88V95.59h24.77Zm-22.23-2.54h19.69v-2.6H422.42Z" fill="#42566b"/>
            </g>
            <g id="Grupo_1028648" data-name="Grupo 1028648">
              <path id="Trazado_775407" data-name="Trazado 775407" d="M421.15,108.59h22.23v1.28a7.434,7.434,0,0,1-7.43,7.43h-7.37a7.434,7.434,0,0,1-7.43-7.43v-1.28h0Z" fill="#fff"/>
              <path id="Trazado_775408" data-name="Trazado 775408" d="M435.95,118.57h-7.37a8.706,8.706,0,0,1-8.7-8.7v-2.55h24.77v2.55a8.706,8.706,0,0,1-8.7,8.7Zm-13.53-8.71h0a6.165,6.165,0,0,0,6.16,6.17h7.37a6.163,6.163,0,0,0,6.16-6.16h0l-19.69-.01Z" fill="#42566b"/>
            </g>
            <g id="Grupo_1028649" data-name="Grupo 1028649">
              <path id="Trazado_775409" data-name="Trazado 775409" d="M421.15,90.65h22.42v-.67a23.443,23.443,0,0,1,4.05-13.18,18.4,18.4,0,1,0-30.52,0,23.568,23.568,0,0,1,4.05,13.18v.67Z" fill="#fff"/>
              <path id="Trazado_775410" data-name="Trazado 775410" d="M444.84,91.92H419.88V89.98a22.145,22.145,0,0,0-3.83-12.47,19.486,19.486,0,0,1-3.36-10.97,19.67,19.67,0,0,1,39.34,0,19.487,19.487,0,0,1-3.36,10.97,22.168,22.168,0,0,0-3.83,12.47v1.94Zm-22.43-2.54h19.9a24.685,24.685,0,0,1,4.26-13.3,17.13,17.13,0,1,0-28.42,0,24.77,24.77,0,0,1,4.26,13.3Z" fill="#42566b"/>
            </g>
            <rect id="Rectángulo_361444" data-name="Rectángulo 361444" width="2.54" height="33.24" transform="translate(431.09 75.35)" fill="#42566b"/>
            <path id="Trazado_775411" data-name="Trazado 775411" d="M432.36,78.04l-7.69-14.3h15.38Zm-3.44-11.76,3.44,6.4,3.44-6.4Z" fill="#42566b"/>
          </g>
        </g>
        <path id="Trazado_775412" data-name="Trazado 775412" d="M71.56,99.2a5.08,5.08,0,1,1,5.08-5.08A5.087,5.087,0,0,1,71.56,99.2Zm0-7.62a2.54,2.54,0,1,0,2.54,2.54A2.544,2.544,0,0,0,71.56,91.58Z" fill="#bfdeff"/>
        <path id="Trazado_775413" data-name="Trazado 775413" d="M23.14,290.58a5.08,5.08,0,1,1,5.08-5.08A5.087,5.087,0,0,1,23.14,290.58Zm0-7.62a2.54,2.54,0,1,0,2.54,2.54A2.544,2.544,0,0,0,23.14,282.96Z" fill="#bfdeff"/>
        <path id="Trazado_775414" data-name="Trazado 775414" d="M472.89,116.36a5.08,5.08,0,1,1,5.08-5.08A5.087,5.087,0,0,1,472.89,116.36Zm0-7.62a2.54,2.54,0,1,0,2.54,2.54A2.544,2.544,0,0,0,472.89,108.74Z" fill="#bfdeff"/>
        <g id="Grupo_1028653" data-name="Grupo 1028653">
          <g id="Grupo_1028652" data-name="Grupo 1028652">
            <path id="Trazado_775415" data-name="Trazado 775415" d="M472.89,149.74a11.43,11.43,0,1,1,11.43-11.43,11.446,11.446,0,0,1-11.43,11.43Z" fill="#fff"/>
            <path id="Trazado_775416" data-name="Trazado 775416" d="M472.89,151.01a12.7,12.7,0,1,1,12.7-12.7A12.718,12.718,0,0,1,472.89,151.01Zm0-22.85a10.16,10.16,0,1,0,10.16,10.16A10.174,10.174,0,0,0,472.89,128.16Z" fill="#42566b"/>
          </g>
          <path id="Trazado_775417" data-name="Trazado 775417" d="M474.57,135.65a2.11,2.11,0,0,0-1.54-.7,1.01,1.01,0,0,0-1.15,1.06c0,1.59,3.6,1.27,3.6,3.94a2.332,2.332,0,0,1-2.05,2.42v1.36h-1.06v-1.32a4.14,4.14,0,0,1-2.29-1l.69-1.03a3.155,3.155,0,0,0,1.96.82c.86,0,1.28-.42,1.28-1.14,0-1.75-3.6-1.49-3.6-3.98a2.263,2.263,0,0,1,1.96-2.32v-1.35h1.06v1.32a3.12,3.12,0,0,1,1.92,1.03Z" fill="#42566b"/>
        </g>
        <g id="Grupo_1028655" data-name="Grupo 1028655">
          <g id="Grupo_1028654" data-name="Grupo 1028654">
            <path id="Trazado_775418" data-name="Trazado 775418" d="M180.03,124.37a11.43,11.43,0,1,1,11.43-11.43A11.446,11.446,0,0,1,180.03,124.37Z" fill="#fff"/>
            <path id="Trazado_775419" data-name="Trazado 775419" d="M180.02,125.64a12.7,12.7,0,1,1,12.7-12.7A12.718,12.718,0,0,1,180.02,125.64Zm0-22.85a10.16,10.16,0,1,0,10.16,10.16,10.174,10.174,0,0,0-10.16-10.16Z" fill="#42566b"/>
          </g>
          <path id="Trazado_775420" data-name="Trazado 775420" d="M181.71,110.29a2.11,2.11,0,0,0-1.54-.7,1.01,1.01,0,0,0-1.15,1.06c0,1.59,3.6,1.27,3.6,3.94a2.332,2.332,0,0,1-2.05,2.42v1.36h-1.06v-1.32a4.084,4.084,0,0,1-2.29-1.01l.69-1.03a3.155,3.155,0,0,0,1.96.82c.86,0,1.28-.42,1.28-1.14,0-1.75-3.6-1.49-3.6-3.98a2.263,2.263,0,0,1,1.96-2.32v-1.35h1.06v1.32a3.12,3.12,0,0,1,1.92,1.03l-.78.89Z" fill="#42566b"/>
        </g>
        <g id="Grupo_1028657" data-name="Grupo 1028657">
          <g id="Grupo_1028656" data-name="Grupo 1028656">
            <path id="Trazado_775421" data-name="Trazado 775421" d="M25.56,224.96a11.43,11.43,0,1,1,11.43-11.43,11.446,11.446,0,0,1-11.43,11.43Z" fill="#fff"/>
            <path id="Trazado_775422" data-name="Trazado 775422" d="M25.56,226.23a12.7,12.7,0,1,1,12.7-12.7,12.718,12.718,0,0,1-12.7,12.7Zm0-22.85a10.16,10.16,0,1,0,10.16,10.16,10.174,10.174,0,0,0-10.16-10.16Z" fill="#42566b"/>
          </g>
          <path id="Trazado_775423" data-name="Trazado 775423" d="M27.24,210.87a2.11,2.11,0,0,0-1.54-.7,1.01,1.01,0,0,0-1.15,1.06c0,1.59,3.6,1.27,3.6,3.94a2.332,2.332,0,0,1-2.05,2.42v1.36H25.04v-1.32a4.14,4.14,0,0,1-2.29-1l.69-1.03a3.155,3.155,0,0,0,1.96.82c.86,0,1.28-.42,1.28-1.14,0-1.75-3.6-1.49-3.6-3.98a2.263,2.263,0,0,1,1.96-2.32v-1.35H26.1v1.32a3.12,3.12,0,0,1,1.92,1.03l-.78.89Z" fill="#42566b"/>
        </g>
        <g id="Grupo_1028658" data-name="Grupo 1028658">
          <path id="Trazado_775424" data-name="Trazado 775424" d="M496.29,142.74c3.62-2.1,5.66-4.02,7.33-7.33,1.63,3.29,3.65,5.18,7.25,7.25-3.62,2.1-5.66,4.02-7.33,7.33C501.91,146.7,499.89,144.81,496.29,142.74Z" fill="#fff"/>
          <path id="Trazado_775425" data-name="Trazado 775425" d="M503.53,152.84l-1.13-2.28c-1.45-2.93-3.22-4.69-6.74-6.71l-1.91-1.09,1.9-1.1c3.56-2.07,5.34-3.85,6.83-6.8l1.14-2.27,1.13,2.28c1.45,2.93,3.22,4.69,6.74,6.71l1.91,1.09-1.9,1.1c-3.56,2.07-5.34,3.85-6.83,6.8l-1.14,2.27Zm-4.83-10.1a16.254,16.254,0,0,1,4.84,4.7,16.73,16.73,0,0,1,4.91-4.77,16.254,16.254,0,0,1-4.84-4.7A16.607,16.607,0,0,1,498.7,142.74Z" fill="#42566b"/>
        </g>
        <circle id="Elipse_8747" data-name="Elipse 8747" cx="3.81" cy="3.81" r="3.81" transform="translate(348.49 152.17)" fill="#52c8d1"/>
        <g id="Grupo_1028661" data-name="Grupo 1028661">
          <g id="Grupo_1028659" data-name="Grupo 1028659">
            <path id="Trazado_775426" data-name="Trazado 775426" d="M68.78,142.98H61.45v7.07a.71.71,0,0,1-1.27.44l-4.64-7.51H30.06a4.5,4.5,0,0,1-4.5-4.5V120.84a4.5,4.5,0,0,1,4.5-4.5H68.78a4.5,4.5,0,0,1,4.5,4.5v17.64a4.5,4.5,0,0,1-4.5,4.5Z" fill="#fff"/>
            <path id="Trazado_775427" data-name="Trazado 775427" d="M60.73,152.03a1.98,1.98,0,0,1-1.55-.76l-.08-.12-4.27-6.91H30.06a5.779,5.779,0,0,1-5.77-5.77V120.83a5.779,5.779,0,0,1,5.77-5.77H68.78a5.779,5.779,0,0,1,5.77,5.77v17.64a5.779,5.779,0,0,1-5.77,5.77H62.72v5.8a1.949,1.949,0,0,1-1.33,1.87,1.905,1.905,0,0,1-.66.11ZM30.06,117.6a3.235,3.235,0,0,0-3.23,3.23v17.64a3.235,3.235,0,0,0,3.23,3.23H56.25l3.94,6.37V141.7h8.6a3.235,3.235,0,0,0,3.23-3.23V120.83a3.235,3.235,0,0,0-3.23-3.23Z" fill="#42566b"/>
          </g>
          <g id="Grupo_1028660" data-name="Grupo 1028660">
            <path id="Trazado_775428" data-name="Trazado 775428" d="M38.29,133.96a3.95,3.95,0,1,1,3.95-3.95A3.952,3.952,0,0,1,38.29,133.96Zm0-5.37A1.41,1.41,0,1,0,39.7,130,1.408,1.408,0,0,0,38.29,128.59Z" fill="#42566b"/>
            <path id="Trazado_775429" data-name="Trazado 775429" d="M49.42,133.96a3.95,3.95,0,1,1,3.95-3.95A3.952,3.952,0,0,1,49.42,133.96Zm0-5.37A1.41,1.41,0,1,0,50.83,130,1.408,1.408,0,0,0,49.42,128.59Z" fill="#42566b"/>
            <path id="Trazado_775430" data-name="Trazado 775430" d="M60.55,133.96a3.95,3.95,0,1,1,3.95-3.95A3.952,3.952,0,0,1,60.55,133.96Zm0-5.37A1.41,1.41,0,1,0,61.96,130,1.408,1.408,0,0,0,60.55,128.59Z" fill="#42566b"/>
          </g>
        </g>
        <path id="Trazado_775431" data-name="Trazado 775431" d="M300.35,87.6l2.11,4.29,4.74.69-3.43,3.34.81,4.71-4.23-2.22-4.24,2.22.81-4.71-3.43-3.34,4.74-.69Z" fill="#fdbe11"/>
        <path id="Trazado_775432" data-name="Trazado 775432" d="M95.61,58.47l2.12,4.29,4.73.68-3.42,3.34.8,4.72-4.23-2.23L91.37,71.5l.81-4.72-3.42-3.34,4.73-.68Z" fill="#fdbe11"/>
        <path id="Trazado_775433" data-name="Trazado 775433" d="M482.92,74.23l2.12,4.29,4.73.69-3.42,3.34.8,4.71-4.23-2.22-4.24,2.22.81-4.71-3.42-3.34,4.73-.69Z" fill="#fdbe11"/>
        <path id="Trazado_775434" data-name="Trazado 775434" d="M281.37,43.39l2.12,4.29,4.73.69-3.43,3.34.81,4.71-4.23-2.22-4.24,2.22.81-4.71-3.42-3.34,4.73-.69Z" fill="#fdbe11"/>
        <path id="Trazado_775435" data-name="Trazado 775435" d="M404.31,117.65l1.57,3.18,3.51.51-2.54,2.47.6,3.5-3.14-1.65-3.13,1.65.6-3.5-2.54-2.47,3.51-.51Z" fill="#fdbe11"/>
        <g id="Grupo_1028664" data-name="Grupo 1028664">
          <g id="Grupo_1028663" data-name="Grupo 1028663">
            <g id="Grupo_1028662" data-name="Grupo 1028662">
              <circle id="Elipse_8748" data-name="Elipse 8748" cx="21.23" cy="21.23" r="21.23" transform="translate(146.667 59.627) rotate(-67.5)" fill="#fff"/>
              <path id="Trazado_775436" data-name="Trazado 775436" d="M174.4,70.64a22.5,22.5,0,1,1,22.5-22.5A22.521,22.521,0,0,1,174.4,70.64Zm0-42.46a19.96,19.96,0,1,0,19.96,19.96A19.977,19.977,0,0,0,174.4,28.18Z" fill="#42566b"/>
            </g>
            <path id="Trazado_775437" data-name="Trazado 775437" d="M176.75,64.87a1.263,1.263,0,0,1,.96-1.51h0a1.269,1.269,0,0,1,1.51.98h0a1.258,1.258,0,0,1-.96,1.5h0a.9.9,0,0,1-.28.04h0a1.268,1.268,0,0,1-1.23-1Zm-6.61.88a1.269,1.269,0,0,1-.93-1.52h0a1.255,1.255,0,0,1,1.52-.94h0a1.26,1.26,0,0,1,.94,1.52h0a1.278,1.278,0,0,1-1.23.98h0a1.032,1.032,0,0,1-.3-.04Zm13.69-3.58a1.289,1.289,0,0,1,.2-1.79h0a1.273,1.273,0,0,1,1.79.22h0a1.262,1.262,0,0,1-.22,1.78h0a1.232,1.232,0,0,1-.79.28h0a1.265,1.265,0,0,1-.99-.48Zm-20.95-.05h0a1.277,1.277,0,0,1-.16-1.79h0a1.277,1.277,0,0,1,1.79-.16h0a1.277,1.277,0,0,1,.16,1.79h0a1.271,1.271,0,0,1-.98.46h0a1.3,1.3,0,0,1-.81-.29Zm26.13-5.47a1.266,1.266,0,0,1-.58-1.7h0a1.258,1.258,0,0,1,1.69-.58h0a1.278,1.278,0,0,1,.6,1.69h0a1.272,1.272,0,0,1-1.15.72h0a1.381,1.381,0,0,1-.55-.13Zm-31.08-.97a1.273,1.273,0,0,1,.63-1.68h0a1.26,1.26,0,0,1,1.68.62h0a1.277,1.277,0,0,1-.62,1.68h0a1.181,1.181,0,0,1-.53.13h0A1.287,1.287,0,0,1,157.93,55.68Zm32.06-7.54h0a1.272,1.272,0,0,1,1.27-1.27h0a1.272,1.272,0,0,1,1.27,1.27h0a1.272,1.272,0,0,1-1.27,1.27h0A1.265,1.265,0,0,1,189.99,48.14Zm-32.45.89a1.263,1.263,0,0,1-1.24-1.29h0a1.274,1.274,0,0,1,1.31-1.24h0a1.249,1.249,0,0,1,1.23,1.29h0a1.253,1.253,0,0,1-1.27,1.24h-.03Zm31.18-7.05a1.273,1.273,0,0,1,.66-1.68h0a1.29,1.29,0,0,1,1.68.66h0a1.294,1.294,0,0,1-.67,1.68h0a1.437,1.437,0,0,1-.5.1h0A1.279,1.279,0,0,1,188.72,41.98Zm-29.87-.42a1.267,1.267,0,0,1-.56-1.7h0a1.269,1.269,0,0,1,1.71-.55h0a1.255,1.255,0,0,1,.55,1.7h0a1.25,1.25,0,0,1-1.13.69h0A1.172,1.172,0,0,1,158.85,41.56Zm25.73-5.22a1.277,1.277,0,0,1-.13-1.79h0a1.277,1.277,0,0,1,1.79-.13h0a1.287,1.287,0,0,1,.14,1.79h0a1.28,1.28,0,0,1-.97.44h0a1.3,1.3,0,0,1-.84-.32Zm-21.3-.91a1.283,1.283,0,0,1,.25-1.78h0a1.283,1.283,0,0,1,1.78.25h0a1.283,1.283,0,0,1-.25,1.78h0a1.328,1.328,0,0,1-.76.25h0a1.307,1.307,0,0,1-1.02-.51Zm15.13-2.35h0a1.275,1.275,0,0,1-.9-1.55h0a1.266,1.266,0,0,1,1.56-.9h0a1.275,1.275,0,0,1,.9,1.55h0a1.27,1.27,0,0,1-1.23.94h0A1.293,1.293,0,0,1,178.41,33.08Zm-8.47-1.24a1.278,1.278,0,0,1,1.02-1.49h0a1.28,1.28,0,0,1,1.49,1h0a1.27,1.27,0,0,1-1,1.49h0a.716.716,0,0,1-.24.03h0a1.291,1.291,0,0,1-1.26-1.03Z" fill="#42566b"/>
          </g>
          <path id="Trazado_775438" data-name="Trazado 775438" d="M184.5,54.61a1.338,1.338,0,0,1-.58-.14l-10.1-5.2a1.276,1.276,0,0,1-.69-1.13V40.07a1.27,1.27,0,0,1,2.54,0v7.29l9.41,4.85a1.27,1.27,0,0,1-.58,2.4Z" fill="#00a0d8"/>
        </g>
        <path id="Trazado_775439" data-name="Trazado 775439" d="M404.31,49.9,324.14,72.02l23.23,11.93-53.96,57.36-21.83-23.68-56.06,58.11L180.96,139.5,85.3,237.21l24.08,25.27,71.51-72.54,34.5,36.17,55.64-57.68,21.89,23.76,78.22-82.65,10.2,22.94Z" fill="#fdbe11"/>
        <path id="Trazado_775440" data-name="Trazado 775440" d="M499.83,309.42a20.136,20.136,0,0,0,9.75-16.96c0-8.97-6.27-16.59-15.01-19.44-.93-8.61-7.19-16.11-16.34-20.66-3.22-10.79-15.18-18.82-29.49-18.82s-26.69,8.3-29.66,19.37a45.641,45.641,0,0,0-10.44-2.35c-3.34-10.66-15.22-18.55-29.4-18.55h-.04c0-.25.04-.5.04-.75,0-11.41-10.11-20.66-22.58-20.66-10.8,0-19.81,6.94-22.04,16.2a35.336,35.336,0,0,0-16.34,3.93,31.733,31.733,0,0,0-60.07-9.84,35.61,35.61,0,0,0-9.91,2.81c-3.3-7.66-11.45-13.1-21-13.1-10.8,0-19.81,6.94-22.04,16.2a35.336,35.336,0,0,0-16.34,3.93,31.733,31.733,0,0,0-60.07-9.84,35.483,35.483,0,0,0-10.16,2.92,35.449,35.449,0,0,0-16.95-4.19c-16.58,0-30.04,10.78-30.34,24.16-9.44,5.69-15.55,14.79-15.55,25.05a25.99,25.99,0,0,0,2.6,11.27c-7.87,3.35-13.31,10.39-13.31,18.57a18.539,18.539,0,0,0,3.51,10.75H499.83Z" fill="#bfdeff"/>
        <g id="Grupo_1028693" data-name="Grupo 1028693">
          <g id="Grupo_1028672" data-name="Grupo 1028672">
            <g id="Grupo_1028665" data-name="Grupo 1028665">
              <rect id="Rectángulo_361445" data-name="Rectángulo 361445" width="58.44" height="131.03" transform="translate(306.37 178.38)" fill="#fff"/>
              <path id="Trazado_775441" data-name="Trazado 775441" d="M366.08,310.68H305.1V177.11h60.98Zm-58.44-2.54h55.9V179.65h-55.9Z" fill="#42566b"/>
            </g>
            <g id="Grupo_1028666" data-name="Grupo 1028666">
              <rect id="Rectángulo_361446" data-name="Rectángulo 361446" width="2.54" height="8.11" transform="translate(319.93 196.17)" fill="#42566b"/>
              <rect id="Rectángulo_361447" data-name="Rectángulo 361447" width="2.54" height="8.11" transform="translate(329.52 196.17)" fill="#42566b"/>
              <rect id="Rectángulo_361448" data-name="Rectángulo 361448" width="2.54" height="8.11" transform="translate(339.12 196.17)" fill="#42566b"/>
              <rect id="Rectángulo_361449" data-name="Rectángulo 361449" width="2.54" height="8.11" transform="translate(348.71 196.17)" fill="#42566b"/>
            </g>
            <g id="Grupo_1028667" data-name="Grupo 1028667">
              <rect id="Rectángulo_361450" data-name="Rectángulo 361450" width="2.54" height="8.11" transform="translate(319.93 213.25)" fill="#42566b"/>
              <rect id="Rectángulo_361451" data-name="Rectángulo 361451" width="2.54" height="8.11" transform="translate(329.52 213.25)" fill="#42566b"/>
              <rect id="Rectángulo_361452" data-name="Rectángulo 361452" width="2.54" height="8.11" transform="translate(339.12 213.25)" fill="#42566b"/>
              <rect id="Rectángulo_361453" data-name="Rectángulo 361453" width="2.54" height="8.11" transform="translate(348.71 213.25)" fill="#42566b"/>
            </g>
            <g id="Grupo_1028668" data-name="Grupo 1028668">
              <rect id="Rectángulo_361454" data-name="Rectángulo 361454" width="2.54" height="8.11" transform="translate(319.93 230.33)" fill="#42566b"/>
              <rect id="Rectángulo_361455" data-name="Rectángulo 361455" width="2.54" height="8.11" transform="translate(329.52 230.33)" fill="#42566b"/>
              <rect id="Rectángulo_361456" data-name="Rectángulo 361456" width="2.54" height="8.11" transform="translate(339.12 230.33)" fill="#42566b"/>
              <rect id="Rectángulo_361457" data-name="Rectángulo 361457" width="2.54" height="8.11" transform="translate(348.71 230.33)" fill="#42566b"/>
            </g>
            <g id="Grupo_1028669" data-name="Grupo 1028669">
              <rect id="Rectángulo_361458" data-name="Rectángulo 361458" width="2.54" height="8.1" transform="translate(319.93 247.41)" fill="#42566b"/>
              <rect id="Rectángulo_361459" data-name="Rectángulo 361459" width="2.54" height="8.1" transform="translate(329.52 247.41)" fill="#42566b"/>
              <rect id="Rectángulo_361460" data-name="Rectángulo 361460" width="2.54" height="8.1" transform="translate(339.12 247.41)" fill="#42566b"/>
              <rect id="Rectángulo_361461" data-name="Rectángulo 361461" width="2.54" height="8.1" transform="translate(348.71 247.41)" fill="#42566b"/>
            </g>
            <g id="Grupo_1028670" data-name="Grupo 1028670">
              <rect id="Rectángulo_361462" data-name="Rectángulo 361462" width="2.54" height="8.11" transform="translate(319.93 264.49)" fill="#42566b"/>
              <rect id="Rectángulo_361463" data-name="Rectángulo 361463" width="2.54" height="8.11" transform="translate(329.52 264.49)" fill="#42566b"/>
              <rect id="Rectángulo_361464" data-name="Rectángulo 361464" width="2.54" height="8.11" transform="translate(339.12 264.49)" fill="#42566b"/>
              <rect id="Rectángulo_361465" data-name="Rectángulo 361465" width="2.54" height="8.11" transform="translate(348.71 264.49)" fill="#42566b"/>
            </g>
            <g id="Grupo_1028671" data-name="Grupo 1028671">
              <rect id="Rectángulo_361466" data-name="Rectángulo 361466" width="2.54" height="8.11" transform="translate(319.93 281.57)" fill="#42566b"/>
              <rect id="Rectángulo_361467" data-name="Rectángulo 361467" width="2.54" height="8.11" transform="translate(329.52 281.57)" fill="#42566b"/>
              <rect id="Rectángulo_361468" data-name="Rectángulo 361468" width="2.54" height="8.11" transform="translate(339.12 281.57)" fill="#42566b"/>
              <rect id="Rectángulo_361469" data-name="Rectángulo 361469" width="2.54" height="8.11" transform="translate(348.71 281.57)" fill="#42566b"/>
            </g>
          </g>
          <g id="Grupo_1028673" data-name="Grupo 1028673">
            <path id="Trazado_775442" data-name="Trazado 775442" d="M423.25,309.42H364.81V160.94l58.44-17.44Z" fill="#fff"/>
            <path id="Trazado_775443" data-name="Trazado 775443" d="M424.52,310.68H363.54V159.99l60.98-18.2Zm-58.44-2.54h55.9V145.19l-55.9,16.69Z" fill="#42566b"/>
          </g>
          <g id="Grupo_1028674" data-name="Grupo 1028674">
            <rect id="Rectángulo_361470" data-name="Rectángulo 361470" width="2.54" height="8.11" transform="translate(378.37 168.25)" fill="#42566b"/>
            <rect id="Rectángulo_361471" data-name="Rectángulo 361471" width="2.54" height="8.11" transform="translate(387.97 168.25)" fill="#42566b"/>
            <rect id="Rectángulo_361472" data-name="Rectángulo 361472" width="2.54" height="8.11" transform="translate(397.56 168.25)" fill="#42566b"/>
            <rect id="Rectángulo_361473" data-name="Rectángulo 361473" width="2.54" height="8.11" transform="translate(407.15 168.25)" fill="#42566b"/>
          </g>
          <g id="Grupo_1028675" data-name="Grupo 1028675">
            <rect id="Rectángulo_361474" data-name="Rectángulo 361474" width="2.54" height="8.11" transform="translate(378.37 187.14)" fill="#42566b"/>
            <rect id="Rectángulo_361475" data-name="Rectángulo 361475" width="2.54" height="8.11" transform="translate(387.97 187.14)" fill="#42566b"/>
            <rect id="Rectángulo_361476" data-name="Rectángulo 361476" width="2.54" height="8.11" transform="translate(397.56 187.14)" fill="#42566b"/>
            <rect id="Rectángulo_361477" data-name="Rectángulo 361477" width="2.54" height="8.11" transform="translate(407.15 187.14)" fill="#42566b"/>
          </g>
          <g id="Grupo_1028676" data-name="Grupo 1028676">
            <rect id="Rectángulo_361478" data-name="Rectángulo 361478" width="2.54" height="8.11" transform="translate(378.37 206.03)" fill="#42566b"/>
            <rect id="Rectángulo_361479" data-name="Rectángulo 361479" width="2.54" height="8.11" transform="translate(387.97 206.03)" fill="#42566b"/>
            <rect id="Rectángulo_361480" data-name="Rectángulo 361480" width="2.54" height="8.11" transform="translate(397.56 206.03)" fill="#42566b"/>
            <rect id="Rectángulo_361481" data-name="Rectángulo 361481" width="2.54" height="8.11" transform="translate(407.15 206.03)" fill="#42566b"/>
          </g>
          <g id="Grupo_1028677" data-name="Grupo 1028677">
            <rect id="Rectángulo_361482" data-name="Rectángulo 361482" width="2.54" height="8.11" transform="translate(378.37 224.91)" fill="#42566b"/>
            <rect id="Rectángulo_361483" data-name="Rectángulo 361483" width="2.54" height="8.11" transform="translate(387.97 224.91)" fill="#42566b"/>
            <rect id="Rectángulo_361484" data-name="Rectángulo 361484" width="2.54" height="8.11" transform="translate(397.56 224.91)" fill="#42566b"/>
            <rect id="Rectángulo_361485" data-name="Rectángulo 361485" width="2.54" height="8.11" transform="translate(407.15 224.91)" fill="#42566b"/>
          </g>
          <g id="Grupo_1028678" data-name="Grupo 1028678">
            <rect id="Rectángulo_361486" data-name="Rectángulo 361486" width="2.54" height="8.11" transform="translate(378.37 243.8)" fill="#42566b"/>
            <rect id="Rectángulo_361487" data-name="Rectángulo 361487" width="2.54" height="8.11" transform="translate(387.97 243.8)" fill="#42566b"/>
            <rect id="Rectángulo_361488" data-name="Rectángulo 361488" width="2.54" height="8.11" transform="translate(397.56 243.8)" fill="#42566b"/>
            <rect id="Rectángulo_361489" data-name="Rectángulo 361489" width="2.54" height="8.11" transform="translate(407.15 243.8)" fill="#42566b"/>
          </g>
          <g id="Grupo_1028679" data-name="Grupo 1028679">
            <rect id="Rectángulo_361490" data-name="Rectángulo 361490" width="2.54" height="8.11" transform="translate(378.37 262.69)" fill="#42566b"/>
            <rect id="Rectángulo_361491" data-name="Rectángulo 361491" width="2.54" height="8.11" transform="translate(387.97 262.69)" fill="#42566b"/>
            <rect id="Rectángulo_361492" data-name="Rectángulo 361492" width="2.54" height="8.11" transform="translate(397.56 262.69)" fill="#42566b"/>
            <rect id="Rectángulo_361493" data-name="Rectángulo 361493" width="2.54" height="8.11" transform="translate(407.15 262.69)" fill="#42566b"/>
          </g>
          <g id="Grupo_1028680" data-name="Grupo 1028680">
            <path id="Trazado_775444" data-name="Trazado 775444" d="M412.13,146.81v-7.19H376.27v17.9Z" fill="#fff"/>
            <path id="Trazado_775445" data-name="Trazado 775445" d="M375,159.22V138.34h38.4v9.41L375,159.21Zm2.54-18.34v14.93l33.33-9.95v-4.98H377.54Z" fill="#42566b"/>
          </g>
          <path id="Trazado_775446" data-name="Trazado 775446" d="M395.3,310.68H383.82V284.35H395.3Zm-8.94-2.54h6.4V286.89h-6.4Z" fill="#42566b"/>
          <path id="Trazado_775447" data-name="Trazado 775447" d="M404.57,310.68H393.09V284.35h11.48Zm-8.94-2.54h6.4V286.89h-6.4Z" fill="#42566b"/>
          <g id="Grupo_1028686" data-name="Grupo 1028686">
            <g id="Grupo_1028681" data-name="Grupo 1028681">
              <rect id="Rectángulo_361494" data-name="Rectángulo 361494" width="109.93" height="46.73" transform="translate(254.88 262.69)" fill="#fff"/>
              <path id="Trazado_775448" data-name="Trazado 775448" d="M366.08,310.68H253.61V261.41H366.08Zm-109.93-2.54H363.54V263.95H256.15v44.19Z" fill="#42566b"/>
            </g>
            <g id="Grupo_1028685" data-name="Grupo 1028685">
              <g id="Grupo_1028682" data-name="Grupo 1028682">
                <rect id="Rectángulo_361495" data-name="Rectángulo 361495" width="6.54" height="2.54" transform="translate(264.72 271.19)" fill="#42566b"/>
                <rect id="Rectángulo_361496" data-name="Rectángulo 361496" width="6.54" height="2.54" transform="translate(278.1 271.19)" fill="#42566b"/>
                <rect id="Rectángulo_361497" data-name="Rectángulo 361497" width="6.54" height="2.54" transform="translate(291.47 271.19)" fill="#42566b"/>
                <rect id="Rectángulo_361498" data-name="Rectángulo 361498" width="6.54" height="2.54" transform="translate(304.85 271.19)" fill="#42566b"/>
                <rect id="Rectángulo_361499" data-name="Rectángulo 361499" width="6.54" height="2.54" transform="translate(318.22 271.19)" fill="#42566b"/>
                <rect id="Rectángulo_361500" data-name="Rectángulo 361500" width="6.54" height="2.54" transform="translate(331.59 271.19)" fill="#42566b"/>
                <rect id="Rectángulo_361501" data-name="Rectángulo 361501" width="6.54" height="2.54" transform="translate(344.97 271.19)" fill="#42566b"/>
              </g>
              <g id="Grupo_1028683" data-name="Grupo 1028683">
                <rect id="Rectángulo_361502" data-name="Rectángulo 361502" width="6.54" height="2.54" transform="translate(264.72 284.78)" fill="#42566b"/>
                <rect id="Rectángulo_361503" data-name="Rectángulo 361503" width="6.54" height="2.54" transform="translate(278.1 284.78)" fill="#42566b"/>
                <rect id="Rectángulo_361504" data-name="Rectángulo 361504" width="6.54" height="2.54" transform="translate(291.47 284.78)" fill="#42566b"/>
                <rect id="Rectángulo_361505" data-name="Rectángulo 361505" width="6.54" height="2.54" transform="translate(304.85 284.78)" fill="#42566b"/>
                <rect id="Rectángulo_361506" data-name="Rectángulo 361506" width="6.54" height="2.54" transform="translate(318.22 284.78)" fill="#42566b"/>
                <rect id="Rectángulo_361507" data-name="Rectángulo 361507" width="6.54" height="2.54" transform="translate(331.59 284.78)" fill="#42566b"/>
                <rect id="Rectángulo_361508" data-name="Rectángulo 361508" width="6.54" height="2.54" transform="translate(344.97 284.78)" fill="#42566b"/>
              </g>
              <g id="Grupo_1028684" data-name="Grupo 1028684">
                <rect id="Rectángulo_361509" data-name="Rectángulo 361509" width="6.54" height="2.54" transform="translate(264.72 298.37)" fill="#42566b"/>
                <rect id="Rectángulo_361510" data-name="Rectángulo 361510" width="6.54" height="2.54" transform="translate(278.1 298.37)" fill="#42566b"/>
                <rect id="Rectángulo_361511" data-name="Rectángulo 361511" width="6.54" height="2.54" transform="translate(291.47 298.37)" fill="#42566b"/>
                <rect id="Rectángulo_361512" data-name="Rectángulo 361512" width="6.54" height="2.54" transform="translate(304.85 298.37)" fill="#42566b"/>
                <rect id="Rectángulo_361513" data-name="Rectángulo 361513" width="6.54" height="2.54" transform="translate(318.22 298.37)" fill="#42566b"/>
                <rect id="Rectángulo_361514" data-name="Rectángulo 361514" width="6.54" height="2.54" transform="translate(331.59 298.37)" fill="#42566b"/>
                <rect id="Rectángulo_361515" data-name="Rectángulo 361515" width="6.54" height="2.54" transform="translate(344.97 298.37)" fill="#42566b"/>
              </g>
            </g>
          </g>
          <g id="Grupo_1028692" data-name="Grupo 1028692">
            <g id="Grupo_1028687" data-name="Grupo 1028687">
              <rect id="Rectángulo_361516" data-name="Rectángulo 361516" width="88.21" height="55.42" transform="translate(69.6 254)" fill="#fff"/>
              <path id="Trazado_775449" data-name="Trazado 775449" d="M159.07,310.68H68.32V252.72h90.75Zm-88.21-2.54h85.67V255.26H70.86v52.88Z" fill="#42566b"/>
            </g>
            <g id="Grupo_1028691" data-name="Grupo 1028691">
              <g id="Grupo_1028688" data-name="Grupo 1028688">
                <rect id="Rectángulo_361517" data-name="Rectángulo 361517" width="6.54" height="2.54" transform="translate(79.43 271.19)" fill="#42566b"/>
                <rect id="Rectángulo_361518" data-name="Rectángulo 361518" width="6.54" height="2.54" transform="translate(92.81 271.19)" fill="#42566b"/>
                <rect id="Rectángulo_361519" data-name="Rectángulo 361519" width="6.54" height="2.54" transform="translate(106.18 271.19)" fill="#42566b"/>
                <rect id="Rectángulo_361520" data-name="Rectángulo 361520" width="6.54" height="2.54" transform="translate(119.56 271.19)" fill="#42566b"/>
                <rect id="Rectángulo_361521" data-name="Rectángulo 361521" width="6.54" height="2.54" transform="translate(132.93 271.19)" fill="#42566b"/>
              </g>
              <g id="Grupo_1028689" data-name="Grupo 1028689">
                <rect id="Rectángulo_361522" data-name="Rectángulo 361522" width="6.54" height="2.54" transform="translate(79.43 284.78)" fill="#42566b"/>
                <rect id="Rectángulo_361523" data-name="Rectángulo 361523" width="6.54" height="2.54" transform="translate(92.81 284.78)" fill="#42566b"/>
                <rect id="Rectángulo_361524" data-name="Rectángulo 361524" width="6.54" height="2.54" transform="translate(106.18 284.78)" fill="#42566b"/>
                <rect id="Rectángulo_361525" data-name="Rectángulo 361525" width="6.54" height="2.54" transform="translate(119.56 284.78)" fill="#42566b"/>
                <rect id="Rectángulo_361526" data-name="Rectángulo 361526" width="6.54" height="2.54" transform="translate(132.93 284.78)" fill="#42566b"/>
              </g>
              <g id="Grupo_1028690" data-name="Grupo 1028690">
                <rect id="Rectángulo_361527" data-name="Rectángulo 361527" width="6.54" height="2.54" transform="translate(79.43 298.37)" fill="#42566b"/>
                <rect id="Rectángulo_361528" data-name="Rectángulo 361528" width="6.54" height="2.54" transform="translate(92.81 298.37)" fill="#42566b"/>
                <rect id="Rectángulo_361529" data-name="Rectángulo 361529" width="6.54" height="2.54" transform="translate(106.18 298.37)" fill="#42566b"/>
                <rect id="Rectángulo_361530" data-name="Rectángulo 361530" width="6.54" height="2.54" transform="translate(119.56 298.37)" fill="#42566b"/>
                <rect id="Rectángulo_361531" data-name="Rectángulo 361531" width="6.54" height="2.54" transform="translate(132.93 298.37)" fill="#42566b"/>
              </g>
            </g>
          </g>
        </g>
        <g id="Grupo_1028697" data-name="Grupo 1028697">
          <path id="Trazado_775450" data-name="Trazado 775450" d="M118.98,163.86c-.06-.26-.46-.15-.4.11q1.2,5.025,2.41,10.06c.06.26.46.15.4-.11Q120.19,168.895,118.98,163.86Z" fill="#42566b"/>
          <path id="Trazado_775451" data-name="Trazado 775451" d="M129,163.88c.06-.26.46-.15.4.11q-1.2,5.025-2.41,10.06c-.06.26-.46.15-.4-.11q1.2-5.025,2.41-10.06Z" fill="#42566b"/>
          <g id="Grupo_1028694" data-name="Grupo 1028694">
            <path id="Trazado_775452" data-name="Trazado 775452" d="M120.45,174.31h-1.06v4.92a2.415,2.415,0,0,0,2.55,2.25h4.21a2.415,2.415,0,0,0,2.55-2.25v-4.92Z" fill="#fdbe11"/>
            <path id="Trazado_775453" data-name="Trazado 775453" d="M126.15,182.75h-4.21a3.682,3.682,0,0,1-3.82-3.52v-4.92a1.272,1.272,0,0,1,1.27-1.27h9.31a1.272,1.272,0,0,1,1.27,1.27v4.92A3.682,3.682,0,0,1,126.15,182.75Zm-5.49-7.17v3.65a1.18,1.18,0,0,0,1.28.98h4.21a1.173,1.173,0,0,0,1.28-.98v-3.65Z" fill="#42566b"/>
          </g>
          <g id="Grupo_1028695" data-name="Grupo 1028695">
            <path id="Trazado_775454" data-name="Trazado 775454" d="M131.97,159.94l-.02.16-.12.75-.69,4.34H116.82l-.02-.12h0l-.79-4.96-.02-.16h15.98Z" fill="#fff"/>
            <path id="Trazado_775455" data-name="Trazado 775455" d="M131.14,166.45H116.82a1.271,1.271,0,0,1-1.26-1.09h0a1.25,1.25,0,0,1-.03-.19l-.8-5.04a1.256,1.256,0,0,1,.29-1.02,1.277,1.277,0,0,1,.97-.45h15.98a1.278,1.278,0,0,1,1.26,1.47l-.83,5.25a1.267,1.267,0,0,1-1.25,1.07Zm-13.23-2.54h12.15l.43-2.71H117.48l.43,2.71Z" fill="#42566b"/>
          </g>
          <path id="Trazado_775456" data-name="Trazado 775456" d="M130.77,165.07c.08-.25.48-.16.4.09-.89,2.97-1.78,5.95-2.67,8.92-.08.25-.48.16-.4-.09C128.99,171.02,129.88,168.04,130.77,165.07Z" fill="#42566b"/>
          <path id="Trazado_775457" data-name="Trazado 775457" d="M117.21,165.06c-.08-.25-.48-.16-.4.09.89,2.97,1.78,5.95,2.67,8.92.08.25.48.16.4-.09C118.99,171.01,118.1,168.03,117.21,165.06Z" fill="#42566b"/>
          <g id="Grupo_1028696" data-name="Grupo 1028696">
            <path id="Trazado_775458" data-name="Trazado 775458" d="M116.02,160.1l1.21,1.18h13.51C243.44,51.94,6.75,53.79,116.02,160.1Z" fill="#fe502d"/>
            <path id="Trazado_775459" data-name="Trazado 775459" d="M130.74,162.54H117.23a1.29,1.29,0,0,1-.89-.36l-1.21-1.17C83.61,130.34,82.5,110.36,87.12,98.99c5.05-12.42,19.84-20.45,37.69-20.45h.04c17.31.01,31.62,7.76,36.48,19.74,4.65,11.49,3.28,31.9-29.7,63.9a1.267,1.267,0,0,1-.88.36ZM117.75,160h12.48c24.67-24.05,34.88-45.62,28.75-60.77-4.46-11.01-17.86-18.14-34.12-18.15h-.04c-16.81,0-30.68,7.4-35.34,18.86-6.12,15.04,3.63,36.08,27.43,59.24h0l.84.81Z" fill="#42566b"/>
          </g>
          <path id="Trazado_775460" data-name="Trazado 775460" d="M118.58,162.54a1.249,1.249,0,0,1-.99-.48c-39.02-48.69-25.69-63.9-11.57-80a1.269,1.269,0,1,1,1.91,1.67c-13.4,15.28-26.05,29.71,11.65,76.74a1.259,1.259,0,0,1-.2,1.78,1.232,1.232,0,0,1-.79.28Z" fill="#42566b"/>
          <path id="Trazado_775461" data-name="Trazado 775461" d="M131.95,161.37a1.265,1.265,0,0,1-.84-2.21c20.15-18.1,22.83-43.86,18.62-61.93-1.86-8-4.55-11.99-5.51-12.26a1.273,1.273,0,1,1,.69-2.45c3.16.89,5.91,8.17,7.29,14.13,4.37,18.78,1.57,45.55-19.4,64.39a1.253,1.253,0,0,1-.85.32Z" fill="#42566b"/>
          <path id="Trazado_775462" data-name="Trazado 775462" d="M120.22,162.54a1.284,1.284,0,0,1-1-.48c-22.7-28.86-17.7-64.64-11.93-76.54,1.81-3.72,3.81-5.69,5.81-5.7h0a1.27,1.27,0,0,1,0,2.54c-.54,0-1.9.9-3.53,4.27-5.55,11.44-10.32,45.93,11.65,73.86a1.265,1.265,0,0,1-.99,2.05Z" fill="#42566b"/>
          <path id="Trazado_775463" data-name="Trazado 775463" d="M129.39,162.54a1.188,1.188,0,0,1-.76-.26,1.274,1.274,0,0,1-.25-1.78c20.45-27.04,16.56-60.89,11.47-73.05-1.62-3.88-3.04-5.03-3.56-5.1a1.266,1.266,0,1,1,.33-2.51c2.44.32,4.38,3.79,5.57,6.64,6.25,14.93,8.57,48.65-11.79,75.57a1.264,1.264,0,0,1-1.01.5Z" fill="#42566b"/>
          <path id="Trazado_775464" data-name="Trazado 775464" d="M121.74,162.54a1.253,1.253,0,0,1-1.15-.74c-15.64-33.82-4.3-80.89-4.19-81.36a1.272,1.272,0,1,1,2.47.61c-.11.46-11.24,46.69,4.03,79.69a1.262,1.262,0,0,1-.62,1.68,1.242,1.242,0,0,1-.53.12Z" fill="#42566b"/>
          <path id="Trazado_775465" data-name="Trazado 775465" d="M127.76,162.54a1.359,1.359,0,0,1-.48-.09,1.269,1.269,0,0,1-.69-1.66c13.96-34.1,2.64-79.67,2.53-80.12a1.268,1.268,0,1,1,2.46-.62c.12.46,11.64,46.84-2.64,81.71a1.278,1.278,0,0,1-1.18.79Z" fill="#42566b"/>
          <path id="Trazado_775466" data-name="Trazado 775466" d="M123.99,162.54a1.272,1.272,0,0,1-1.27-1.27V79.82a1.27,1.27,0,1,1,2.54,0v81.45A1.272,1.272,0,0,1,123.99,162.54Z" fill="#42566b"/>
        </g>
        <path id="Trazado_775467" data-name="Trazado 775467" d="M477.21,192.51a6.98,6.98,0,1,1,6.98-6.98A6.986,6.986,0,0,1,477.21,192.51Zm0-11.43a4.44,4.44,0,1,0,4.44,4.44A4.443,4.443,0,0,0,477.21,181.08Z" fill="#bfdeff"/>
        <g id="Grupo_1028698" data-name="Grupo 1028698">
          <path id="Trazado_775468" data-name="Trazado 775468" d="M483.48,166.17H472.89a1.27,1.27,0,0,1,0-2.54h10.59a1.27,1.27,0,0,1,0,2.54Z" fill="#bfdeff"/>
          <path id="Trazado_775469" data-name="Trazado 775469" d="M492.34,166.17h-5.87a1.27,1.27,0,0,1,0-2.54h5.87a1.27,1.27,0,0,1,0,2.54Z" fill="#bfdeff"/>
        </g>
        <g id="Grupo_1028702" data-name="Grupo 1028702">
          <g id="Grupo_1028699" data-name="Grupo 1028699">
            <rect id="Rectángulo_361532" data-name="Rectángulo 361532" width="73.42" height="22.09" transform="translate(22.76 243.91)" fill="#fe502d"/>
            <path id="Trazado_775470" data-name="Trazado 775470" d="M96.18,267.27H22.76A1.272,1.272,0,0,1,21.49,266V243.91a1.272,1.272,0,0,1,1.27-1.27H96.18a1.272,1.272,0,0,1,1.27,1.27V266A1.272,1.272,0,0,1,96.18,267.27Zm-72.15-2.54H94.91V245.18H24.03v19.55Z" fill="#42566b"/>
          </g>
          <g id="Grupo_1028701" data-name="Grupo 1028701">
            <rect id="Rectángulo_361533" data-name="Rectángulo 361533" width="9.91" height="2.54" transform="translate(53.53 256.42)" fill="#42566b"/>
            <g id="Grupo_1028700" data-name="Grupo 1028700">
              <rect id="Rectángulo_361534" data-name="Rectángulo 361534" width="9.91" height="2.54" transform="translate(53.53 250.95)" fill="#42566b"/>
              <rect id="Rectángulo_361535" data-name="Rectángulo 361535" width="18.71" height="2.54" transform="translate(67.21 250.95)" fill="#42566b"/>
              <rect id="Rectángulo_361536" data-name="Rectángulo 361536" width="18.71" height="2.54" transform="translate(67.21 256.42)" fill="#42566b"/>
            </g>
          </g>
          <path id="Trazado_775471" data-name="Trazado 775471" d="M39.87,261.13l-11.5-9.41,2.41-2.94,7.76,6.35,7.75-16.01,3.43,1.66Z" fill="#4975bf"/>
        </g>
        <g id="Grupo_1028704" data-name="Grupo 1028704">
          <g id="Grupo_1028703" data-name="Grupo 1028703">
            <path id="Trazado_775472" data-name="Trazado 775472" d="M494.53,213.54H457.19a5.224,5.224,0,0,0-5.22,5.22v21.59a5.224,5.224,0,0,0,5.22,5.22h3.47v9.56a1.215,1.215,0,0,0,2.07.86l10.42-10.42h21.38a5.224,5.224,0,0,0,5.22-5.22V218.76a5.224,5.224,0,0,0-5.22-5.22Z" fill="#fff"/>
            <path id="Trazado_775473" data-name="Trazado 775473" d="M461.87,257.61a2.406,2.406,0,0,1-.95-.19,2.482,2.482,0,0,1-1.53-2.29v-8.29h-2.2a6.5,6.5,0,0,1-6.49-6.49V218.76a6.5,6.5,0,0,1,6.49-6.49h37.34a6.5,6.5,0,0,1,6.49,6.49v21.59a6.5,6.5,0,0,1-6.49,6.49H473.67l-10.04,10.04a2.469,2.469,0,0,1-1.75.73Zm-4.68-42.8a3.952,3.952,0,0,0-3.95,3.95v21.59a3.952,3.952,0,0,0,3.95,3.95h4.74v10.83l10.69-10.83h21.91a3.952,3.952,0,0,0,3.95-3.95V218.76a3.952,3.952,0,0,0-3.95-3.95Z" fill="#42566b"/>
          </g>
          <rect id="Rectángulo_361537" data-name="Rectángulo 361537" width="17.92" height="2.54" transform="translate(459.57 219.87)" fill="#42566b"/>
          <rect id="Rectángulo_361538" data-name="Rectángulo 361538" width="33.12" height="2.54" transform="translate(459.57 225.84)" fill="#42566b"/>
          <rect id="Rectángulo_361539" data-name="Rectángulo 361539" width="33.12" height="2.54" transform="translate(459.57 231.27)" fill="#42566b"/>
          <rect id="Rectángulo_361540" data-name="Rectángulo 361540" width="33.12" height="2.54" transform="translate(460.2 236.7)" fill="#42566b"/>
          <circle id="Elipse_8749" data-name="Elipse 8749" cx="10.32" cy="10.32" r="10.32" transform="translate(484.07 214.63) rotate(-45)" fill="#4975bf"/>
          <path id="Trazado_775474" data-name="Trazado 775474" d="M498.51,210.05a.157.157,0,0,1,.3,0l1,3.07a.4.4,0,0,0,.39.28h3.22a.15.15,0,0,1,.15.11.157.157,0,0,1-.06.18l-2.61,1.89a.423.423,0,0,0-.15.46l1,3.07a.157.157,0,0,1-.06.18.165.165,0,0,1-.19,0l-2.61-1.89a.421.421,0,0,0-.48,0l-2.61,1.89a.165.165,0,0,1-.19,0,.157.157,0,0,1-.06-.18l1-3.07a.413.413,0,0,0-.15-.46l-2.61-1.89a.157.157,0,0,1-.06-.18.15.15,0,0,1,.15-.11h3.22a.4.4,0,0,0,.39-.28l1-3.07Z" fill="#fff"/>
        </g>
        <g id="Grupo_1028712" data-name="Grupo 1028712">
          <g id="Grupo_1028711" data-name="Grupo 1028711">
            <g id="Grupo_1028705" data-name="Grupo 1028705">
              <path id="Trazado_775475" data-name="Trazado 775475" d="M234,77.35,215.58,88.32v14.27l21.26-13.22Z" fill="#fff"/>
              <path id="Trazado_775476" data-name="Trazado 775476" d="M214.31,104.87V87.6l20.53-12.23,3.45,14.6-23.98,14.91Zm2.54-15.83V100.3L235.4,88.77l-2.23-9.45-16.31,9.72Z" fill="#42566b"/>
            </g>
            <g id="Grupo_1028706" data-name="Grupo 1028706">
              <path id="Trazado_775477" data-name="Trazado 775477" d="M211.31,90.79v14.82l5.05,3.29,6.99-1.75V83.69Z" fill="#fff"/>
              <path id="Trazado_775478" data-name="Trazado 775478" d="M216.13,110.27l-6.08-3.97V90.07l14.58-8.6v26.68Zm-3.54-5.35,4,2.61,5.5-1.37V85.91l-9.5,5.6v13.4Z" fill="#42566b"/>
            </g>
            <g id="Grupo_1028707" data-name="Grupo 1028707">
              <path id="Trazado_775479" data-name="Trazado 775479" d="M253.04,77.35l18.42,10.97v14.27L250.2,89.37Z" fill="#fff"/>
              <path id="Trazado_775480" data-name="Trazado 775480" d="M272.73,104.87,248.75,89.96l3.45-14.6,20.53,12.23v17.27Zm-21.09-16.1,18.55,11.53V89.04l-16.31-9.72-2.23,9.45Z" fill="#42566b"/>
            </g>
            <g id="Grupo_1028708" data-name="Grupo 1028708">
              <path id="Trazado_775481" data-name="Trazado 775481" d="M275.73,90.79v14.82l-5.05,3.29-6.99-1.75V83.69Z" fill="#fff"/>
              <path id="Trazado_775482" data-name="Trazado 775482" d="M270.91,110.27l-8.5-2.12V81.47l14.58,8.6V106.3l-6.08,3.97Zm-5.96-4.11,5.5,1.37,4-2.61V91.52l-9.5-5.6v20.25Z" fill="#42566b"/>
            </g>
            <g id="Grupo_1028709" data-name="Grupo 1028709">
              <path id="Trazado_775483" data-name="Trazado 775483" d="M255.73,97c-1.43-18.76-3.96-30.6-10.51-45.64a1.6,1.6,0,0,0-3.12,0C235.55,66.4,233.02,78.24,231.59,97" fill="#fff"/>
              <path id="Trazado_775484" data-name="Trazado 775484" d="M254.46,97.1c-1.48-19.34-4.11-30.75-10.41-45.23-.24-.56-.54-.56-.79,0-6.31,14.48-8.93,25.89-10.41,45.23l-2.53-.19c1.5-19.66,4.18-31.28,10.62-46.05a2.85,2.85,0,0,1,5.44,0c6.43,14.77,9.11,26.4,10.62,46.05l-2.53.19Z" fill="#42566b"/>
            </g>
            <g id="Grupo_1028710" data-name="Grupo 1028710">
              <path id="Trazado_775485" data-name="Trazado 775485" d="M243.66,99.88c-6.67,0-12.07-1.29-12.07-2.88s5.41-2.88,12.07-2.88,12.07,1.29,12.07,2.88S250.32,99.88,243.66,99.88Z" fill="#fff"/>
              <path id="Trazado_775486" data-name="Trazado 775486" d="M243.66,101.15c-2.23,0-13.34-.2-13.34-4.15s11.11-4.15,13.34-4.15S257,93.05,257,97,245.89,101.15,243.66,101.15ZM233.11,97c1.11.66,4.74,1.61,10.55,1.61s9.44-.95,10.55-1.61c-1.11-.66-4.74-1.61-10.55-1.61S234.22,96.34,233.11,97Z" fill="#42566b"/>
            </g>
            <path id="Trazado_775487" data-name="Trazado 775487" d="M243.66,98.23A30.888,30.888,0,0,1,234.02,97a38.391,38.391,0,0,1,19.28,0A30.836,30.836,0,0,1,243.66,98.23Z" fill="#bfdeff"/>
            <path id="Trazado_775488" data-name="Trazado 775488" d="M243.66,126.26c-5.26-10.89-12.14-29.94,0-29.94C257.03,96.32,247.71,117.89,243.66,126.26Z" fill="#fe502d"/>
            <path id="Trazado_775489" data-name="Trazado 775489" d="M243.68,117.48c-3.65-9.43-3.74-14.83-2.6-16.65.18-.29.62-.98,2.58-.98,2.14,0,2.6.73,2.79,1.04,1.17,1.86.96,7.16-2.77,16.6Z" fill="#fff"/>
            <path id="Trazado_775490" data-name="Trazado 775490" d="M247.73,73.13a4.21,4.21,0,1,1-4.21-4.21A4.21,4.21,0,0,1,247.73,73.13Z" fill="#fe502d"/>
          </g>
          <path id="Trazado_775491" data-name="Trazado 775491" d="M214.67,215.79l-2.51-.39.39-2.51,2.51.39Zm.79-5.02-2.51-.39.39-2.51,2.51.39Zm.79-5.02-2.51-.39.39-2.51,2.51.39Zm.79-5.02-2.51-.39.39-2.51,2.51.39Zm.79-5.02-2.51-.39.39-2.51,2.51.39Zm.79-5.02-2.51-.39.39-2.51,2.51.39Zm.79-5.02-2.51-.39.39-2.51,2.51.39Zm.79-5.02-2.51-.39.39-2.51,2.51.39Zm.79-5.02-2.51-.39.39-2.51,2.51.39Zm.79-5.02-2.51-.39.39-2.51,2.51.39Zm.79-5.02-2.51-.39.39-2.51,2.51.39Zm.79-5.02-2.51-.39.39-2.51,2.51.39Zm.79-5.02-2.51-.39.39-2.51,2.51.39Zm.79-5.02-2.51-.39.39-2.51,2.51.39Zm.79-5.02-2.51-.39.39-2.51,2.51.39Zm.79-5.02-2.51-.39.39-2.51,2.51.39Zm.79-5.02-2.51-.39.39-2.51,2.51.39Zm.79-5.02-2.51-.39.39-2.51,2.51.39Zm.79-5.02-2.51-.39.39-2.51,2.51.39Zm.79-5.02-2.51-.39.39-2.51,2.51.39Zm.79-5.02-2.51-.39.39-2.51,2.51.39Zm.79-5.02-2.51-.39.39-2.51,2.51.39Zm.79-5.02-2.51-.39.39-2.51,2.51.39Z" fill="#00a0d8"/>
          <path id="Trazado_775492" data-name="Trazado 775492" d="M277.25,235.76l-.4-2.51,2.51-.4.4,2.51Zm-.81-5.01-.4-2.51,2.51-.4.4,2.51Zm-.81-5.01-.4-2.51,2.51-.4.4,2.51Zm-.81-5.01-.41-2.51,2.51-.4.41,2.51Zm-.81-5.01-.4-2.51,2.51-.4.4,2.51Zm-.81-5.01-.4-2.51,2.51-.4.4,2.51Zm-.81-5.01-.41-2.51,2.51-.4.41,2.51Zm-.81-5.01-.4-2.51,2.51-.4.4,2.51Zm-.81-5.01-.4-2.51,2.51-.4.4,2.51Zm-.81-5.01-.4-2.51,2.51-.4.4,2.51Zm-.81-5.01-.41-2.51,2.51-.4.41,2.51Zm-.81-5.01-.4-2.51,2.51-.4.4,2.51Zm-.81-5.01-.4-2.51,2.51-.4.4,2.51Zm-.81-5.01-.41-2.51,2.51-.4.41,2.51Zm-.81-5.01-.4-2.51,2.51-.4.4,2.51Zm-.81-5.01-.4-2.51,2.51-.4.4,2.51Zm-.81-5.01-.4-2.51,2.51-.4.4,2.51Zm-.81-5.01-.41-2.51,2.51-.4.41,2.51Zm-.81-5.01-.4-2.51,2.51-.4.4,2.51Zm-.81-5.01-.4-2.51,2.51-.4.4,2.51Zm-.81-5.01-.41-2.51,2.51-.41.41,2.51Zm-.81-5.01-.4-2.51,2.51-.41.4,2.51Zm-.81-5.01-.4-2.51,2.51-.4.4,2.51Zm-.81-5.01-.4-2.51,2.51-.4.4,2.51Zm-.81-5.01-.41-2.51,2.51-.41.41,2.51Zm-.81-5.01-.4-2.51,2.51-.4.4,2.51Zm-.81-5.01-.4-2.51,2.51-.4.4,2.51Z" fill="#00a0d8"/>
          <path id="Trazado_775493" data-name="Trazado 775493" d="M256.1,196.84l-.37-2.51,2.51-.37.37,2.51Zm-.75-5.02-.37-2.51,2.51-.37.37,2.51-2.51.37Zm-.75-5.02-.37-2.51,2.51-.37.37,2.51-2.51.37Zm-.75-5.02-.37-2.51,2.51-.37.37,2.51-2.51.37Zm-.75-5.02-.37-2.51,2.51-.37.37,2.51Zm-.75-5.02-.37-2.51,2.51-.37.37,2.51Zm-.75-5.02-.37-2.51,2.51-.37.37,2.51Zm-.75-5.02-.37-2.51,2.51-.37.37,2.51Zm-.75-5.02-.37-2.51,2.51-.37.37,2.51Zm-.75-5.02-.37-2.51,2.51-.37.37,2.51Zm-.75-5.02-.37-2.51,2.51-.37.37,2.51Zm-.75-5.02-.37-2.51,2.51-.37.37,2.51Zm-.75-5.02-.37-2.51,2.51-.37.37,2.51Z" fill="#00a0d8"/>
          <path id="Trazado_775494" data-name="Trazado 775494" d="M230.78,199.88l-2.51-.37.08-.52,2.51.37Zm.45-3.03-2.51-.37.37-2.51,2.51.37Zm.75-5.02-2.51-.37.37-2.51,2.51.37Zm.75-5.02-2.51-.37.37-2.51,2.51.37Zm.75-5.02-2.51-.37.37-2.51,2.51.37Zm.75-5.02-2.51-.37.37-2.51,2.51.37Zm.75-5.02-2.51-.37.37-2.51,2.51.37Zm.75-5.02-2.51-.37.37-2.51,2.51.37Zm.75-5.02-2.51-.37.37-2.51,2.51.37Zm.75-5.02-2.51-.37.37-2.51,2.51.37Zm.75-5.02-2.51-.37.37-2.51,2.51.37Zm.75-5.02-2.51-.37.37-2.51,2.51.37Zm.75-5.02-2.51-.37.37-2.51,2.51.37Zm.75-5.02-2.51-.37.37-2.51,2.51.37Z" fill="#00a0d8"/>
        </g>
        <g id="Grupo_1028719" data-name="Grupo 1028719">
          <g id="Grupo_1028717" data-name="Grupo 1028717">
            <g id="Grupo_1028713" data-name="Grupo 1028713">
              <path id="Trazado_775495" data-name="Trazado 775495" d="M406.88,159.71h31.51a14.045,14.045,0,0,1,14.04,14.04v2.69a14.045,14.045,0,0,1-14.04,14.04H406.88V159.72h0Z" transform="translate(604.74 -254.56) rotate(90)" fill="#fdbe11"/>
              <path id="Trazado_775496" data-name="Trazado 775496" d="M431,199.13h-2.69A15.33,15.33,0,0,1,413,183.82V152.31a1.272,1.272,0,0,1,1.27-1.27h30.76a1.272,1.272,0,0,1,1.27,1.27v31.51a15.33,15.33,0,0,1-15.31,15.31Zm-15.45-45.54v30.24a12.786,12.786,0,0,0,12.77,12.77h2.69a12.786,12.786,0,0,0,12.77-12.77V153.59H415.56Z" fill="#42566b"/>
            </g>
            <path id="Trazado_775497" data-name="Trazado 775497" d="M428.75,195.01h0a13.23,13.23,0,0,1-4.16-.66,9.987,9.987,0,0,1-4.72-3.24,1.371,1.371,0,0,1-.27-.94,1.283,1.283,0,0,1,.47-.85,1.321,1.321,0,0,1,1.79.2,7.463,7.463,0,0,0,3.54,2.41,10.511,10.511,0,0,0,3.31.53h.04a.01.01,0,0,1,.01.01,1.261,1.261,0,0,1,1.26,1.26,1.278,1.278,0,0,1-1.27,1.27Zm-9.57-6.81a1.263,1.263,0,0,1-1.22-.93,1.259,1.259,0,0,1,.87-1.56,1.271,1.271,0,0,1,.68,2.45,1.97,1.97,0,0,1-.34.04Zm-.49-5.03a1.265,1.265,0,0,1-1.27-1.27v-8.89a1.265,1.265,0,1,1,2.53,0v8.89A1.263,1.263,0,0,1,418.69,183.17Zm0-12.7a1.27,1.27,0,1,1,1.26-1.27A1.265,1.265,0,0,1,418.69,170.47Zm0-5.08a1.265,1.265,0,0,1-1.27-1.27v-4.43a1.265,1.265,0,1,1,2.53,0v4.43A1.263,1.263,0,0,1,418.69,165.39Z" fill="#42566b"/>
            <path id="Trazado_775498" data-name="Trazado 775498" d="M413.8,184.91c-7.48-3.01-12.51-10.77-12.51-19.31v-8.27h12.99v2.54H403.83v5.73c0,7.51,4.39,14.32,10.92,16.95l-.95,2.36Z" fill="#42566b"/>
            <path id="Trazado_775499" data-name="Trazado 775499" d="M445.51,184.91l-.95-2.36c6.53-2.63,10.92-9.44,10.92-16.95v-5.73H445.03v-2.54h12.99v8.27c0,8.54-5.03,16.3-12.51,19.31Z" fill="#42566b"/>
            <g id="Grupo_1028714" data-name="Grupo 1028714">
              <path id="Trazado_775500" data-name="Trazado 775500" d="M427.27,222.2l-1.61-24.46h7.99l-1.62,24.46Z" fill="#fdbe11"/>
              <path id="Trazado_775501" data-name="Trazado 775501" d="M432.03,223.47h-4.76a1.277,1.277,0,0,1-1.27-1.19l-1.61-24.46a1.285,1.285,0,0,1,.34-.95,1.263,1.263,0,0,1,.93-.4h7.99a1.263,1.263,0,0,1,.93.4,1.285,1.285,0,0,1,.34.95l-1.61,24.46a1.27,1.27,0,0,1-1.27,1.19Zm-3.57-2.54h2.38l1.45-21.92h-5.27l1.45,21.92Z" fill="#42566b"/>
            </g>
            <g id="Grupo_1028715" data-name="Grupo 1028715">
              <path id="Trazado_775502" data-name="Trazado 775502" d="M429.89,219.95h3v10.99h-3a3.472,3.472,0,0,1-3.47-3.47v-4.04a3.472,3.472,0,0,1,3.47-3.47Z" transform="translate(655.1 -204.21) rotate(90)" fill="#fff"/>
              <path id="Trazado_775503" data-name="Trazado 775503" d="M436.42,229.95H422.9v-4.27a4.744,4.744,0,0,1,4.74-4.74h4.04a4.744,4.744,0,0,1,4.74,4.74Zm-10.99-2.54h8.45v-1.73a2.211,2.211,0,0,0-2.21-2.21h-4.04a2.2,2.2,0,0,0-2.2,2.21Z" fill="#42566b"/>
            </g>
            <g id="Grupo_1028716" data-name="Grupo 1028716">
              <rect id="Rectángulo_361541" data-name="Rectángulo 361541" width="5.82" height="19.53" transform="translate(439.42 228.68) rotate(90)" fill="#fdbe11"/>
              <path id="Trazado_775504" data-name="Trazado 775504" d="M439.42,235.78H419.89a1.272,1.272,0,0,1-1.27-1.27v-5.82a1.272,1.272,0,0,1,1.27-1.27h19.53a1.272,1.272,0,0,1,1.27,1.27v5.82A1.272,1.272,0,0,1,439.42,235.78Zm-18.26-2.54h16.99v-3.29H421.16Z" fill="#42566b"/>
            </g>
            <path id="Trazado_775505" data-name="Trazado 775505" d="M431.37,157.26a1.27,1.27,0,1,1,1.27-1.27A1.272,1.272,0,0,1,431.37,157.26Zm-3.81,0h-8.89a1.27,1.27,0,0,1,0-2.54h8.89a1.27,1.27,0,0,1,0,2.54Z" fill="#42566b"/>
          </g>
          <g id="Grupo_1028718" data-name="Grupo 1028718">
            <rect id="Rectángulo_361542" data-name="Rectángulo 361542" width="28.29" height="74.7" transform="translate(415.51 234.71)" fill="#fff"/>
            <path id="Trazado_775506" data-name="Trazado 775506" d="M445.07,310.68H414.25V233.44h30.82Zm-28.29-2.54h25.75V235.97H416.78Z" fill="#42566b"/>
          </g>
        </g>
        <g id="Grupo_1028720" data-name="Grupo 1028720">
          <path id="Trazado_775507" data-name="Trazado 775507" d="M68.08,181.44l2.11,4.29,4.74.69-3.43,3.34.81,4.71-4.23-2.23-4.24,2.23.81-4.71-3.43-3.34,4.74-.69Z" fill="#fdbe11"/>
          <path id="Trazado_775508" data-name="Trazado 775508" d="M45.75,156.7l3.45,3.31,4.69-.97-2.08,4.31,2.37,4.15-4.74-.64-3.21,3.54-.86-4.71-4.36-1.96,4.21-2.27Z" fill="#fdbe11"/>
          <path id="Trazado_775509" data-name="Trazado 775509" d="M93.44,151.66l.53,4.76,4.21,2.27-4.36,1.96-.85,4.71-3.22-3.54-4.74.64,2.37-4.15L85.3,154l4.69.97Z" fill="#fdbe11"/>
          <rect id="Rectángulo_361543" data-name="Rectángulo 361543" width="2.54" height="46.95" transform="translate(50.104 171.261) rotate(-10.65)" fill="#4975bf"/>
          <rect id="Rectángulo_361544" data-name="Rectángulo 361544" width="51.3" height="2.54" transform="translate(74.343 216.395) rotate(-76.1)" fill="#4975bf"/>
        </g>
        <g id="Grupo_1028734" data-name="Grupo 1028734">
          <g id="Grupo_1028724" data-name="Grupo 1028724">
            <g id="Grupo_1028721" data-name="Grupo 1028721">
              <rect id="Rectángulo_361545" data-name="Rectángulo 361545" width="189.75" height="118.53" transform="translate(145.27 181.45)" fill="#fff"/>
              <path id="Trazado_775510" data-name="Trazado 775510" d="M336.29,301.24H144V180.17H336.29ZM146.54,298.7H333.75V182.71H146.54V298.7Z" fill="#42566b"/>
            </g>
            <g id="Grupo_1028722" data-name="Grupo 1028722">
              <rect id="Rectángulo_361546" data-name="Rectángulo 361546" width="189.75" height="9.44" transform="translate(145.27 172)" fill="#fff"/>
              <path id="Trazado_775511" data-name="Trazado 775511" d="M336.29,182.72H144V170.74H336.29Zm-189.75-2.54H333.75v-6.9H146.54v6.9Z" fill="#42566b"/>
            </g>
            <g id="Grupo_1028723" data-name="Grupo 1028723">
              <rect id="Rectángulo_361547" data-name="Rectángulo 361547" width="189.75" height="9.44" transform="translate(145.27 299.97)" fill="#fff"/>
              <path id="Trazado_775512" data-name="Trazado 775512" d="M336.29,310.68H144V298.7H336.29Zm-189.75-2.54H333.75v-6.9H146.54v6.9Z" fill="#42566b"/>
            </g>
            <path id="Trazado_775513" data-name="Trazado 775513" d="M313.34,289.82H163.92v-95.8H313.34Zm-146.89-2.54H310.8V196.55H166.45v90.73Z" fill="#bfdeff"/>
            <rect id="Rectángulo_361548" data-name="Rectángulo 361548" width="2.54" height="92.25" transform="translate(178.57 195.29)" fill="#bfdeff"/>
            <rect id="Rectángulo_361549" data-name="Rectángulo 361549" width="2.54" height="93.26" transform="translate(193.22 195.29)" fill="#bfdeff"/>
            <rect id="Rectángulo_361550" data-name="Rectángulo 361550" width="2.54" height="93.26" transform="translate(207.88 195.29)" fill="#bfdeff"/>
            <rect id="Rectángulo_361551" data-name="Rectángulo 361551" width="2.54" height="93.26" transform="translate(222.53 195.29)" fill="#bfdeff"/>
            <rect id="Rectángulo_361552" data-name="Rectángulo 361552" width="2.54" height="93.26" transform="translate(237.19 195.29)" fill="#bfdeff"/>
            <rect id="Rectángulo_361553" data-name="Rectángulo 361553" width="2.54" height="93.26" transform="translate(251.84 195.29)" fill="#bfdeff"/>
            <rect id="Rectángulo_361554" data-name="Rectángulo 361554" width="2.54" height="93.26" transform="translate(266.5 195.29)" fill="#bfdeff"/>
            <rect id="Rectángulo_361555" data-name="Rectángulo 361555" width="2.54" height="93.26" transform="translate(281.15 195.29)" fill="#bfdeff"/>
            <rect id="Rectángulo_361556" data-name="Rectángulo 361556" width="2.54" height="93.26" transform="translate(295.81 195.29)" fill="#bfdeff"/>
          </g>
          <path id="Trazado_775514" data-name="Trazado 775514" d="M295.85,247.17l2.25,2.25,2.22-2.22.75.75-2.22,2.22,2.28,2.28-.75.75-2.28-2.28-2.22,2.22-.75-.75,2.22-2.22-2.25-2.25Z" fill="#42566b"/>
          <path id="Trazado_775515" data-name="Trazado 775515" d="M250.84,216.77l2.25,2.25,2.22-2.22.75.75-2.22,2.22,2.28,2.28-.75.75-2.28-2.28-2.22,2.22-.75-.75,2.22-2.22-2.25-2.25Z" fill="#42566b"/>
          <path id="Trazado_775516" data-name="Trazado 775516" d="M192.22,209.73l2.25,2.25,2.22-2.22.75.75-2.22,2.22,2.28,2.28-.75.75-2.28-2.28-2.22,2.22-.75-.75,2.22-2.22-2.25-2.25Z" fill="#42566b"/>
          <g id="Grupo_1028725" data-name="Grupo 1028725">
            <rect id="Rectángulo_361557" data-name="Rectángulo 361557" width="2.54" height="2.54" transform="translate(295.288 208.368) rotate(-31.15)" fill="#4975bf"/>
            <path id="Trazado_775517" data-name="Trazado 775517" d="M214.3,250.66l-1.14-2.27,4.62-2.33,1.14,2.27Zm6.93-3.5-1.14-2.27,3.14-1.59a1.263,1.263,0,0,1,.57-.14h1.66v2.54h-1.35l-2.87,1.45Zm16.8-1.45h-2.22v-2.54h1.87l2.23-1.35,1.31,2.17-2.53,1.53a1.285,1.285,0,0,1-.66.18Zm-4.81,0h-5.18v-2.54h5.18Zm10.21-3.05-1.31-2.17,4.43-2.68,1.31,2.17Zm6.65-4.02-1.31-2.17,4.43-2.68,1.31,2.17Zm6.65-4.02-1.31-2.17,4.43-2.68,1.31,2.17Zm6.65-4.02-1.31-2.17,4.43-2.68,1.31,2.17Zm6.65-4.02-1.31-2.17,4.43-2.68,1.31,2.17Zm6.65-4.02-1.31-2.17,4.43-2.68,1.31,2.17Zm6.65-4.02-1.31-2.17,4.43-2.68,1.31,2.17Zm6.65-4.02-1.31-2.17,4.43-2.68,1.31,2.17Z" fill="#4975bf"/>
            <path id="Trazado_775518" data-name="Trazado 775518" d="M209.15,253.11a1.27,1.27,0,0,1-.86-.33l-1.87-1.72,1.72-1.87,1.22,1.12,1.48-.75,1.14,2.27-2.27,1.14a1.3,1.3,0,0,1-.57.14Z" fill="#4975bf"/>
            <path id="Trazado_775519" data-name="Trazado 775519" d="M204.86,249.63l-3.12-2.86,1.72-1.87,3.12,2.86Zm-4.68-4.29-3.12-2.86,1.72-1.87,3.12,2.86Z" fill="#4975bf"/>
            <path id="Trazado_775520" data-name="Trazado 775520" d="M193.91,241.18l-1.99-1.57,1.58-1.99a1.263,1.263,0,0,1,.89-.48,1.3,1.3,0,0,1,.96.33l1.87,1.72-1.72,1.87-.87-.79-.73.92Z" fill="#4975bf"/>
            <path id="Trazado_775521" data-name="Trazado 775521" d="M184.02,253.67l-1.99-1.58,3.29-4.16,1.99,1.58Zm4.94-6.24-1.99-1.58,3.29-4.16,1.99,1.58Z" fill="#4975bf"/>
            <rect id="Rectángulo_361558" data-name="Rectángulo 361558" width="2.54" height="2.54" transform="translate(178.813 256.179) rotate(-51.6)" fill="#4975bf"/>
          </g>
          <path id="Trazado_775522" data-name="Trazado 775522" d="M175.76,250.19l4.05,4.05,3.99-3.99,1.36,1.36-3.99,3.99,4.11,4.11-1.36,1.36-4.11-4.11-3.99,3.99-1.36-1.36,3.99-3.99-4.05-4.05,1.36-1.36Z" fill="#42566b"/>
          <g id="Grupo_1028726" data-name="Grupo 1028726">
            <rect id="Rectángulo_361559" data-name="Rectángulo 361559" width="2.54" height="2.54" transform="translate(209.27 274.167) rotate(-72.38)" fill="#4975bf"/>
            <path id="Trazado_775523" data-name="Trazado 775523" d="M213.19,270.19l-2.42-.77,1.47-4.65,2.42.77Zm2.21-6.97-2.42-.77,1.47-4.65,2.42.77Zm2.21-6.97-2.42-.77,1.47-4.64,2.42.77Zm2.21-6.97-2.42-.77,1.47-4.64,2.42.77Zm2.21-6.97-2.42-.77,1.47-4.64,2.42.77Z" fill="#4975bf"/>
            <path id="Trazado_775524" data-name="Trazado 775524" d="M224.24,235.35l-2.42-.77.77-2.42a1.239,1.239,0,0,1,.65-.75l2.28-1.13,1.13,2.28-1.79.89-.61,1.91Z" fill="#4975bf"/>
            <rect id="Rectángulo_361560" data-name="Rectángulo 361560" width="5.64" height="2.54" transform="translate(228.045 229.034) rotate(-26.34)" fill="#4975bf"/>
            <path id="Trazado_775525" data-name="Trazado 775525" d="M238.28,228.12l-.47-1.1-1.07.53-1.13-2.28,2.28-1.13a1.288,1.288,0,0,1,1-.05,1.3,1.3,0,0,1,.73.69l.99,2.34-2.34.99Z" fill="#4975bf"/>
            <path id="Trazado_775526" data-name="Trazado 775526" d="M250.03,255.81l-1.96-4.61,2.34-.99,1.96,4.61Zm-2.94-6.92-1.96-4.62,2.34-.99,1.96,4.62Zm-2.94-6.92-1.96-4.61,2.34-.99,1.96,4.61Zm-2.94-6.92-1.96-4.61,2.34-.99,1.96,4.61Z" fill="#4975bf"/>
            <path id="Trazado_775527" data-name="Trazado 775527" d="M253.17,261.23a.681.681,0,0,1-.2-.02,1.263,1.263,0,0,1-.97-.76l-.99-2.34,2.34-.99.2.46.33-.38,1.92,1.66-1.66,1.92a1.262,1.262,0,0,1-.96.44Z" fill="#4975bf"/>
            <path id="Trazado_775528" data-name="Trazado 775528" d="M257.46,256.96l-1.92-1.66,3.33-3.84,1.92,1.66-3.33,3.84Zm4.99-5.76-1.92-1.66,3.33-3.84,1.92,1.66Zm4.99-5.76-1.92-1.66,3.33-3.84,1.92,1.66Zm4.99-5.76-1.92-1.66,3.33-3.84,1.92,1.66Zm4.99-5.76-1.92-1.66,3.33-3.84,1.92,1.66Zm4.99-5.76-1.92-1.66,3.33-3.84,1.92,1.66Zm4.99-5.76-1.92-1.66,3.33-3.84,1.92,1.66Zm5-5.76-1.92-1.66,3.33-3.84,1.92,1.66Z" fill="#4975bf"/>
            <rect id="Rectángulo_361561" data-name="Rectángulo 361561" width="2.54" height="2.54" transform="matrix(0.655, -0.755, 0.755, 0.655, 295.498, 209.211)" fill="#4975bf"/>
          </g>
          <g id="Grupo_1028727" data-name="Grupo 1028727">
            <circle id="Elipse_8750" data-name="Elipse 8750" cx="4.61" cy="4.61" r="4.61" transform="translate(292.3 203.53)" fill="#fdbe11"/>
            <path id="Trazado_775529" data-name="Trazado 775529" d="M296.91,214.02a5.88,5.88,0,1,1,5.88-5.88A5.89,5.89,0,0,1,296.91,214.02Zm0-9.22a3.34,3.34,0,1,0,3.34,3.34A3.346,3.346,0,0,0,296.91,204.8Z" fill="#42566b"/>
          </g>
          <g id="Grupo_1028733" data-name="Grupo 1028733">
            <g id="Grupo_1028728" data-name="Grupo 1028728">
              <path id="Trazado_775530" data-name="Trazado 775530" d="M118.92,215.16H97.17a1.27,1.27,0,0,1,0-2.54h21.75a1.27,1.27,0,0,1,0,2.54Z" fill="#42566b"/>
              <path id="Trazado_775531" data-name="Trazado 775531" d="M118.92,222.81h-14.5a1.27,1.27,0,0,1,0-2.54h14.5a1.27,1.27,0,0,1,0,2.54Z" fill="#42566b"/>
            </g>
            <g id="Grupo_1028732" data-name="Grupo 1028732">
              <g id="Grupo_1028729" data-name="Grupo 1028729">
                <path id="Trazado_775532" data-name="Trazado 775532" d="M150.92,220l-22.73-17.36h45.46Z" fill="#fdbe11"/>
                <path id="Trazado_775533" data-name="Trazado 775533" d="M150.92,221.27a1.3,1.3,0,0,1-.77-.26l-22.73-17.36a1.271,1.271,0,0,1,.77-2.28h45.46a1.271,1.271,0,0,1,1.2.86,1.289,1.289,0,0,1-.43,1.42l-22.73,17.36A1.3,1.3,0,0,1,150.92,221.27Zm-18.98-17.36,18.98,14.49,18.98-14.49H131.95Z" fill="#42566b"/>
              </g>
              <g id="Grupo_1028730" data-name="Grupo 1028730">
                <path id="Trazado_775534" data-name="Trazado 775534" d="M150.92,220l22.73-17.36V230.9H128.19V202.64Z" fill="#fff"/>
                <path id="Trazado_775535" data-name="Trazado 775535" d="M173.65,232.17H128.19a1.272,1.272,0,0,1-1.27-1.27V202.64a1.27,1.27,0,0,1,2.04-1.01l21.96,16.77,21.96-16.77a1.27,1.27,0,0,1,2.04,1.01V230.9a1.272,1.272,0,0,1-1.27,1.27Zm-44.19-2.54h42.92V205.21l-20.69,15.8a1.261,1.261,0,0,1-1.54,0l-20.69-15.8Z" fill="#42566b"/>
              </g>
              <g id="Grupo_1028731" data-name="Grupo 1028731">
                <path id="Trazado_775536" data-name="Trazado 775536" d="M150.92,213.54,128.19,230.9h45.46Z" fill="#fdbe11"/>
                <path id="Trazado_775537" data-name="Trazado 775537" d="M173.65,232.17H128.19a1.271,1.271,0,0,1-1.2-.86,1.289,1.289,0,0,1,.43-1.42l22.73-17.36a1.261,1.261,0,0,1,1.54,0l22.73,17.36a1.271,1.271,0,0,1-.77,2.28Zm-41.71-2.54h37.95l-18.98-14.49-18.98,14.49Z" fill="#42566b"/>
              </g>
            </g>
          </g>
        </g>
        <g id="Grupo_1028743" data-name="Grupo 1028743">
          <g id="Grupo_1028735" data-name="Grupo 1028735">
            <path id="Trazado_775538" data-name="Trazado 775538" d="M367.44,247.68c0-2.24,1.58-5.81,1.58-11.19a17.1,17.1,0,0,0-2.52-9.36c-1.32-15.05-20.03-20.79-35.05-20.79-23.13,0-39.16,15.75-39.16,34.89,0,20.4,13.13,28.6,13.13,37.62l.16,30.56h31.17c.35-6.86-.94-14.28,8.55-14.28l16.25.02c.97,0,3.64-1.73,3.64-5.61,0-2.82-1.88-6.35-1.88-6.49,0-2.28,4.16-2.13,4.16-4.47,0-1.46-2.1-2.39-2.1-2.76,0-1.2,2.49-1.12,2.49-2.89,0-.94-.47-2.11-.47-3.06,0-3.78,7.3.6,7.3-6.18,0-5.9-7.23-9.24-7.23-16.01Z" fill="#fff"/>
            <path id="Trazado_775539" data-name="Trazado 775539" d="M337.94,310.68H304.3l-.16-31.82c0-3.25-1.95-6.49-4.43-10.59-3.88-6.43-8.7-14.42-8.7-27.03,0-20.62,17.38-36.16,40.43-36.16,17,0,34.75,6.7,36.29,21.65a18.284,18.284,0,0,1,2.56,9.77,35.909,35.909,0,0,1-1.07,8.19,16.249,16.249,0,0,0-.51,3c0,3.08,1.72,5.39,3.55,7.82,1.81,2.42,3.68,4.92,3.68,8.19,0,5.04-3.64,5.38-5.59,5.56-1.71.16-1.71.27-1.71.62a6.516,6.516,0,0,0,.2,1.26,8.317,8.317,0,0,1,.26,1.8,3.2,3.2,0,0,1-1.98,2.81,3.859,3.859,0,0,1,1.59,2.84c0,1.95-1.68,2.82-2.78,3.39-.78.41-1.21.66-1.33.91v.01a17.878,17.878,0,0,1,1.83,6.64c0,4.52-3.2,6.88-4.91,6.88l-16.25-.02c-6.67,0-7.07,3.73-7.2,10.33-.02.91-.04,1.83-.08,2.74l-.06,1.21Zm-31.11-2.54h28.69c.01-.49.02-.97.03-1.46.12-6.01.25-12.82,9.74-12.82l16.25.02c.47-.07,2.37-1.35,2.37-4.34a15.859,15.859,0,0,0-1.61-5.59,1.987,1.987,0,0,1-.27-.9c0-1.9,1.59-2.73,2.74-3.33,1-.52,1.41-.79,1.41-1.14s-.73-.93-1.07-1.21c-.51-.4-1.03-.81-1.03-1.55a2.674,2.674,0,0,1,1.72-2.25c.7-.39.77-.49.77-.64a6.668,6.668,0,0,0-.2-1.25,8.5,8.5,0,0,1-.26-1.81c0-2.77,2.51-3.01,4.01-3.15,2.05-.19,3.29-.31,3.29-3.04,0-2.43-1.54-4.48-3.18-6.67-1.9-2.54-4.06-5.42-4.06-9.35a17.108,17.108,0,0,1,.57-3.56,32.978,32.978,0,0,0,1.01-7.63,15.741,15.741,0,0,0-2.33-8.68l-.16-.26-.03-.31c-1.36-15.5-21.88-19.64-33.79-19.64-21.6,0-37.89,14.46-37.89,33.62,0,11.9,4.62,19.56,8.34,25.72,2.57,4.26,4.79,7.94,4.79,11.9l.15,29.29Z" fill="#42566b"/>
          </g>
          <path id="Trazado_775540" data-name="Trazado 775540" d="M359.27,221.74a1.264,1.264,0,0,1-1-.49c-4.44-5.67-14.97-9.34-26.82-9.34a1.27,1.27,0,0,1,0-2.54c10.03,0,22.88,2.71,28.82,10.31a1.27,1.27,0,0,1-1,2.05Z" fill="#42566b"/>
          <g id="Grupo_1028739" data-name="Grupo 1028739">
            <g id="Grupo_1028737" data-name="Grupo 1028737">
              <rect id="Rectángulo_361562" data-name="Rectángulo 361562" width="12.12" height="12.12" transform="translate(350.82 236.53)" fill="#fff"/>
              <g id="Grupo_1028736" data-name="Grupo 1028736">
                <rect id="Rectángulo_361563" data-name="Rectángulo 361563" width="2.54" height="2.54" transform="translate(349.55 247.38)" fill="#42566b"/>
                <rect id="Rectángulo_361564" data-name="Rectángulo 361564" width="3.19" height="2.54" transform="translate(355.29 247.38)" fill="#42566b"/>
                <rect id="Rectángulo_361565" data-name="Rectángulo 361565" width="2.54" height="2.54" transform="translate(361.67 247.38)" fill="#42566b"/>
                <rect id="Rectángulo_361566" data-name="Rectángulo 361566" width="2.54" height="3.19" transform="translate(361.67 240.99)" fill="#42566b"/>
                <rect id="Rectángulo_361567" data-name="Rectángulo 361567" width="2.54" height="2.54" transform="translate(361.67 235.26)" fill="#42566b"/>
                <rect id="Rectángulo_361568" data-name="Rectángulo 361568" width="3.19" height="2.54" transform="translate(355.29 235.26)" fill="#42566b"/>
                <rect id="Rectángulo_361569" data-name="Rectángulo 361569" width="2.54" height="2.54" transform="translate(349.55 235.26)" fill="#42566b"/>
                <rect id="Rectángulo_361570" data-name="Rectángulo 361570" width="2.54" height="3.19" transform="translate(349.55 240.99)" fill="#42566b"/>
              </g>
            </g>
            <g id="Grupo_1028738" data-name="Grupo 1028738">
              <rect id="Rectángulo_361571" data-name="Rectángulo 361571" width="13.48" height="7.26" transform="translate(372.64 240.93) rotate(180)" fill="#fff"/>
              <path id="Trazado_775541" data-name="Trazado 775541" d="M373.91,242.19H357.89v-9.8h16.02Zm-13.48-2.54h10.94v-4.72H360.43Z" fill="#42566b"/>
            </g>
          </g>
          <g id="Grupo_1028742" data-name="Grupo 1028742">
            <g id="Grupo_1028740" data-name="Grupo 1028740">
              <rect id="Rectángulo_361572" data-name="Rectángulo 361572" width="16.82" height="3.89" transform="translate(317.81 269.32)" fill="#fff"/>
              <path id="Trazado_775542" data-name="Trazado 775542" d="M335.91,274.48H316.55v-6.43h19.36v6.43Zm-16.82-2.54h14.28v-1.35H319.09Z" fill="#42566b"/>
            </g>
            <g id="Grupo_1028741" data-name="Grupo 1028741">
              <path id="Trazado_775543" data-name="Trazado 775543" d="M317.81,278.2h16.82v2.24a4.357,4.357,0,0,1-4.36,4.36h-8.11a4.357,4.357,0,0,1-4.36-4.36V278.2h0Z" fill="#fff"/>
              <path id="Trazado_775544" data-name="Trazado 775544" d="M330.28,286.06h-8.11a5.636,5.636,0,0,1-5.63-5.63v-3.51H335.9v3.51a5.636,5.636,0,0,1-5.63,5.63Zm-11.2-6.59v.97a3.1,3.1,0,0,0,3.09,3.09h8.11a3.092,3.092,0,0,0,3.09-3.09v-.97H319.09Z" fill="#42566b"/>
            </g>
            <path id="Trazado_775545" data-name="Trazado 775545" d="M317.81,264.62h16.97v-.51a17.763,17.763,0,0,1,3.06-9.98,13.93,13.93,0,1,0-23.1,0,17.817,17.817,0,0,1,3.06,9.98v.51Z" fill="#fe502d"/>
            <rect id="Rectángulo_361573" data-name="Rectángulo 361573" width="2.54" height="25.16" transform="translate(325.03 253.04)" fill="#42566b"/>
            <path id="Trazado_775546" data-name="Trazado 775546" d="M326.3,255.72l-6.34-11.78h12.67l-6.34,11.78Zm-2.09-9.24,2.09,3.88,2.09-3.88Z" fill="#42566b"/>
          </g>
        </g>
        <g id="Grupo_1028752" data-name="Grupo 1028752">
          <g id="Grupo_1028745" data-name="Grupo 1028745">
            <circle id="Elipse_8751" data-name="Elipse 8751" cx="27.63" cy="27.63" r="27.63" transform="translate(114.654 282.126) rotate(-26.57)" fill="#fff"/>
            <g id="Grupo_1028744" data-name="Grupo 1028744">
              <circle id="Elipse_8752" data-name="Elipse 8752" cx="27.63" cy="27.63" r="27.63" transform="translate(114.654 282.126) rotate(-26.57)" fill="#fdbe11"/>
              <path id="Trazado_775547" data-name="Trazado 775547" d="M151.74,323.41a29.018,29.018,0,0,1-9.17-1.5,28.72,28.72,0,1,1,9.16,1.5Zm0-55.27a26.351,26.351,0,1,0,8.31,1.35A26.409,26.409,0,0,0,151.74,268.14Z" fill="#42566b"/>
            </g>
          </g>
          <g id="Grupo_1028746" data-name="Grupo 1028746">
            <circle id="Elipse_8753" data-name="Elipse 8753" cx="19.99" cy="19.99" r="19.99" transform="translate(131.72 274.51)" fill="#fff"/>
            <path id="Trazado_775548" data-name="Trazado 775548" d="M151.69,315.76a76.714,76.714,0,1,1-.01.01Zm0-39.99a3.048,3.048,0,1,0,0-.01Z" fill="#42566b"/>
          </g>
          <g id="Grupo_1028748" data-name="Grupo 1028748">
            <path id="Trazado_775549" data-name="Trazado 775549" d="M164.35,298.71a13.329,13.329,0,1,0-16.86,8.43,13.333,13.333,0,0,0,16.86-8.43Z" fill="#fff"/>
            <g id="Grupo_1028747" data-name="Grupo 1028747">
              <path id="Trazado_775550" data-name="Trazado 775550" d="M164.35,298.71a13.329,13.329,0,1,0-16.86,8.43,13.333,13.333,0,0,0,16.86-8.43Z" fill="#fdbe11"/>
              <path id="Trazado_775551" data-name="Trazado 775551" d="M151.72,309.1a14.605,14.605,0,1,1,13.83-9.99h0a14.628,14.628,0,0,1-13.83,9.99Zm-.03-26.66a12.061,12.061,0,1,0,11.44,15.88h0a12.056,12.056,0,0,0-11.44-15.87Z" fill="#42566b"/>
            </g>
          </g>
          <g id="Grupo_1028749" data-name="Grupo 1028749">
            <path id="Trazado_775552" data-name="Trazado 775552" d="M160.14,297.31a8.886,8.886,0,1,0-11.24,5.62A8.886,8.886,0,0,0,160.14,297.31Z" fill="#fff"/>
            <path id="Trazado_775553" data-name="Trazado 775553" d="M151.72,304.65a9.925,9.925,0,0,1-3.22-.53,10.152,10.152,0,1,1,12.84-6.42h0a10.178,10.178,0,0,1-9.62,6.95Zm-.02-17.78a7.616,7.616,0,1,0,7.22,10.03h0a7.612,7.612,0,0,0-4.81-9.63,7.755,7.755,0,0,0-2.42-.39Z" fill="#42566b"/>
          </g>
          <g id="Grupo_1028750" data-name="Grupo 1028750">
            <path id="Trazado_775554" data-name="Trazado 775554" d="M155.28,295.69a3.769,3.769,0,1,0-4.77,2.38A3.775,3.775,0,0,0,155.28,295.69Z" fill="#fdbe11"/>
            <path id="Trazado_775555" data-name="Trazado 775555" d="M151.7,299.53a4.9,4.9,0,0,1-1.59-.26,5.047,5.047,0,1,1,6.38-3.19h0a5.033,5.033,0,0,1-4.78,3.44Zm0-7.54a2.546,2.546,0,0,0-1.11.26,2.458,2.458,0,0,0-1.25,1.45,2.5,2.5,0,1,0,3.16-1.58,2.422,2.422,0,0,0-.79-.13Z" fill="#42566b"/>
          </g>
          <g id="Grupo_1028751" data-name="Grupo 1028751">
            <path id="Trazado_775556" data-name="Trazado 775556" d="M149.98,293.92a1.264,1.264,0,0,1-1.01-.5l-28.05-36.69a1.27,1.27,0,1,1,2.02-1.54l28.05,36.69a1.264,1.264,0,0,1-.24,1.78,1.235,1.235,0,0,1-.77.26Z" fill="#42566b"/>
            <path id="Trazado_775557" data-name="Trazado 775557" d="M149.47,291.98l.72-1.84.07.02.8,2.85c.41.89.83,1.78,1.24,2.67-.75-.63-1.5-1.27-2.25-1.9l-2.54-1.52v-.06l1.96-.22Z" fill="#42566b"/>
          </g>
          <path id="Trazado_775558" data-name="Trazado 775558" d="M124.14,260.13a1.209,1.209,0,0,1-.19-.01l-5.1-.78a1.27,1.27,0,0,1,.39-2.51l3.93.6.89-3.96a1.271,1.271,0,1,1,2.48.56l-1.15,5.11a1.262,1.262,0,0,1-1.24.99Z" fill="#42566b"/>
          <path id="Trazado_775559" data-name="Trazado 775559" d="M126.49,263.15a1.209,1.209,0,0,1-.19-.01l-5.1-.78a1.27,1.27,0,0,1,.39-2.51l3.93.6.89-3.96a1.271,1.271,0,1,1,2.48.56l-1.15,5.11a1.262,1.262,0,0,1-1.24.99Z" fill="#42566b"/>
        </g>
        <g id="Grupo_1028769" data-name="Grupo 1028769">
          <g id="Grupo_1028753" data-name="Grupo 1028753">
            <path id="Trazado_775560" data-name="Trazado 775560" d="M293.21,274.33h-.08a1.534,1.534,0,0,0,.17-.65c0-2.97-9.34-5.38-20.85-5.38s-20.85,2.41-20.85,5.38v38.47c0,2.97,9.35,5.38,20.89,5.38s20.89-2.41,20.89-5.38l-.16-37.82Z" fill="#fff"/>
            <path id="Trazado_775561" data-name="Trazado 775561" d="M272.48,318.8c-10.67,0-22.16-2.08-22.16-6.65V273.68c0-4.57,11.47-6.65,22.12-6.65s22.12,2.08,22.12,6.65a2.426,2.426,0,0,1-.09.65l.16,37.81c0,4.57-11.49,6.66-22.16,6.66Zm-.03-49.23c-12.92,0-19.58,2.88-19.58,4.11v38.47c0,1.23,6.67,4.11,19.62,4.11s19.62-2.88,19.62-4.11l-.15-36.57h-.79l.83-1.79a.924.924,0,0,0,.05-.13c0-1.21-6.66-4.1-19.58-4.1Z" fill="#42566b"/>
          </g>
          <path id="Trazado_775562" data-name="Trazado 775562" d="M272.45,280.33c-10.65,0-22.12-2.08-22.12-6.65s11.47-6.65,22.12-6.65,22.12,2.08,22.12,6.65S283.1,280.33,272.45,280.33Zm0-10.76c-12.92,0-19.58,2.88-19.58,4.11s6.66,4.11,19.58,4.11,19.58-2.88,19.58-4.11S285.37,269.57,272.45,269.57Z" fill="#42566b"/>
          <path id="Trazado_775563" data-name="Trazado 775563" d="M272.45,288.02c-10.65,0-22.12-2.08-22.12-6.65a1.27,1.27,0,0,1,2.54,0c0,1.23,6.66,4.11,19.58,4.11s19.58-2.88,19.58-4.11a1.27,1.27,0,1,1,2.54,0c0,4.57-11.47,6.65-22.12,6.65Z" fill="#42566b"/>
          <path id="Trazado_775564" data-name="Trazado 775564" d="M272.45,295.72c-10.65,0-22.12-2.08-22.12-6.65a1.27,1.27,0,0,1,2.54,0c0,1.23,6.66,4.11,19.58,4.11s19.58-2.88,19.58-4.11a1.27,1.27,0,0,1,2.54,0c0,4.57-11.47,6.65-22.12,6.65Z" fill="#42566b"/>
          <path id="Trazado_775565" data-name="Trazado 775565" d="M272.45,303.41c-10.65,0-22.12-2.08-22.12-6.65a1.27,1.27,0,0,1,2.54,0c0,1.23,6.66,4.11,19.58,4.11s19.58-2.88,19.58-4.11a1.27,1.27,0,1,1,2.54,0c0,4.57-11.47,6.65-22.12,6.65Z" fill="#42566b"/>
          <path id="Trazado_775566" data-name="Trazado 775566" d="M272.45,311.1c-10.65,0-22.12-2.08-22.12-6.65a1.27,1.27,0,0,1,2.54,0c0,1.23,6.66,4.11,19.58,4.11s19.58-2.88,19.58-4.11a1.27,1.27,0,1,1,2.54,0c0,4.57-11.47,6.65-22.12,6.65Z" fill="#42566b"/>
          <g id="Grupo_1028756" data-name="Grupo 1028756">
            <g id="Grupo_1028754" data-name="Grupo 1028754">
              <path id="Trazado_775567" data-name="Trazado 775567" d="M254.39,280.7a1.272,1.272,0,0,1-1.27-1.27v-2.9a1.27,1.27,0,0,1,2.54,0v2.9A1.272,1.272,0,0,1,254.39,280.7Z" fill="#42566b"/>
              <path id="Trazado_775568" data-name="Trazado 775568" d="M257.96,281.92a1.272,1.272,0,0,1-1.27-1.27v-2.9a1.27,1.27,0,1,1,2.54,0v2.9A1.272,1.272,0,0,1,257.96,281.92Z" fill="#42566b"/>
              <path id="Trazado_775569" data-name="Trazado 775569" d="M262.12,282.87a1.272,1.272,0,0,1-1.27-1.27v-2.9a1.27,1.27,0,0,1,2.54,0v2.9A1.272,1.272,0,0,1,262.12,282.87Z" fill="#42566b"/>
              <path id="Trazado_775570" data-name="Trazado 775570" d="M267.01,283.37a1.272,1.272,0,0,1-1.27-1.27v-2.9a1.27,1.27,0,0,1,2.54,0v2.9A1.272,1.272,0,0,1,267.01,283.37Z" fill="#42566b"/>
            </g>
            <g id="Grupo_1028755" data-name="Grupo 1028755">
              <path id="Trazado_775571" data-name="Trazado 775571" d="M290.39,280.58a1.272,1.272,0,0,1-1.27-1.27v-2.9a1.27,1.27,0,0,1,2.54,0v2.9A1.272,1.272,0,0,1,290.39,280.58Z" fill="#42566b"/>
              <path id="Trazado_775572" data-name="Trazado 775572" d="M286.83,281.8a1.272,1.272,0,0,1-1.27-1.27v-2.9a1.27,1.27,0,0,1,2.54,0v2.9A1.272,1.272,0,0,1,286.83,281.8Z" fill="#42566b"/>
              <path id="Trazado_775573" data-name="Trazado 775573" d="M282.67,282.76a1.272,1.272,0,0,1-1.27-1.27v-2.9a1.27,1.27,0,0,1,2.54,0v2.9A1.272,1.272,0,0,1,282.67,282.76Z" fill="#42566b"/>
              <path id="Trazado_775574" data-name="Trazado 775574" d="M277.78,283.25a1.272,1.272,0,0,1-1.27-1.27v-2.9a1.27,1.27,0,1,1,2.54,0v2.9A1.272,1.272,0,0,1,277.78,283.25Z" fill="#42566b"/>
            </g>
            <path id="Trazado_775575" data-name="Trazado 775575" d="M272.45,283.6a1.272,1.272,0,0,1-1.27-1.27v-2.9a1.27,1.27,0,0,1,2.54,0v2.9A1.272,1.272,0,0,1,272.45,283.6Z" fill="#42566b"/>
          </g>
          <g id="Grupo_1028759" data-name="Grupo 1028759">
            <g id="Grupo_1028757" data-name="Grupo 1028757">
              <path id="Trazado_775576" data-name="Trazado 775576" d="M254.39,288.45a1.272,1.272,0,0,1-1.27-1.27v-2.9a1.27,1.27,0,0,1,2.54,0v2.9A1.272,1.272,0,0,1,254.39,288.45Z" fill="#42566b"/>
              <path id="Trazado_775577" data-name="Trazado 775577" d="M257.96,289.67a1.272,1.272,0,0,1-1.27-1.27v-2.9a1.27,1.27,0,1,1,2.54,0v2.9A1.272,1.272,0,0,1,257.96,289.67Z" fill="#42566b"/>
              <path id="Trazado_775578" data-name="Trazado 775578" d="M262.12,290.62a1.272,1.272,0,0,1-1.27-1.27v-2.9a1.27,1.27,0,0,1,2.54,0v2.9A1.272,1.272,0,0,1,262.12,290.62Z" fill="#42566b"/>
              <path id="Trazado_775579" data-name="Trazado 775579" d="M267.01,291.12a1.272,1.272,0,0,1-1.27-1.27v-2.9a1.27,1.27,0,0,1,2.54,0v2.9A1.272,1.272,0,0,1,267.01,291.12Z" fill="#42566b"/>
            </g>
            <g id="Grupo_1028758" data-name="Grupo 1028758">
              <path id="Trazado_775580" data-name="Trazado 775580" d="M290.39,288.33a1.272,1.272,0,0,1-1.27-1.27v-2.9a1.27,1.27,0,0,1,2.54,0v2.9A1.272,1.272,0,0,1,290.39,288.33Z" fill="#42566b"/>
              <path id="Trazado_775581" data-name="Trazado 775581" d="M286.83,289.55a1.272,1.272,0,0,1-1.27-1.27v-2.9a1.27,1.27,0,0,1,2.54,0v2.9A1.272,1.272,0,0,1,286.83,289.55Z" fill="#42566b"/>
              <path id="Trazado_775582" data-name="Trazado 775582" d="M282.67,290.51a1.272,1.272,0,0,1-1.27-1.27v-2.9a1.27,1.27,0,0,1,2.54,0v2.9A1.272,1.272,0,0,1,282.67,290.51Z" fill="#42566b"/>
              <path id="Trazado_775583" data-name="Trazado 775583" d="M277.78,291a1.272,1.272,0,0,1-1.27-1.27v-2.9a1.27,1.27,0,1,1,2.54,0v2.9A1.272,1.272,0,0,1,277.78,291Z" fill="#42566b"/>
            </g>
            <path id="Trazado_775584" data-name="Trazado 775584" d="M272.45,291.35a1.272,1.272,0,0,1-1.27-1.27v-2.9a1.27,1.27,0,0,1,2.54,0v2.9A1.272,1.272,0,0,1,272.45,291.35Z" fill="#42566b"/>
          </g>
          <g id="Grupo_1028762" data-name="Grupo 1028762">
            <g id="Grupo_1028760" data-name="Grupo 1028760">
              <path id="Trazado_775585" data-name="Trazado 775585" d="M254.39,296.2a1.272,1.272,0,0,1-1.27-1.27v-2.9a1.27,1.27,0,0,1,2.54,0v2.9A1.272,1.272,0,0,1,254.39,296.2Z" fill="#42566b"/>
              <path id="Trazado_775586" data-name="Trazado 775586" d="M257.96,297.42a1.272,1.272,0,0,1-1.27-1.27v-2.9a1.27,1.27,0,1,1,2.54,0v2.9A1.272,1.272,0,0,1,257.96,297.42Z" fill="#42566b"/>
              <path id="Trazado_775587" data-name="Trazado 775587" d="M262.12,298.37a1.272,1.272,0,0,1-1.27-1.27v-2.9a1.27,1.27,0,0,1,2.54,0v2.9A1.272,1.272,0,0,1,262.12,298.37Z" fill="#42566b"/>
              <path id="Trazado_775588" data-name="Trazado 775588" d="M267.01,298.87a1.272,1.272,0,0,1-1.27-1.27v-2.9a1.27,1.27,0,0,1,2.54,0v2.9A1.272,1.272,0,0,1,267.01,298.87Z" fill="#42566b"/>
            </g>
            <g id="Grupo_1028761" data-name="Grupo 1028761">
              <path id="Trazado_775589" data-name="Trazado 775589" d="M290.39,296.08a1.272,1.272,0,0,1-1.27-1.27v-2.9a1.27,1.27,0,0,1,2.54,0v2.9A1.272,1.272,0,0,1,290.39,296.08Z" fill="#42566b"/>
              <path id="Trazado_775590" data-name="Trazado 775590" d="M286.83,297.3a1.272,1.272,0,0,1-1.27-1.27v-2.9a1.27,1.27,0,0,1,2.54,0v2.9A1.272,1.272,0,0,1,286.83,297.3Z" fill="#42566b"/>
              <path id="Trazado_775591" data-name="Trazado 775591" d="M282.67,298.25a1.272,1.272,0,0,1-1.27-1.27v-2.9a1.27,1.27,0,0,1,2.54,0v2.9A1.272,1.272,0,0,1,282.67,298.25Z" fill="#42566b"/>
              <path id="Trazado_775592" data-name="Trazado 775592" d="M277.78,298.75a1.272,1.272,0,0,1-1.27-1.27v-2.9a1.27,1.27,0,1,1,2.54,0v2.9A1.272,1.272,0,0,1,277.78,298.75Z" fill="#42566b"/>
            </g>
            <path id="Trazado_775593" data-name="Trazado 775593" d="M272.45,299.1a1.272,1.272,0,0,1-1.27-1.27v-2.9a1.27,1.27,0,0,1,2.54,0v2.9A1.272,1.272,0,0,1,272.45,299.1Z" fill="#42566b"/>
          </g>
          <g id="Grupo_1028765" data-name="Grupo 1028765">
            <g id="Grupo_1028763" data-name="Grupo 1028763">
              <path id="Trazado_775594" data-name="Trazado 775594" d="M254.39,303.95a1.272,1.272,0,0,1-1.27-1.27v-2.9a1.27,1.27,0,0,1,2.54,0v2.9A1.272,1.272,0,0,1,254.39,303.95Z" fill="#42566b"/>
              <path id="Trazado_775595" data-name="Trazado 775595" d="M257.96,305.17a1.272,1.272,0,0,1-1.27-1.27V301a1.27,1.27,0,1,1,2.54,0v2.9A1.272,1.272,0,0,1,257.96,305.17Z" fill="#42566b"/>
              <path id="Trazado_775596" data-name="Trazado 775596" d="M262.12,306.12a1.272,1.272,0,0,1-1.27-1.27v-2.9a1.27,1.27,0,0,1,2.54,0v2.9A1.272,1.272,0,0,1,262.12,306.12Z" fill="#42566b"/>
              <path id="Trazado_775597" data-name="Trazado 775597" d="M267.01,306.62a1.272,1.272,0,0,1-1.27-1.27v-2.9a1.27,1.27,0,0,1,2.54,0v2.9A1.272,1.272,0,0,1,267.01,306.62Z" fill="#42566b"/>
            </g>
            <g id="Grupo_1028764" data-name="Grupo 1028764">
              <path id="Trazado_775598" data-name="Trazado 775598" d="M290.39,303.83a1.272,1.272,0,0,1-1.27-1.27v-2.9a1.27,1.27,0,0,1,2.54,0v2.9A1.272,1.272,0,0,1,290.39,303.83Z" fill="#42566b"/>
              <path id="Trazado_775599" data-name="Trazado 775599" d="M286.83,305.05a1.272,1.272,0,0,1-1.27-1.27v-2.9a1.27,1.27,0,0,1,2.54,0v2.9A1.272,1.272,0,0,1,286.83,305.05Z" fill="#42566b"/>
              <path id="Trazado_775600" data-name="Trazado 775600" d="M282.67,306a1.272,1.272,0,0,1-1.27-1.27v-2.9a1.27,1.27,0,0,1,2.54,0v2.9A1.272,1.272,0,0,1,282.67,306Z" fill="#42566b"/>
              <path id="Trazado_775601" data-name="Trazado 775601" d="M277.78,306.5a1.272,1.272,0,0,1-1.27-1.27v-2.9a1.27,1.27,0,1,1,2.54,0v2.9A1.272,1.272,0,0,1,277.78,306.5Z" fill="#42566b"/>
            </g>
            <path id="Trazado_775602" data-name="Trazado 775602" d="M272.45,306.85a1.272,1.272,0,0,1-1.27-1.27v-2.9a1.27,1.27,0,0,1,2.54,0v2.9A1.272,1.272,0,0,1,272.45,306.85Z" fill="#42566b"/>
          </g>
          <g id="Grupo_1028768" data-name="Grupo 1028768">
            <g id="Grupo_1028766" data-name="Grupo 1028766">
              <path id="Trazado_775603" data-name="Trazado 775603" d="M254.39,311.7a1.272,1.272,0,0,1-1.27-1.27v-2.9a1.27,1.27,0,0,1,2.54,0v2.9A1.272,1.272,0,0,1,254.39,311.7Z" fill="#42566b"/>
              <path id="Trazado_775604" data-name="Trazado 775604" d="M257.96,312.91a1.272,1.272,0,0,1-1.27-1.27v-2.9a1.27,1.27,0,1,1,2.54,0v2.9A1.272,1.272,0,0,1,257.96,312.91Z" fill="#42566b"/>
              <path id="Trazado_775605" data-name="Trazado 775605" d="M262.12,313.87a1.272,1.272,0,0,1-1.27-1.27v-2.9a1.27,1.27,0,0,1,2.54,0v2.9A1.272,1.272,0,0,1,262.12,313.87Z" fill="#42566b"/>
              <path id="Trazado_775606" data-name="Trazado 775606" d="M267.01,314.37a1.272,1.272,0,0,1-1.27-1.27v-2.9a1.27,1.27,0,0,1,2.54,0v2.9A1.272,1.272,0,0,1,267.01,314.37Z" fill="#42566b"/>
            </g>
            <g id="Grupo_1028767" data-name="Grupo 1028767">
              <path id="Trazado_775607" data-name="Trazado 775607" d="M290.39,311.58a1.272,1.272,0,0,1-1.27-1.27v-2.9a1.27,1.27,0,0,1,2.54,0v2.9A1.272,1.272,0,0,1,290.39,311.58Z" fill="#42566b"/>
              <path id="Trazado_775608" data-name="Trazado 775608" d="M286.83,312.8a1.272,1.272,0,0,1-1.27-1.27v-2.9a1.27,1.27,0,1,1,2.54,0v2.9A1.272,1.272,0,0,1,286.83,312.8Z" fill="#42566b"/>
              <path id="Trazado_775609" data-name="Trazado 775609" d="M282.67,313.75a1.272,1.272,0,0,1-1.27-1.27v-2.9a1.27,1.27,0,0,1,2.54,0v2.9A1.272,1.272,0,0,1,282.67,313.75Z" fill="#42566b"/>
              <path id="Trazado_775610" data-name="Trazado 775610" d="M277.78,314.25a1.272,1.272,0,0,1-1.27-1.27v-2.9a1.27,1.27,0,0,1,2.54,0v2.9A1.272,1.272,0,0,1,277.78,314.25Z" fill="#42566b"/>
            </g>
            <path id="Trazado_775611" data-name="Trazado 775611" d="M272.45,314.6a1.272,1.272,0,0,1-1.27-1.27v-2.9a1.27,1.27,0,0,1,2.54,0v2.9A1.272,1.272,0,0,1,272.45,314.6Z" fill="#42566b"/>
          </g>
        </g>
        <g id="Grupo_1028770" data-name="Grupo 1028770">
          <path id="Trazado_775612" data-name="Trazado 775612" d="M205.92,161.8a21.428,21.428,0,0,1,30.28-1.17l-14.56,15.72-15.72-14.56Z" fill="#00a0d8"/>
          <path id="Trazado_775613" data-name="Trazado 775613" d="M239.89,156.65a26.862,26.862,0,0,1,6.51,30.12l-24.76-10.41,18.25-19.71Z" fill="#4975bf"/>
          <path id="Trazado_775614" data-name="Trazado 775614" d="M241.4,184.66a21.426,21.426,0,1,1-35.47-22.86l15.72,14.56,19.76,8.3Z" fill="#52c8d1"/>
        </g>
        <g id="Grupo_1028774" data-name="Grupo 1028774">
          <g id="Grupo_1028771" data-name="Grupo 1028771">
            <rect id="Rectángulo_361574" data-name="Rectángulo 361574" width="73.42" height="22.09" transform="translate(424.9 272.1)" fill="#4975bf"/>
            <path id="Trazado_775615" data-name="Trazado 775615" d="M498.32,295.46H424.9a1.272,1.272,0,0,1-1.27-1.27V272.1a1.272,1.272,0,0,1,1.27-1.27h73.42a1.272,1.272,0,0,1,1.27,1.27v22.09A1.272,1.272,0,0,1,498.32,295.46Zm-72.15-2.54h70.88V273.37H426.17Z" fill="#42566b"/>
          </g>
          <g id="Grupo_1028773" data-name="Grupo 1028773">
            <rect id="Rectángulo_361575" data-name="Rectángulo 361575" width="9.91" height="2.54" transform="translate(455.67 284.62)" fill="#fff"/>
            <g id="Grupo_1028772" data-name="Grupo 1028772">
              <rect id="Rectángulo_361576" data-name="Rectángulo 361576" width="9.91" height="2.54" transform="translate(455.67 279.14)" fill="#fff"/>
              <rect id="Rectángulo_361577" data-name="Rectángulo 361577" width="18.71" height="2.54" transform="translate(469.35 279.14)" fill="#fff"/>
              <rect id="Rectángulo_361578" data-name="Rectángulo 361578" width="18.71" height="2.54" transform="translate(469.35 284.62)" fill="#fff"/>
            </g>
          </g>
          <path id="Trazado_775616" data-name="Trazado 775616" d="M441.35,288.86a2.573,2.573,0,0,1-1.61-.57l-9.63-7.88,3.22-3.93,7.14,5.84,7.4-15.29,4.57,2.21-8.8,18.19a2.548,2.548,0,0,1-2.29,1.43Z" fill="#fff"/>
        </g>
        <g id="Grupo_1028782" data-name="Grupo 1028782">
          <path id="Trazado_775617" data-name="Trazado 775617" d="M67.79,313.13l-.57-2.47,4.9-1.13a6.822,6.822,0,0,0,5.24-7.37l-.12-1.1a39.808,39.808,0,0,1,.75-14.36c.94-4.79.96-5.97-.99-6.51a4.183,4.183,0,0,0-1.17-.16.119.119,0,0,0-.12.11l-.1.33-7,14.94a4.686,4.686,0,0,1-3.93,2.69l-6.3.42-.17-2.53,6.3-.42a2.133,2.133,0,0,0,1.8-1.23l6.94-14.81a2.656,2.656,0,0,1,2.59-2.03,6.872,6.872,0,0,1,1.85.25c4.41,1.23,3.66,5.04,2.8,9.45a37.165,37.165,0,0,0-.73,13.54l.13,1.16a9.349,9.349,0,0,1-7.19,10.12l-4.9,1.13Z" fill="#42566b"/>
          <g id="Grupo_1028775" data-name="Grupo 1028775">
            <path id="Trazado_775618" data-name="Trazado 775618" d="M57.9,296.99l6.3-.42a3.414,3.414,0,0,0,2.87-1.96l7-14.94a1.4,1.4,0,0,1,1.38-1.17,5.453,5.453,0,0,1,1.51.21c6.01,1.67-.79,9.48,1.16,21.96l6.67-1.2.43,22.07-5.69-.78c-8.06,1.08-9.39.8-19.3-4.58l-2.31-19.19Z" fill="#fff"/>
            <path id="Trazado_775619" data-name="Trazado 775619" d="M86.51,322.99l-6.99-.95c-8.19,1.1-9.92.67-19.9-4.74l-.58-.31-2.55-21.17,7.64-.51a2.181,2.181,0,0,0,1.81-1.23l6.94-14.81a2.656,2.656,0,0,1,2.59-2.03,7.176,7.176,0,0,1,1.85.25c4.41,1.23,3.66,5.03,2.8,9.44a38.615,38.615,0,0,0-.9,12.25l6.82-1.23.49,25.04Zm-6.99-3.51,4.39.6-.37-19.1-6.48,1.17-.2-1.28a39.6,39.6,0,0,1,.75-14.42c.94-4.79.96-5.97-.99-6.51a4.183,4.183,0,0,0-1.17-.16.128.128,0,0,0-.12.11l-.1.33-7,14.94a4.686,4.686,0,0,1-3.93,2.69l-4.97.33,2.08,17.21c9.14,4.93,10.29,5.15,17.95,4.12l.17-.02Z" fill="#42566b"/>
          </g>
          <g id="Grupo_1028776" data-name="Grupo 1028776">
            <rect id="Rectángulo_361579" data-name="Rectángulo 361579" width="9.94" height="29.31" transform="translate(50.58 293.05)" fill="#bfdeff"/>
            <path id="Trazado_775620" data-name="Trazado 775620" d="M61.8,323.63H49.32V291.78H61.8Zm-9.94-2.54h7.4V294.32h-7.4Z" fill="#42566b"/>
          </g>
          <g id="Grupo_1028781" data-name="Grupo 1028781">
            <g id="Grupo_1028777" data-name="Grupo 1028777">
              <path id="Trazado_775621" data-name="Trazado 775621" d="M96.37,304.11H87.3a2.981,2.981,0,0,1-2.98-2.98h0a2.981,2.981,0,0,1,2.98-2.98h9.07a2.981,2.981,0,0,1,2.98,2.98h0A2.981,2.981,0,0,1,96.37,304.11Z" fill="#fff"/>
              <path id="Trazado_775622" data-name="Trazado 775622" d="M96.37,305.38H87.3a4.25,4.25,0,0,1,0-8.5h9.07a4.25,4.25,0,0,1,0,8.5Zm-9.07-5.97a1.71,1.71,0,1,0,0,3.42h9.07a1.71,1.71,0,1,0,0-3.42Z" fill="#42566b"/>
            </g>
            <g id="Grupo_1028778" data-name="Grupo 1028778">
              <path id="Trazado_775623" data-name="Trazado 775623" d="M95.59,310.07H86.52a2.981,2.981,0,0,1-2.98-2.98h0a2.981,2.981,0,0,1,2.98-2.98h9.07a2.981,2.981,0,0,1,2.98,2.98h0A2.981,2.981,0,0,1,95.59,310.07Z" fill="#fff"/>
              <path id="Trazado_775624" data-name="Trazado 775624" d="M95.59,311.34H86.52a4.25,4.25,0,0,1,0-8.5h9.07a4.25,4.25,0,0,1,0,8.5Zm-9.07-5.96a1.71,1.71,0,1,0,0,3.42h9.07a1.71,1.71,0,1,0,0-3.42Z" fill="#42566b"/>
            </g>
            <g id="Grupo_1028779" data-name="Grupo 1028779">
              <path id="Trazado_775625" data-name="Trazado 775625" d="M94.81,316.04H85.74a2.981,2.981,0,0,1-2.98-2.98h0a2.981,2.981,0,0,1,2.98-2.98h9.07a2.981,2.981,0,0,1,2.98,2.98h0A2.981,2.981,0,0,1,94.81,316.04Z" fill="#fff"/>
              <path id="Trazado_775626" data-name="Trazado 775626" d="M94.81,317.31H85.74a4.25,4.25,0,0,1,0-8.5h9.07a4.25,4.25,0,0,1,0,8.5Zm-9.07-5.97a1.71,1.71,0,1,0,0,3.42h9.07a1.71,1.71,0,1,0,0-3.42Z" fill="#42566b"/>
            </g>
            <g id="Grupo_1028780" data-name="Grupo 1028780">
              <path id="Trazado_775627" data-name="Trazado 775627" d="M94.03,322.01H84.96a2.981,2.981,0,0,1-2.98-2.98h0a2.981,2.981,0,0,1,2.98-2.98h9.07a2.981,2.981,0,0,1,2.98,2.98h0A2.981,2.981,0,0,1,94.03,322.01Z" fill="#fff"/>
              <path id="Trazado_775628" data-name="Trazado 775628" d="M94.03,323.27H84.96a4.25,4.25,0,0,1,0-8.5h9.07a4.25,4.25,0,0,1,0,8.5Zm-9.07-5.96a1.71,1.71,0,1,0,0,3.42h9.07a1.71,1.71,0,1,0,0-3.42Z" fill="#42566b"/>
            </g>
          </g>
        </g>
        <circle id="Elipse_8754" data-name="Elipse 8754" cx="3.81" cy="3.81" r="3.81" transform="translate(176.22 79.94)" fill="#52c8d1" opacity="0.3"/>
        <circle id="Elipse_8755" data-name="Elipse 8755" cx="3.81" cy="3.81" r="3.81" transform="translate(300.99 65.59)" fill="#52c8d1" opacity="0.3"/>
        <g id="Grupo_1028783" data-name="Grupo 1028783">
          <rect id="Rectángulo_361580" data-name="Rectángulo 361580" width="2.54" height="8.89" transform="translate(495.02 104.46)" fill="#bfdeff"/>
          <rect id="Rectángulo_361581" data-name="Rectángulo 361581" width="8.89" height="2.54" transform="translate(491.85 107.63)" fill="#bfdeff"/>
        </g>
        <g id="Grupo_1028784" data-name="Grupo 1028784">
          <rect id="Rectángulo_361582" data-name="Rectángulo 361582" width="2.54" height="8.89" transform="translate(21.49 173.94)" fill="#bfdeff"/>
          <rect id="Rectángulo_361583" data-name="Rectángulo 361583" width="8.89" height="2.54" transform="translate(18.31 177.12)" fill="#bfdeff"/>
        </g>
        <g id="Grupo_1028785" data-name="Grupo 1028785">
          <path id="Trazado_775629" data-name="Trazado 775629" d="M325.28,54.27H313.52a1.27,1.27,0,0,1,0-2.54h11.76a1.27,1.27,0,0,1,0,2.54Z" fill="#bfdeff"/>
          <path id="Trazado_775630" data-name="Trazado 775630" d="M333.64,54.27h-3.42a1.27,1.27,0,0,1,0-2.54h3.42a1.27,1.27,0,0,1,0,2.54Z" fill="#bfdeff"/>
        </g>
        <g id="Grupo_1028786" data-name="Grupo 1028786">
          <path id="Trazado_775631" data-name="Trazado 775631" d="M128.28,65.73H116.52a1.27,1.27,0,0,1,0-2.54h11.76a1.27,1.27,0,1,1,0,2.54Z" fill="#bfdeff"/>
          <path id="Trazado_775632" data-name="Trazado 775632" d="M136.64,65.73h-3.42a1.27,1.27,0,1,1,0-2.54h3.42a1.27,1.27,0,1,1,0,2.54Z" fill="#bfdeff"/>
        </g>
        <g id="Grupo_1028787" data-name="Grupo 1028787">
          <path id="Trazado_775633" data-name="Trazado 775633" d="M277.43,70.66H265.67a1.27,1.27,0,0,1,0-2.54h11.76a1.27,1.27,0,0,1,0,2.54Z" fill="#bfdeff"/>
          <path id="Trazado_775634" data-name="Trazado 775634" d="M285.79,70.66h-3.42a1.27,1.27,0,0,1,0-2.54h3.42a1.27,1.27,0,0,1,0,2.54Z" fill="#bfdeff"/>
        </g>
        <g id="Grupo_1028788" data-name="Grupo 1028788">
          <path id="Trazado_775635" data-name="Trazado 775635" d="M35.4,100.7H23.64a1.27,1.27,0,1,1,0-2.54H35.4a1.27,1.27,0,1,1,0,2.54Z" fill="#bfdeff"/>
          <path id="Trazado_775636" data-name="Trazado 775636" d="M47.57,100.7H40.35a1.27,1.27,0,1,1,0-2.54h7.22a1.27,1.27,0,1,1,0,2.54Z" fill="#bfdeff"/>
        </g>
      </g>
    </g>
  </g>
</svg>
