<svg xmlns="http://www.w3.org/2000/svg" width="166" height="166" viewBox="0 0 166 166">
  <g id="Grupo_1028244" data-name="Grupo 1028244" transform="translate(-460 -5361)">
    <circle id="Elipse_8441" data-name="Elipse 8441" cx="83" cy="83" r="83" transform="translate(460 5361)" fill="#fff" opacity="0.45"/>
    <circle id="Elipse_8442" data-name="Elipse 8442" cx="67" cy="67" r="67" transform="translate(476 5377)" fill="#fff"/>
    <g id="edificios" transform="translate(506 5407)">
      <path id="Trazado_774615" data-name="Trazado 774615" d="M346.991,104v4.748H328V104Zm0,0" transform="translate(-279.334 -88.569)" fill="#e6e9ed"/>
      <path id="Trazado_774616" data-name="Trazado 774616" d="M344,72h14.244v4.748H344Zm0,0" transform="translate(-292.961 -61.317)" fill="#b4dd7f"/>
      <path id="Trazado_774617" data-name="Trazado 774617" d="M335.739,136v4.748H312V136Zm0,0" transform="translate(-265.708 -115.822)" fill="#b4dd7f"/>
      <path id="Trazado_774618" data-name="Trazado 774618" d="M324.487,168v4.748H296V168Zm0,0" transform="translate(-252.082 -143.074)" fill="#e6e9ed"/>
      <path id="Trazado_774619" data-name="Trazado 774619" d="M447.122,200v42.731H440V200Zm0,0" transform="translate(-374.717 -170.326)" fill="#ffeaa7"/>
      <path id="Trazado_774620" data-name="Trazado 774620" d="M303.122,235.609v7.122H296V200h7.122Zm0,0" transform="translate(-252.082 -170.326)" fill="#ffeaa7"/>
      <path id="Trazado_774621" data-name="Trazado 774621" d="M96.309,8l5.935,9.5H88L93.935,8Zm0,0" transform="translate(-74.943 -6.813)" fill="#ffc729"/>
      <path id="Trazado_774622" data-name="Trazado 774622" d="M172.748,128l4.748,7.122v1.187H168v-1.187Zm0,0" transform="translate(-143.074 -109.009)" fill="#ffc729"/>
      <path id="Trazado_774623" data-name="Trazado 774623" d="M44.748,128l4.748,7.122v1.187H40v-1.187Zm0,0" transform="translate(-34.065 -109.009)" fill="#ffc729"/>
      <path id="Trazado_774624" data-name="Trazado 774624" d="M90.991,80.309l-4.748,7.122v1.187h-9.5V87.431L72,80.309V72H90.991Zm0,0" transform="translate(-61.317 -61.317)" fill="#e6e9ed"/>
      <path id="Trazado_774625" data-name="Trazado 774625" d="M193.5,280v4.748H184V280Zm0,0" transform="translate(-156.7 -238.456)" fill="#ffeaa7"/>
      <path id="Trazado_774626" data-name="Trazado 774626" d="M33.5,280v4.748H24V280Zm0,0" transform="translate(-20.439 -238.456)" fill="#ffeaa7"/>
      <path id="Trazado_774627" data-name="Trazado 774627" d="M68.487,184v14.244H61.365v4.748H58.991V229.1H49.5V202.991H47.122v-4.748H40V184Zm-4.748,9.5v-4.748H44.748V193.5Zm0,0" transform="translate(-34.065 -156.7)" fill="#b4dd7f"/>
      <path id="Trazado_774628" data-name="Trazado 774628" d="M182.244,312v26.113H168V312Zm0,0" transform="translate(-143.074 -265.708)" fill="#e6e9ed"/>
      <path id="Trazado_774629" data-name="Trazado 774629" d="M22.244,312v26.113H8V312Zm0,0" transform="translate(-6.813 -265.708)" fill="#e6e9ed"/>
      <g id="Grupo_1028216" data-name="Grupo 1028216" transform="translate(5.935 15.431)">
        <path id="Trazado_774630" data-name="Trazado 774630" d="M104,104h4.748v4.748H104Zm0,0" transform="translate(-94.504 -104)" fill="#69d6f4"/>
        <path id="Trazado_774631" data-name="Trazado 774631" d="M136,104h4.748v4.748H136Zm0,0" transform="translate(-121.756 -104)" fill="#69d6f4"/>
        <path id="Trazado_774632" data-name="Trazado 774632" d="M104,216h4.748v4.748H104Zm0,0" transform="translate(-94.504 -199.382)" fill="#69d6f4"/>
        <path id="Trazado_774633" data-name="Trazado 774633" d="M72,216h4.748v4.748H72Zm0,0" transform="translate(-67.252 -199.382)" fill="#69d6f4"/>
        <path id="Trazado_774634" data-name="Trazado 774634" d="M168,216h4.748v4.748H168Zm0,0" transform="translate(-149.009 -199.382)" fill="#69d6f4"/>
        <path id="Trazado_774635" data-name="Trazado 774635" d="M136,216h4.748v4.748H136Zm0,0" transform="translate(-121.756 -199.382)" fill="#69d6f4"/>
        <path id="Trazado_774636" data-name="Trazado 774636" d="M40,408h4.748v4.748H40Zm0,0" transform="translate(-40 -362.895)" fill="#69d6f4"/>
        <path id="Trazado_774637" data-name="Trazado 774637" d="M40,344h4.748v4.748H40Zm0,0" transform="translate(-40 -308.391)" fill="#69d6f4"/>
        <path id="Trazado_774638" data-name="Trazado 774638" d="M200,408h4.748v4.748H200Zm0,0" transform="translate(-176.261 -362.895)" fill="#69d6f4"/>
        <path id="Trazado_774639" data-name="Trazado 774639" d="M200,344h4.748v4.748H200Zm0,0" transform="translate(-176.261 -308.391)" fill="#69d6f4"/>
        <path id="Trazado_774640" data-name="Trazado 774640" d="M351.122,200H344v42.731h14.244V200Zm0,0" transform="translate(-298.895 -185.756)" fill="#69d6f4"/>
      </g>
      <path id="Trazado_774641" data-name="Trazado 774641" d="M316.487,78.244V73.5h-2.374V68.748h-2.374V64H295.122v4.748h-2.374V73.5h-2.374v4.748H288V128.1h30.861V78.244ZM297.5,66.374h11.87v2.374H297.5Zm-2.374,4.748h16.617V73.5H295.122Zm-2.374,4.748h21.365v2.374H292.748Zm23.739,4.748v2.374H290.374V80.618Zm-14.244,4.748v4.748H297.5V85.365Zm7.122,33.235h-4.748v-4.748h4.748ZM297.5,99.609h4.748v4.748H297.5Zm0,7.122h4.748v4.748H297.5Zm0,7.122h4.748V118.6H297.5Zm11.87-2.374h-4.748v-4.748h4.748Zm0-7.122h-4.748V99.609h4.748Zm0-7.122h-4.748V92.487h4.748Zm-7.122,0H297.5V92.487h4.748ZM297.5,120.974h4.748v4.748H297.5Zm7.122,0h4.748v4.748h-4.748Zm4.748-30.861h-4.748V85.365h4.748Zm-18.991-4.748h4.748v40.357h-4.748Zm21.365,40.357V85.365h4.748v40.357Zm0,0" transform="translate(-245.269 -54.504)"/>
      <path id="Trazado_774642" data-name="Trazado 774642" d="M37.983,40.357H35.609v-14.6l-4.748-7.122V9.5h-2.9L22.024,0H18.334L12.4,9.5H9.5v9.136L4.748,25.753v14.6H2.374V45.1H0V73.592H40.357V45.1H37.983Zm-9.5,4.748V42.731h7.122V45.1Zm1.187-23.973L33,26.113H26.353ZM19.65,2.374h1.057L25.16,9.5H15.2Zm8.837,9.5v6.762l-4.748,7.122v.36H16.617v-.36L11.87,18.632V11.87Zm-17.8,9.262L14,26.113H7.362Zm-5.935,21.6H11.87V45.1H4.748Zm9.5,28.487H2.374V47.479h11.87Zm9.5,0H16.617V45.1H14.244V40.357H7.122V28.487H33.235v11.87H26.113V45.1H23.739Zm14.244,0H26.113V47.479h11.87Zm0,0" transform="translate(0)"/>
      <path id="Trazado_774643" data-name="Trazado 774643" d="M85.365,208H64v7.122H85.365Zm-9.5,2.374h2.374v2.374H75.87ZM73.5,212.748H71.122v-2.374H73.5Zm-7.122-2.374h2.374v2.374H66.374Zm16.618,2.374H80.618v-2.374h2.374Zm0,0" transform="translate(-54.504 -177.139)"/>
      <path id="Trazado_774644" data-name="Trazado 774644" d="M39.122,336H32v7.122h7.122Zm-2.374,4.748H34.374v-2.374h2.374Zm0,0" transform="translate(-27.252 -286.147)"/>
      <path id="Trazado_774645" data-name="Trazado 774645" d="M39.122,400H32v7.122h7.122Zm-2.374,4.748H34.374v-2.374h2.374Zm0,0" transform="translate(-27.252 -340.652)"/>
      <path id="Trazado_774646" data-name="Trazado 774646" d="M199.122,336H192v7.122h7.122Zm-2.374,4.748h-2.374v-2.374h2.374Zm0,0" transform="translate(-163.513 -286.147)"/>
      <path id="Trazado_774647" data-name="Trazado 774647" d="M199.122,400H192v7.122h7.122Zm-2.374,4.748h-2.374v-2.374h2.374Zm0,0" transform="translate(-163.513 -340.652)"/>
      <path id="Trazado_774648" data-name="Trazado 774648" d="M107.87,96H96v7.122h11.87Zm-9.5,2.374h2.374v2.374H98.374Zm7.122,2.374h-2.374V98.374H105.5Zm0,0" transform="translate(-81.756 -81.756)"/>
    </g>
  </g>
</svg>
